<svg width="170" height="49" viewBox="0 0 170 49" fill="none" xmlns="http://www.w3.org/2000/svg">
<path d="M122.146 12H110.003V2.71973H112.523V9.94336H114.84V2.71973H117.309V9.94336H119.62V2.71973H122.146V12ZM134.208 12H131.37L128.616 7.29639V12H126.096V2.71973H128.616V7.21387L131.269 2.71973H134.024L131.161 7.15039L134.208 12ZM145.794 7.34717C145.794 8.06234 145.707 8.71403 145.533 9.30225C145.364 9.88623 145.097 10.3898 144.733 10.813C144.37 11.2362 143.902 11.562 143.331 11.7905C142.759 12.0148 142.076 12.127 141.28 12.127C140.502 12.127 139.827 12.0148 139.255 11.7905C138.688 11.562 138.221 11.2383 137.853 10.8193C137.484 10.3962 137.212 9.89046 137.034 9.30225C136.856 8.71403 136.767 8.05811 136.767 7.33447C136.767 6.36963 136.926 5.53174 137.243 4.8208C137.565 4.10563 138.06 3.55339 138.729 3.16406C139.397 2.77051 140.252 2.57373 141.293 2.57373C142.351 2.57373 143.21 2.77051 143.87 3.16406C144.535 3.55762 145.021 4.11198 145.33 4.82715C145.639 5.54232 145.794 6.38232 145.794 7.34717ZM139.408 7.34717C139.408 7.90576 139.471 8.38607 139.598 8.78809C139.725 9.1901 139.926 9.49902 140.201 9.71484C140.476 9.93066 140.836 10.0386 141.28 10.0386C141.742 10.0386 142.108 9.93066 142.379 9.71484C142.654 9.49902 142.85 9.1901 142.969 8.78809C143.092 8.38607 143.153 7.90576 143.153 7.34717C143.153 6.50928 143.013 5.84701 142.734 5.36035C142.455 4.8737 141.974 4.63037 141.293 4.63037C140.84 4.63037 140.474 4.7404 140.195 4.96045C139.92 5.1805 139.719 5.49365 139.592 5.8999C139.469 6.30615 139.408 6.78857 139.408 7.34717ZM157.322 12H154.802V4.77002H153.031C153.002 5.11702 152.961 5.50846 152.911 5.94434C152.86 6.37598 152.803 6.82031 152.739 7.27734C152.68 7.73014 152.616 8.16602 152.549 8.58496C152.481 9.00391 152.411 9.36995 152.339 9.68311C152.229 10.1951 152.066 10.6331 151.85 10.9971C151.639 11.361 151.349 11.6403 150.981 11.835C150.613 12.0296 150.139 12.127 149.559 12.127C149.373 12.127 149.199 12.1143 149.038 12.0889C148.878 12.0635 148.723 12.0296 148.575 11.9873V10.0513C148.689 10.0894 148.795 10.1211 148.892 10.1465C148.99 10.1676 149.091 10.1782 149.197 10.1782C149.337 10.1782 149.46 10.138 149.565 10.0576C149.675 9.97721 149.777 9.8016 149.87 9.53076C149.967 9.25993 150.063 8.8431 150.156 8.28027C150.19 8.09831 150.234 7.82747 150.289 7.46777C150.344 7.10384 150.405 6.67432 150.473 6.1792C150.545 5.68408 150.617 5.14242 150.689 4.5542C150.765 3.96598 150.839 3.35449 150.911 2.71973H157.322V12ZM166.978 12L166.521 10.2607H163.506L163.036 12H160.281L163.309 2.68164H166.654L169.72 12H166.978ZM166.001 8.2041L165.601 6.68066C165.558 6.51562 165.497 6.28076 165.417 5.97607C165.336 5.66715 165.256 5.34977 165.175 5.02393C165.099 4.69385 165.04 4.42301 164.998 4.21143C164.96 4.42301 164.905 4.68538 164.833 4.99854C164.765 5.30745 164.693 5.61426 164.617 5.91895C164.545 6.22363 164.481 6.47754 164.426 6.68066L164.027 8.2041H166.001Z" fill="#C4117C"/>
<path d="M79.3291 18L78.4531 14.915H78.4268C78.4346 14.9951 78.4424 15.1035 78.4502 15.2402C78.46 15.377 78.4688 15.5244 78.4766 15.6826C78.4844 15.8408 78.4883 15.9932 78.4883 16.1396V18H77.4629V13.7168H79.0039L79.8975 16.7578H79.9209L80.7969 13.7168H82.3408V18H81.2773V16.1221C81.2773 15.9873 81.2793 15.8428 81.2832 15.6885C81.2891 15.5322 81.2949 15.3857 81.3008 15.249C81.3086 15.1104 81.3154 15.001 81.3213 14.9209H81.2949L80.4307 18H79.3291ZM87.6916 18L87.4807 17.1973H86.0891L85.8723 18H84.6008L85.9982 13.6992H87.5422L88.9572 18H87.6916ZM87.2404 16.248L87.0559 15.5449C87.0363 15.4688 87.008 15.3604 86.9709 15.2197C86.9338 15.0771 86.8967 14.9307 86.8596 14.7803C86.8244 14.6279 86.7971 14.5029 86.7775 14.4053C86.76 14.5029 86.7346 14.624 86.7014 14.7686C86.6701 14.9111 86.6369 15.0527 86.6018 15.1934C86.5686 15.334 86.5393 15.4512 86.5139 15.5449L86.3293 16.248H87.2404ZM93.1303 14.6045C92.9936 14.6045 92.8715 14.6338 92.7641 14.6924C92.6566 14.749 92.5648 14.832 92.4887 14.9414C92.4125 15.0508 92.3539 15.1846 92.3129 15.3428C92.2738 15.499 92.2543 15.6768 92.2543 15.876C92.2543 16.1455 92.2885 16.3721 92.3568 16.5557C92.4252 16.7393 92.5287 16.8779 92.6674 16.9717C92.808 17.0654 92.9838 17.1123 93.1947 17.1123C93.3861 17.1123 93.5697 17.0859 93.7455 17.0332C93.9232 16.9805 94.102 16.917 94.2816 16.8428V17.8213C94.0922 17.9053 93.8979 17.9658 93.6986 18.0029C93.5014 18.04 93.2914 18.0586 93.0688 18.0586C92.6039 18.0586 92.223 17.9668 91.9262 17.7832C91.6313 17.5977 91.4135 17.3408 91.2729 17.0127C91.1342 16.6846 91.0648 16.3037 91.0648 15.8701C91.0648 15.5459 91.1098 15.249 91.1996 14.9795C91.2914 14.71 91.4252 14.4766 91.601 14.2793C91.7768 14.0801 91.9936 13.9268 92.2514 13.8193C92.5111 13.71 92.808 13.6553 93.142 13.6553C93.349 13.6553 93.5668 13.6797 93.7953 13.7285C94.0258 13.7754 94.2504 13.8516 94.4691 13.957L94.1146 14.8682C93.9584 14.7939 93.8002 14.7314 93.64 14.6807C93.4799 14.6299 93.31 14.6045 93.1303 14.6045ZM98.8092 18H97.652V14.6631H96.6061V13.7168H99.8521V14.6631H98.8092V18ZM104.807 18H102.264V13.7168H104.807V14.6455H103.422V15.3193H104.705V16.248H103.422V17.0566H104.807V18ZM108.84 13.7168C109.383 13.7168 109.789 13.835 110.059 14.0713C110.33 14.3076 110.466 14.6436 110.466 15.0791C110.466 15.2744 110.438 15.4619 110.381 15.6416C110.326 15.8213 110.235 15.9814 110.108 16.1221C109.983 16.2627 109.816 16.374 109.607 16.4561C109.4 16.5381 109.145 16.5791 108.84 16.5791H108.515V18H107.357V13.7168H108.84ZM108.813 14.6514H108.515V15.6357H108.743C108.843 15.6357 108.936 15.6191 109.021 15.5859C109.107 15.5508 109.176 15.4951 109.227 15.4189C109.279 15.3408 109.306 15.2373 109.306 15.1084C109.306 14.9736 109.266 14.8643 109.186 14.7803C109.105 14.6943 108.981 14.6514 108.813 14.6514ZM116.956 15.8525C116.956 16.1826 116.916 16.4834 116.836 16.7549C116.758 17.0244 116.635 17.2568 116.467 17.4521C116.299 17.6475 116.083 17.7979 115.82 17.9033C115.556 18.0068 115.24 18.0586 114.873 18.0586C114.514 18.0586 114.202 18.0068 113.939 17.9033C113.677 17.7979 113.461 17.6484 113.291 17.4551C113.121 17.2598 112.995 17.0264 112.913 16.7549C112.831 16.4834 112.79 16.1807 112.79 15.8467C112.79 15.4014 112.863 15.0146 113.01 14.6865C113.158 14.3564 113.387 14.1016 113.696 13.9219C114.004 13.7402 114.399 13.6494 114.879 13.6494C115.367 13.6494 115.764 13.7402 116.069 13.9219C116.375 14.1035 116.6 14.3594 116.742 14.6895C116.885 15.0195 116.956 15.4072 116.956 15.8525ZM114.009 15.8525C114.009 16.1104 114.038 16.332 114.097 16.5176C114.155 16.7031 114.248 16.8457 114.375 16.9453C114.502 17.0449 114.668 17.0947 114.873 17.0947C115.086 17.0947 115.255 17.0449 115.38 16.9453C115.507 16.8457 115.598 16.7031 115.653 16.5176C115.709 16.332 115.737 16.1104 115.737 15.8525C115.737 15.4658 115.673 15.1602 115.544 14.9355C115.415 14.7109 115.194 14.5986 114.879 14.5986C114.67 14.5986 114.501 14.6494 114.372 14.751C114.245 14.8525 114.153 14.9971 114.094 15.1846C114.037 15.3721 114.009 15.5947 114.009 15.8525ZM119.53 13.7168H121.024C121.643 13.7168 122.084 13.8086 122.348 13.9922C122.612 14.1758 122.744 14.4395 122.744 14.7832C122.744 14.9707 122.709 15.1299 122.641 15.2607C122.575 15.3916 122.49 15.4951 122.386 15.5713C122.285 15.6475 122.18 15.6992 122.073 15.7266V15.7559C122.19 15.7852 122.306 15.834 122.421 15.9023C122.538 15.9688 122.635 16.0693 122.711 16.2041C122.789 16.3369 122.829 16.5176 122.829 16.7461C122.829 17.0059 122.762 17.2295 122.629 17.417C122.498 17.6045 122.311 17.749 122.067 17.8506C121.823 17.9502 121.533 18 121.197 18H119.53V13.7168ZM120.687 15.3604H121.036C121.227 15.3604 121.362 15.3213 121.44 15.2432C121.518 15.1631 121.557 15.0664 121.557 14.9531C121.557 14.8359 121.512 14.7471 121.422 14.6865C121.334 14.624 121.198 14.5928 121.012 14.5928H120.687V15.3604ZM120.687 16.207V17.1064H121.094C121.295 17.1064 121.436 17.0635 121.516 16.9775C121.596 16.8896 121.636 16.7803 121.636 16.6494C121.636 16.5732 121.619 16.502 121.583 16.4355C121.55 16.3672 121.493 16.3125 121.411 16.2715C121.329 16.2285 121.215 16.207 121.071 16.207H120.687ZM132.475 18H131.166L129.894 15.8291V18H128.731V13.7168H129.894V15.791L131.119 13.7168H132.39L131.069 15.7617L132.475 18ZM136.197 13.7168C136.74 13.7168 137.146 13.835 137.416 14.0713C137.688 14.3076 137.823 14.6436 137.823 15.0791C137.823 15.2744 137.795 15.4619 137.738 15.6416C137.684 15.8213 137.593 15.9814 137.466 16.1221C137.341 16.2627 137.174 16.374 136.965 16.4561C136.758 16.5381 136.502 16.5791 136.197 16.5791H135.872V18H134.715V13.7168H136.197ZM136.171 14.6514H135.872V15.6357H136.101C136.2 15.6357 136.293 15.6191 136.379 15.5859C136.465 15.5508 136.533 15.4951 136.584 15.4189C136.637 15.3408 136.663 15.2373 136.663 15.1084C136.663 14.9736 136.623 14.8643 136.543 14.7803C136.463 14.6943 136.339 14.6514 136.171 14.6514ZM142.934 18L142.723 17.1973H141.331L141.114 18H139.843L141.24 13.6992H142.784L144.199 18H142.934ZM142.483 16.248L142.298 15.5449C142.279 15.4688 142.25 15.3604 142.213 15.2197C142.176 15.0771 142.139 14.9307 142.102 14.7803C142.067 14.6279 142.039 14.5029 142.02 14.4053C142.002 14.5029 141.977 14.624 141.944 14.7686C141.912 14.9111 141.879 15.0527 141.844 15.1934C141.811 15.334 141.781 15.4512 141.756 15.5449L141.571 16.248H142.483ZM148.372 14.6045C148.236 14.6045 148.114 14.6338 148.006 14.6924C147.899 14.749 147.807 14.832 147.731 14.9414C147.655 15.0508 147.596 15.1846 147.555 15.3428C147.516 15.499 147.496 15.6768 147.496 15.876C147.496 16.1455 147.531 16.3721 147.599 16.5557C147.667 16.7393 147.771 16.8779 147.91 16.9717C148.05 17.0654 148.226 17.1123 148.437 17.1123C148.628 17.1123 148.812 17.0859 148.988 17.0332C149.165 16.9805 149.344 16.917 149.524 16.8428V17.8213C149.334 17.9053 149.14 17.9658 148.941 18.0029C148.744 18.04 148.534 18.0586 148.311 18.0586C147.846 18.0586 147.465 17.9668 147.168 17.7832C146.873 17.5977 146.656 17.3408 146.515 17.0127C146.376 16.6846 146.307 16.3037 146.307 15.8701C146.307 15.5459 146.352 15.249 146.442 14.9795C146.534 14.71 146.667 14.4766 146.843 14.2793C147.019 14.0801 147.236 13.9268 147.494 13.8193C147.753 13.71 148.05 13.6553 148.384 13.6553C148.591 13.6553 148.809 13.6797 149.037 13.7285C149.268 13.7754 149.493 13.8516 149.711 13.957L149.357 14.8682C149.201 14.7939 149.042 14.7314 148.882 14.6807C148.722 14.6299 148.552 14.6045 148.372 14.6045ZM156.17 15.8525C156.17 16.1826 156.129 16.4834 156.049 16.7549C155.971 17.0244 155.848 17.2568 155.68 17.4521C155.512 17.6475 155.296 17.7979 155.033 17.9033C154.769 18.0068 154.454 18.0586 154.087 18.0586C153.727 18.0586 153.416 18.0068 153.152 17.9033C152.89 17.7979 152.674 17.6484 152.504 17.4551C152.335 17.2598 152.209 17.0264 152.127 16.7549C152.045 16.4834 152.004 16.1807 152.004 15.8467C152.004 15.4014 152.077 15.0146 152.223 14.6865C152.372 14.3564 152.6 14.1016 152.909 13.9219C153.217 13.7402 153.612 13.6494 154.092 13.6494C154.581 13.6494 154.977 13.7402 155.282 13.9219C155.588 14.1035 155.813 14.3594 155.956 14.6895C156.098 15.0195 156.17 15.4072 156.17 15.8525ZM153.222 15.8525C153.222 16.1104 153.252 16.332 153.31 16.5176C153.369 16.7031 153.462 16.8457 153.588 16.9453C153.715 17.0449 153.881 17.0947 154.087 17.0947C154.299 17.0947 154.468 17.0449 154.593 16.9453C154.72 16.8457 154.811 16.7031 154.866 16.5176C154.922 16.332 154.951 16.1104 154.951 15.8525C154.951 15.4658 154.886 15.1602 154.757 14.9355C154.629 14.7109 154.407 14.5986 154.092 14.5986C153.883 14.5986 153.714 14.6494 153.586 14.751C153.459 14.8525 153.366 14.9971 153.307 15.1846C153.251 15.3721 153.222 15.5947 153.222 15.8525ZM160.633 18H159.475V14.6631H158.429V13.7168H161.676V14.6631H160.633V18ZM164.088 18V13.7168H165.245V15.2285H165.629C165.996 15.2285 166.298 15.2842 166.534 15.3955C166.772 15.5068 166.949 15.6621 167.064 15.8613C167.18 16.0586 167.237 16.2871 167.237 16.5469C167.237 16.998 167.085 17.3535 166.78 17.6133C166.476 17.8711 166.052 18 165.509 18H164.088ZM165.245 17.083H165.526C165.716 17.083 165.855 17.042 165.945 16.96C166.035 16.876 166.08 16.7568 166.08 16.6025C166.08 16.5029 166.057 16.4199 166.01 16.3535C165.963 16.2852 165.899 16.2334 165.819 16.1982C165.741 16.1631 165.651 16.1455 165.55 16.1455H165.245V17.083ZM167.536 18V13.7168H168.702V18H167.536Z" fill="#C4117C"/>
<path d="M149 23H170V29H155V33H166V39H155V43H170V49H149V23Z" fill="white"/>
<path d="M114 23H122L128 40H129L136 23H143L132 49H125L114 23Z" fill="white"/>
<rect x="102" y="23" width="6" height="26" fill="white"/>
<path d="M80 23H86H95V29H86V49H80V29H71V23H80Z" fill="white"/>
<circle cx="51" cy="36" r="8" fill="#C4117C"/>
<path d="M64 36C64 43.1797 58.1797 49 51 49C43.8203 49 38 43.1797 38 36C38 28.8203 43.8203 23 51 23C58.1797 23 64 28.8203 64 36ZM43.6881 36C43.6881 40.0382 46.9618 43.3119 51 43.3119C55.0382 43.3119 58.3119 40.0382 58.3119 36C58.3119 31.9618 55.0382 28.6881 51 28.6881C46.9618 28.6881 43.6881 31.9618 43.6881 36Z" fill="white"/>
<path d="M0 23H8L15 40H16L23 23H31V49H25V34L18 49H13L6 34V49H0V23Z" fill="white"/>
</svg>
