<svg width="477" height="503" viewBox="0 0 477 503" fill="none" xmlns="http://www.w3.org/2000/svg">
<path d="M191.655 1.97256C193.561 1.61092 196.816 1.11779 198.887 0.854779C201.583 0.493145 205.034 0.394518 210.886 0.460269C217.165 0.558897 220.156 0.756152 223.542 1.28216C225.975 1.67667 229.525 2.33419 231.432 2.79445C233.339 3.25471 236.593 4.17524 238.664 4.83275C240.735 5.45739 243.99 6.6738 245.897 7.46282C249.348 8.94223 249.348 8.94223 250.335 8.35047C250.861 8.05458 252.438 7.13406 253.786 6.34504C255.134 5.55602 257.567 4.40537 259.21 3.78073C260.854 3.15609 263.287 2.36707 264.635 2.00543C265.983 1.6438 268.645 1.11779 270.552 0.854779C272.459 0.558897 275.812 0.328766 278.047 0.328766C280.25 0.328766 283.8 0.558897 285.937 0.821903C288.041 1.08491 291.263 1.61092 293.071 2.00543C294.879 2.36707 297.476 2.95883 298.824 3.32047C300.171 3.71498 302.768 4.50399 304.576 5.09576C306.385 5.68752 309.639 6.87105 311.809 7.7587C313.978 8.61347 317.989 10.4545 320.685 11.8353C323.413 13.1832 327.457 15.5503 329.725 17.0626C331.993 18.5748 335.248 20.9419 336.957 22.2898C338.667 23.6377 342.743 27.4184 345.998 30.706C349.91 34.6511 353.033 38.1688 355.235 41.0948C357.076 43.5276 359.805 47.3083 361.35 49.4781C362.862 51.6479 365.656 55.856 367.563 58.8477C369.502 61.8394 372.067 65.9818 373.283 68.0529C374.499 70.1241 376.636 73.7405 377.984 76.1075C379.332 78.4746 381.567 82.2224 382.915 84.4909C384.263 86.7593 386.86 90.803 388.668 93.5317C390.476 96.2275 392.909 99.7124 394.125 101.258C395.308 102.803 397.774 105.827 399.582 107.997C401.39 110.167 405.762 114.901 409.28 118.517C412.797 122.134 416.808 126.44 418.189 128.051C419.569 129.662 422.495 133.443 424.698 136.435C426.933 139.426 430.319 144.226 432.291 147.119C434.231 150.012 437.354 154.977 439.261 158.133C441.167 161.289 443.666 165.661 444.849 167.831C446.033 170.001 448.268 174.275 449.813 177.365C451.325 180.455 453.659 185.387 454.974 188.378C456.289 191.37 458.097 195.644 458.985 197.912C459.906 200.181 461.385 204.093 462.272 206.625C463.16 209.156 464.409 212.772 465.034 214.679C465.658 216.586 466.743 220.136 467.467 222.569C468.157 225.002 469.34 229.375 470.064 232.268C470.787 235.161 471.905 240.125 472.529 243.281C473.187 246.437 474.074 251.467 474.502 254.459C474.962 257.451 475.553 262.086 475.816 264.815C476.112 267.511 476.507 273.297 476.737 277.636C477 283.587 477 287.335 476.737 292.924C476.507 297 476.112 302.326 475.849 304.759C475.553 307.192 474.962 311.334 474.502 313.964C474.074 316.594 473.154 321.032 472.529 323.827C471.872 326.621 470.59 331.224 469.702 334.018C468.814 336.813 467.171 341.415 466.053 344.21C464.968 347.004 462.766 351.903 461.188 355.059C459.61 358.215 457.144 362.719 455.731 365.086C454.284 367.453 452.476 370.313 451.687 371.497C450.898 372.68 449.024 375.277 447.545 377.25C446.066 379.223 443.896 381.984 442.778 383.332C441.628 384.68 432.028 395.726 421.443 407.825C410.792 419.989 400.338 431.627 398.07 433.796C395.834 435.966 392.448 439.089 390.542 440.7C388.635 442.344 385.611 444.876 383.802 446.322C381.994 447.802 378.082 450.793 375.091 453.029C372.099 455.231 366.478 459.177 362.599 461.741C358.72 464.338 352.638 468.185 349.121 470.289C345.603 472.393 338.93 476.009 334.327 478.31C329.725 480.612 323.643 483.406 320.849 484.524C318.055 485.642 312.203 487.713 307.864 489.192C303.524 490.639 297.377 492.611 294.221 493.499C291.065 494.419 286.397 495.669 283.866 496.26C281.335 496.852 277.718 497.674 275.812 498.069C273.905 498.463 270.289 499.121 267.758 499.548C265.226 500.008 260.854 500.633 258.06 500.995C255.266 501.356 250.17 501.915 246.718 502.244C242.445 502.638 237.415 502.803 230.775 502.803C223.082 502.803 219.729 502.638 214.502 502.079C210.886 501.685 206.218 501.093 204.147 500.732C202.076 500.37 198.591 499.712 196.421 499.219C194.252 498.726 190.833 497.839 188.86 497.247C186.888 496.622 184.028 495.702 179.82 494.124L176.467 495.406C174.593 496.129 171.306 497.148 169.136 497.707C166.966 498.266 163.35 498.989 161.082 499.384C158.814 499.745 155.033 500.173 152.699 500.304C150.365 500.469 146.42 500.534 143.988 500.501C141.555 500.436 138.07 500.238 136.262 500.041C134.454 499.844 131.364 499.384 129.359 499.022C127.353 498.66 124.329 498.003 122.62 497.543C120.91 497.082 117.951 496.162 116.045 495.537C114.138 494.88 110.653 493.433 108.319 492.315C105.985 491.198 102.698 489.455 101.087 488.469C99.4763 487.45 96.7149 485.543 95.0055 484.228C93.296 482.88 90.6332 480.546 89.121 479.001C87.576 477.456 84.9132 474.299 83.138 471.932C81.3957 469.565 78.963 466.015 77.7467 464.042C76.4975 462.07 74.7551 458.881 73.8347 456.974C72.8813 455.067 71.7965 452.733 71.402 451.812C70.7774 450.3 70.5473 450.037 69.6268 449.906C69.0351 449.807 66.4052 449.084 63.7753 448.295C61.1454 447.506 57.1019 446.158 54.735 445.303C52.368 444.481 48.2259 442.673 45.5303 441.358C42.8346 440.01 39.0541 437.906 37.1474 436.657C35.2407 435.44 32.578 433.501 31.2301 432.416C29.8823 431.331 27.351 428.964 25.6087 427.188C23.8993 425.38 21.5981 422.75 20.5461 421.304C19.4613 419.857 17.9162 417.556 17.0615 416.208C16.2396 414.86 14.7932 412.23 13.8398 410.389C12.9194 408.515 11.6044 405.556 10.8812 403.814C10.1908 402.038 9.07314 398.948 8.41566 396.976C7.79105 395.003 6.87059 391.945 6.41035 390.236C5.98299 388.526 5.25977 385.403 4.79953 383.332C4.37217 381.261 3.61607 377.119 3.15584 374.127C2.6956 371.135 2.00525 365.908 1.67651 362.456C1.3149 359.004 0.854666 353.547 0.624548 350.292C0.394431 346.544 0.29581 340.955 0.427305 335.005C0.525927 329.843 0.854666 323.564 1.11766 321.032C1.38065 318.501 1.77513 315.312 1.97238 313.964C2.16962 312.616 2.53123 310.085 2.8271 308.375C3.09009 306.666 3.78044 303.049 4.3393 300.321C4.89815 297.625 6.08161 292.661 6.96921 289.307C7.8568 285.954 9.30325 281.088 10.1908 278.458C11.0456 275.828 12.5906 271.62 13.5769 269.089C14.5631 266.557 16.0424 262.941 16.8642 261.034C17.6861 259.127 19.0997 255.872 20.053 253.801C21.0064 251.73 22.65 248.245 23.7349 246.076C24.8197 243.906 26.6935 240.355 27.877 238.185C29.0605 236.016 31.5589 231.643 33.4656 228.487C35.3722 225.331 38.561 220.301 40.5663 217.309C42.5716 214.317 46.122 209.287 48.4889 206.131C50.8558 202.975 54.2747 198.603 56.0499 196.433C57.8251 194.263 60.7837 190.778 62.5589 188.707C64.367 186.636 66.6682 183.809 67.7201 182.461C68.7392 181.113 70.5802 178.516 71.7636 176.708C72.9471 174.899 75.1825 170.987 76.7276 167.995C78.2727 165.004 80.4423 160.434 81.5272 157.804C82.6449 155.174 84.7817 149.355 86.3268 144.818C87.839 140.314 91.2907 128.84 94.0192 119.339C96.7478 109.838 99.9694 99.1206 101.153 95.5043C102.336 91.8879 104.046 86.9894 104.933 84.6552C105.821 82.2882 107.333 78.6061 108.254 76.4363C109.174 74.2665 110.818 70.7159 111.903 68.5461C112.987 66.3763 114.894 62.8257 116.143 60.6559C117.425 58.4861 119.332 55.3629 120.417 53.752C121.535 52.1411 123.376 49.5439 124.559 47.9987C125.743 46.4535 128.109 43.4947 129.819 41.4235C131.561 39.3524 134.75 35.8346 136.92 33.5662C139.089 31.3307 142.64 27.9116 144.842 26.0048C147.012 24.098 150.201 21.4679 151.91 20.1858C153.62 18.9036 156.118 17.0954 157.466 16.2078C158.814 15.3201 161.279 13.775 162.89 12.8216C164.501 11.8682 167.262 10.3888 168.972 9.53399C170.681 8.67922 173.87 7.26556 176.04 6.41079C178.209 5.55602 181.825 4.37249 184.094 3.74785C186.362 3.12321 189.748 2.33419 191.655 1.97256Z" fill="#ED0C7E"/>
<path fill-rule="evenodd" clip-rule="evenodd" d="M208.914 22.7172C211.445 22.6843 215.061 22.8487 216.968 23.0131C218.874 23.2103 222.227 23.7363 224.463 24.1637C226.665 24.624 230.282 25.5774 232.517 26.3335C234.72 27.0897 238.303 28.5362 240.472 29.5882C242.642 30.6403 245.995 32.5142 247.902 33.7635C249.841 34.9799 251.65 36.1634 251.913 36.3278C252.373 36.6237 252.373 36.8867 251.945 38.7935C251.65 39.977 251.354 43.0673 251.255 45.6974C251.124 48.722 251.222 51.3191 251.452 52.7657C251.65 54.0478 252.208 56.1848 252.669 57.5327C253.096 58.8806 254.181 61.2805 255.036 62.8914C255.89 64.4695 257.534 67.0995 258.717 68.7762C259.901 70.42 262.202 73.3459 263.846 75.2527C265.457 77.1595 268.514 80.4471 270.585 82.5183C272.656 84.5895 276.042 87.7455 278.113 89.5537C280.184 91.329 284.491 94.7481 287.646 97.1152C290.802 99.4822 295.832 103.066 298.824 105.071C301.815 107.077 306.385 110.035 309.014 111.679C311.644 113.323 316.017 115.887 318.712 117.4C321.441 118.879 327.49 122.002 332.191 124.303C336.892 126.605 342.217 129.103 344.025 129.859C345.833 130.648 349.318 132.194 351.751 133.311C354.183 134.429 362.27 138.21 369.667 141.662C377.096 145.147 384.329 148.697 385.775 149.585C387.221 150.473 389.062 151.492 389.884 151.853C390.706 152.215 391.725 152.544 392.185 152.544C392.941 152.544 392.974 152.478 392.744 151.492C392.613 150.9 392.12 149.881 391.692 149.256C391.232 148.632 390.081 147.119 389.161 145.936C388.208 144.752 385.479 141.563 383.112 138.867C380.745 136.172 377.491 132.785 375.88 131.339C374.269 129.892 372.001 127.854 370.817 126.868C369.634 125.849 366.905 123.679 364.736 122.068C362.566 120.457 359.246 118.09 357.339 116.808C355.432 115.558 352.342 113.553 350.436 112.37C348.529 111.186 345.077 109.082 342.71 107.635C340.376 106.222 336.135 103.592 333.341 101.816C330.547 100.008 326.109 97.0494 323.479 95.2412C320.849 93.4331 316.049 90.014 312.795 87.6469C309.54 85.3127 304.807 81.7622 302.275 79.7567C299.744 77.7842 296.128 74.8911 294.221 73.3459C292.315 71.8008 289.882 69.7296 288.797 68.7433C287.712 67.7899 280.25 60.4258 272.196 52.4369C264.142 44.4152 257.139 37.4127 255.594 35.8675L256.877 33.632C257.6 32.4156 259.243 30.3444 260.493 29.0951C262.268 27.3527 263.517 26.4322 265.621 25.413C267.166 24.6897 269.533 23.8021 270.881 23.4733C272.722 23.0131 274.563 22.8487 278.277 22.8487C281.006 22.8487 284.326 23.0459 285.674 23.309C287.022 23.5391 289.915 24.1637 292.084 24.7226C294.254 25.2815 298.035 26.465 300.467 27.3527C302.9 28.2732 306.976 30.0156 309.508 31.232C312.039 32.4813 315.458 34.3552 317.069 35.4401C318.712 36.525 321.572 38.662 323.479 40.2071C325.386 41.7194 328.772 44.8755 331.007 47.2097C333.243 49.5439 336.563 53.4561 338.404 55.8889C340.212 58.3217 343.664 63.2202 345.998 66.7379C348.365 70.2556 352.014 76.0418 354.085 79.5595C356.188 83.0772 359.344 88.5017 361.12 91.5591C362.928 94.6495 365.689 99.2192 367.3 101.751C368.911 104.282 371.738 108.49 373.645 111.12C375.518 113.75 379.069 118.32 381.567 121.312C384.066 124.303 388.701 129.399 391.89 132.654C395.078 135.909 398.859 139.919 400.24 141.53C401.653 143.174 404.447 146.725 406.486 149.421C408.524 152.149 411.285 155.996 412.633 157.968C414.014 159.974 416.282 163.426 417.696 165.694C419.109 167.963 421.279 171.579 422.528 173.749C423.777 175.918 426.276 180.488 428.051 183.94C429.826 187.392 432.489 192.915 433.968 196.269C435.447 199.622 437.617 204.783 438.768 207.775C439.951 210.767 441.726 215.567 442.713 218.46C443.699 221.353 445.145 226.021 445.967 228.816C446.789 231.61 447.94 235.917 448.564 238.35C449.189 240.782 450.208 245.385 450.832 248.541C451.457 251.697 452.279 256.53 452.673 259.226C453.035 261.954 453.594 266.524 453.89 269.417C454.251 273.067 454.416 277.768 454.416 284.869C454.416 292.266 454.284 296.507 453.857 300.321C453.561 303.214 452.936 307.652 452.509 310.183C452.082 312.715 451.26 316.726 450.701 319.06C450.109 321.427 448.794 325.931 447.742 329.087C446.69 332.243 445.145 336.484 444.29 338.457C443.436 340.429 441.989 343.552 441.102 345.36C440.181 347.169 438.768 349.832 437.946 351.278C437.124 352.725 435.184 355.815 433.639 358.182C432.094 360.516 429.826 363.705 428.61 365.25C427.393 366.795 425.881 368.637 425.257 369.36C424.632 370.083 424.106 370.51 424.073 370.346C424.073 370.182 425.651 366.828 427.558 362.949C429.464 359.07 431.601 354.434 432.324 352.692C433.015 350.916 434.297 347.3 435.119 344.637C435.941 341.941 437.124 337.766 437.716 335.333C438.34 332.901 439.195 329.054 439.655 326.786C440.083 324.517 440.773 320.605 441.135 318.074C441.496 315.542 441.989 311.696 442.219 309.526C442.482 306.961 442.647 301.241 442.647 293.088C442.647 285.165 442.482 279.149 442.219 276.65C441.989 274.48 441.496 270.568 441.135 267.938C440.773 265.308 440.05 260.804 439.491 257.911C438.965 255.018 437.913 250.218 437.19 247.226C436.467 244.234 435.382 240.026 434.724 237.857C434.1 235.687 433.015 232.136 432.292 229.966C431.601 227.797 430.286 223.95 429.399 221.419C428.511 218.887 426.867 214.515 425.717 211.72C424.599 208.926 422.692 204.553 421.476 202.022C420.26 199.49 418.32 195.775 417.202 193.803C416.052 191.83 413.915 188.411 412.469 186.242C411.022 184.072 408.721 180.817 407.373 179.009C406.025 177.201 403.626 174.242 402.048 172.434C400.47 170.625 397.116 167.141 394.585 164.708C392.087 162.275 388.405 158.955 386.4 157.377C384.427 155.766 379.858 152.478 376.242 150.078C372.625 147.678 367.76 144.621 365.393 143.306C363.059 141.991 359.344 140.084 357.175 139.065C355.005 138.046 350.929 136.27 348.134 135.12C345.34 134.002 338.601 131.47 333.177 129.531C327.753 127.591 321.112 125.092 318.384 124.008C315.688 122.923 311.743 121.279 309.672 120.325C307.601 119.405 304.346 117.827 302.44 116.808C300.533 115.789 297.147 113.849 294.879 112.501C292.61 111.153 289.159 108.918 287.153 107.57C285.181 106.189 281.236 103.362 278.442 101.258C275.647 99.1206 271.275 95.4056 268.777 93.0057C266.278 90.5729 263.024 87.1209 261.577 85.3127C260.098 83.5046 257.764 80.2499 256.351 78.0801C254.937 75.9103 253.063 72.7213 252.176 71.0118C251.321 69.3022 250.039 66.3434 249.381 64.4366C248.724 62.5298 247.836 60.3929 247.442 59.6696C247.014 58.9463 246.455 58.3217 246.127 58.2888C245.831 58.2231 245.436 58.4861 245.239 58.8477C245.075 59.2093 244.91 60.9518 244.91 62.7271C244.878 64.4695 245.042 66.8694 245.206 68.0529C245.404 69.2365 245.864 71.3734 246.258 72.8199C246.62 74.2665 247.442 76.8637 248.099 78.5732C248.724 80.2827 250.104 83.4717 251.156 85.6415C252.176 87.8113 254.115 91.2961 255.43 93.3673C256.712 95.4385 258.849 98.6274 260.131 100.436C261.413 102.244 263.353 104.841 264.438 106.189C265.522 107.537 268.58 110.824 271.21 113.454C273.839 116.117 277.456 119.438 279.264 120.852C281.072 122.298 284.26 124.566 286.332 125.947C288.403 127.328 292.117 129.596 294.55 131.01C296.983 132.391 302.308 135.185 306.385 137.224C310.461 139.229 315.491 141.596 317.562 142.484C319.633 143.371 322.756 144.818 324.465 145.673C326.175 146.56 327.95 147.58 329.232 148.632L325.945 148.369C324.136 148.204 320.455 148.138 317.726 148.138C313.814 148.171 312.236 148.336 310.165 148.895C308.719 149.289 306.648 150.012 305.563 150.505C304.478 151.031 302.407 152.182 300.96 153.103C299.415 154.089 297.246 155.897 295.701 157.541C294.254 159.053 292.216 161.552 291.197 163.097C290.178 164.609 288.501 167.404 287.515 169.31C286.529 171.217 285.115 174.176 284.425 175.886C283.702 177.595 282.65 180.488 282.091 182.296C281.532 184.105 280.776 186.998 280.447 188.707C280.085 190.417 279.625 193.376 279.395 195.282C279.198 197.222 279.099 200.247 279.198 202.186C279.296 204.093 279.625 206.69 279.954 207.94C280.25 209.222 281.072 211.424 281.762 212.871C282.551 214.548 283.965 216.652 285.641 218.624C287.088 220.334 288.731 222.635 289.29 223.72C289.849 224.805 290.276 226.021 290.276 226.449C290.276 226.975 290.079 227.172 289.553 227.172C289.126 227.172 287.909 226.777 286.825 226.317C285.74 225.857 284.03 225.199 283.044 224.838C282.058 224.476 280.414 224.213 279.428 224.213C278.146 224.213 276.93 224.542 275.319 225.232C273.872 225.857 272.229 226.317 270.881 226.416C269.369 226.547 267.725 226.383 265.128 225.824C263.057 225.397 260.361 225.068 258.882 225.068C256.778 225.101 255.956 225.232 254.773 225.857C253.951 226.251 252.899 226.942 252.406 227.369C251.88 227.797 251.189 228.158 250.828 228.158C250.389 228.158 250.17 227.939 250.17 227.501C250.17 227.139 250.367 226.35 250.598 225.791C250.861 225.199 252.176 223.687 253.556 222.405C255.134 220.958 256.12 219.775 256.219 219.216C256.383 218.427 256.318 218.295 255.693 218.295C255.266 218.263 253.984 218.92 252.833 219.676C251.682 220.465 250.335 221.616 249.841 222.241C249.348 222.865 248.691 223.917 248.362 224.542C248.033 225.166 247.738 226.317 247.738 227.073C247.705 228.191 247.902 228.651 248.691 229.44C249.25 229.999 250.072 230.657 250.598 230.887C251.419 231.248 251.617 231.183 252.899 230.196C253.655 229.605 254.937 228.684 255.759 228.125C256.581 227.599 257.665 227.172 258.224 227.172C258.783 227.172 261.051 227.468 263.32 227.829C265.588 228.191 268.382 228.487 269.566 228.487C270.749 228.487 272.886 228.191 274.333 227.797C275.779 227.402 277.62 226.942 278.442 226.777C279.625 226.514 280.348 226.547 281.894 227.008C282.978 227.303 284.556 227.928 285.444 228.355C286.299 228.783 287.614 229.276 288.403 229.44C289.422 229.67 290.046 229.638 290.868 229.276C291.427 229.013 292.15 228.388 292.413 227.829C292.676 227.303 292.906 226.449 292.906 225.955C292.906 225.429 292.578 224.509 292.183 223.884C291.789 223.26 290.506 221.419 289.29 219.775C288.107 218.131 286.562 215.928 285.904 214.843C285.247 213.759 284.359 211.95 283.899 210.833C283.406 209.682 282.748 207.545 282.387 206.066C282.058 204.553 281.663 202.088 281.532 200.542C281.433 198.964 281.499 196.301 281.696 194.46C281.926 192.652 282.452 189.693 282.88 187.885C283.307 186.077 284.26 182.888 285.017 180.817C285.773 178.746 287.252 175.261 288.271 173.091C289.75 170.034 290.539 168.817 291.789 167.634C292.676 166.812 294.155 165.76 295.043 165.3C295.964 164.839 298.232 163.787 300.139 162.965C302.045 162.176 304.708 161.092 306.056 160.631C307.404 160.138 310.001 159.349 311.809 158.889C313.617 158.429 316.74 157.771 318.712 157.442C321.046 157.015 324.695 156.719 329.068 156.62C334.163 156.456 336.727 156.555 339.587 156.916C341.658 157.212 344.453 157.672 345.767 157.935C347.839 158.396 348.233 158.593 348.792 159.546C349.318 160.401 349.449 161.19 349.449 163.722C349.449 165.431 349.153 168.85 348.759 171.283C348.397 173.716 347.937 177.135 347.707 178.877C347.477 180.62 347.214 182.198 347.082 182.329C346.918 182.494 344.42 181.409 341.494 179.896C337.681 177.99 335.215 176.971 333.012 176.379C331.303 175.951 328.41 175.425 326.602 175.195C324.695 174.998 322 174.932 320.192 175.031C318.482 175.162 316.115 175.425 314.932 175.59C313.748 175.787 311.677 176.28 310.329 176.74C308.982 177.201 306.549 178.253 304.905 179.075C303.294 179.896 301.059 181.179 299.974 181.968C298.889 182.724 297.18 184.236 296.194 185.321C295.207 186.406 294.057 187.951 293.695 188.74C293.301 189.529 292.906 190.548 292.775 191.008C292.61 191.798 292.709 191.863 294.977 192.554C296.259 192.948 299.054 193.639 301.125 194.099C303.196 194.559 306.154 195.085 307.7 195.315C309.245 195.545 313.091 195.743 316.247 195.743C320.027 195.743 323.249 195.545 325.616 195.184C327.621 194.888 330.35 194.329 331.697 193.967C333.045 193.573 335.281 192.85 336.629 192.324C337.976 191.798 341.034 190.548 343.368 189.562C345.735 188.576 347.74 187.852 347.904 187.984C348.036 188.115 348.858 190.581 349.745 193.474C350.633 196.367 351.783 200.674 352.276 203.008C353.033 206.592 353.164 208.104 353.197 212.378C353.197 216.323 353.065 217.967 352.605 219.61C352.309 220.794 351.652 222.701 351.192 223.884C350.699 225.068 349.614 227.205 348.792 228.651C347.937 230.098 345.998 232.827 344.485 234.733C343.006 236.64 338.864 241.144 335.314 244.76C329.857 250.316 328.673 251.697 327.72 253.637C326.766 255.609 326.602 256.267 326.602 258.272C326.602 259.587 326.668 260.738 326.766 260.837C326.865 260.935 327.687 261.133 328.574 261.231C329.495 261.363 330.613 261.363 331.139 261.231C331.632 261.133 332.552 260.541 333.21 259.982C333.867 259.39 335.182 257.714 336.135 256.267C337.089 254.82 339.817 250.251 342.184 246.075C344.584 241.933 346.754 238.284 347.05 238.021C347.51 237.561 347.543 237.725 347.313 239.5C347.214 240.585 346.655 243.314 346.129 245.582C345.603 247.851 344.65 251.336 343.992 253.308C343.335 255.281 342.151 258.568 341.33 260.541C340.508 262.513 338.93 265.998 337.779 268.267C336.661 270.535 334.788 273.921 333.67 275.828C332.519 277.735 330.908 280.233 330.12 281.417C329.298 282.6 327.621 284.869 326.372 286.513C325.123 288.157 322.822 290.918 321.244 292.726C319.666 294.502 316.904 297.296 315.096 298.94C313.288 300.551 309.146 304.036 305.891 306.633C302.637 309.263 298.363 312.485 296.358 313.8C294.386 315.148 291.493 316.89 289.948 317.712C288.403 318.534 285.608 319.717 283.702 320.342C281.795 320.967 279.296 321.657 278.113 321.821C276.93 322.019 274.563 322.183 272.853 322.183C271.144 322.183 268.481 321.986 266.936 321.69C265.391 321.427 263.254 320.934 262.169 320.572C261.084 320.243 259.013 319.487 257.567 318.895C256.12 318.337 253.096 316.89 250.828 315.706C248.559 314.523 245.173 312.583 243.267 311.4C241.36 310.249 238.401 308.309 236.692 307.126C234.982 305.909 231.728 303.477 229.46 301.668C227.191 299.86 222.852 296.244 219.762 293.614C216.705 290.984 210.754 285.428 206.612 281.253C202.437 277.11 197.736 272.08 196.158 270.075C194.548 268.102 192.411 265.209 191.359 263.664C190.34 262.119 188.992 259.85 188.367 258.568C187.776 257.319 187.02 254.853 186.658 253.144C186.329 251.434 185.672 247.226 185.244 243.774C184.817 240.355 184.225 234.569 183.929 230.953C183.666 227.336 183.436 224.279 183.436 224.147C183.436 223.983 183.535 223.884 183.699 223.884C183.831 223.851 184.587 224.805 185.376 225.923C186.165 227.073 187.545 228.947 188.367 230.131C189.222 231.314 190.307 233.057 190.8 234.01C191.26 234.931 192.608 238.58 193.792 242.065C194.975 245.517 196.684 249.856 197.539 251.664C198.492 253.604 199.807 255.675 200.728 256.727C201.616 257.681 202.996 258.864 203.818 259.324C204.936 259.949 205.889 260.212 207.599 260.278C208.881 260.344 210.13 260.245 210.393 260.081C210.722 259.85 210.886 259.193 210.853 258.009C210.82 256.924 210.524 255.577 209.998 254.459C209.571 253.473 208.683 251.927 208.092 251.007C207.467 250.119 205.626 247.818 203.982 245.944C202.372 244.037 199.906 241.144 198.558 239.533C197.21 237.889 195.041 235.226 193.726 233.583C192.444 231.972 190.307 229.013 188.959 227.008C187.644 225.035 185.836 221.978 185.014 220.268C184.159 218.558 183.009 215.83 182.483 214.186C181.957 212.575 181.267 210.044 180.971 208.597C180.675 207.151 180.346 203.666 180.247 200.871C180.116 197.814 180.215 194.197 180.478 191.83C180.675 189.661 181.135 186.274 181.497 184.269C181.825 182.296 182.121 179.995 182.121 179.173C182.121 178.351 181.99 177.201 181.793 176.642C181.628 176.05 181.365 175.557 181.234 175.557C181.069 175.557 180.741 175.951 180.412 176.445C180.116 176.971 179.623 178.318 179.327 179.502C179.031 180.685 178.505 182.592 178.111 183.776C177.749 184.959 176.927 186.965 176.27 188.214C175.645 189.496 174.133 191.929 172.917 193.639C171.7 195.348 169.761 197.715 168.577 198.899C167.394 200.082 165.947 201.299 164.369 202.186L163.712 200.871C163.35 200.148 162.759 198.471 162.43 197.189C162.068 195.874 161.542 193.671 161.279 192.324C161.016 190.976 160.556 188.313 160.293 186.406C160.03 184.499 159.636 181.639 159.471 179.995C159.274 178.351 158.978 175.327 158.781 173.256C158.616 171.184 158.321 167.174 158.123 164.379C157.926 161.585 157.63 156.094 157.466 152.215C157.302 148.336 157.137 141.07 157.137 136.106C157.137 131.142 157.302 125.355 157.466 123.284C157.63 121.213 157.959 118.254 158.156 116.709C158.353 115.164 158.781 112.304 159.142 110.298C159.504 108.326 160.26 104.972 160.819 102.901C161.378 100.83 162.331 97.6412 162.956 95.833C163.58 94.0248 165.158 90.3427 166.473 87.614C167.788 84.9182 169.859 81.1375 171.109 79.2307C172.325 77.3239 174.166 74.661 175.218 73.3131C176.237 71.9652 177.519 70.4858 178.045 70.0584C178.965 69.3351 179.163 69.3022 182.45 69.4666C184.357 69.5981 187.085 69.9926 188.532 70.3542C189.978 70.7159 191.983 71.3405 192.97 71.735C193.956 72.1295 197.079 73.7733 199.873 75.4171C202.667 77.028 205.166 78.5074 205.396 78.7047C205.725 78.9677 204.936 79.6581 201.977 81.6964C199.873 83.1429 196.947 85.3785 195.468 86.6607C193.989 87.9428 191.688 90.2441 190.307 91.7564C188.959 93.2687 186.987 95.6357 186 96.9837C184.981 98.3316 183.403 100.863 182.516 102.573C181.595 104.282 180.412 107.044 179.82 108.655C179.261 110.298 178.505 112.731 178.176 114.079C177.815 115.427 177.322 117.893 177.026 119.504C176.73 121.147 176.303 124.599 176.04 127.229C175.777 129.859 175.547 135.152 175.547 138.999C175.547 143.47 175.744 147.349 176.072 149.848C176.335 151.952 176.927 154.812 177.387 156.16C177.848 157.508 178.735 159.448 179.327 160.434C179.952 161.42 180.938 162.768 181.53 163.393C182.121 164.017 183.14 164.938 183.765 165.431C184.39 165.891 185.803 166.746 186.888 167.272C187.973 167.831 190.011 168.521 191.425 168.784C192.805 169.08 194.876 169.31 196.027 169.31C197.145 169.31 199.314 169.08 200.859 168.817C202.404 168.521 208.092 167.174 213.516 165.826C218.94 164.478 225.153 163.064 227.323 162.67C230.183 162.144 232.616 161.946 236.199 161.946C240.67 161.946 241.327 162.012 243.102 162.735C244.187 163.163 245.601 164.05 246.258 164.675C246.949 165.398 247.672 166.582 248.001 167.667C248.461 169.047 248.592 170.165 248.494 172.269C248.362 174.439 248.132 175.491 247.442 176.971C246.949 177.99 246.16 179.107 245.667 179.469C245.141 179.798 244.154 180.258 243.431 180.488C242.576 180.751 240.867 180.817 238.664 180.718C236.758 180.653 232.846 180.192 229.953 179.699C227.06 179.239 222.852 178.68 220.584 178.45C217.494 178.187 215.521 178.187 212.694 178.45C210.623 178.647 207.631 179.206 206.053 179.666C204.443 180.127 202.372 180.883 201.451 181.376C200.498 181.836 198.854 183.053 195.863 185.913L193.529 185.715C192.049 185.584 190.208 185.124 188.63 184.466C187.217 183.907 185.705 183.447 185.244 183.447C184.521 183.447 184.422 183.579 184.422 184.696C184.422 185.485 184.751 186.439 185.343 187.392C185.869 188.214 186.888 189.398 187.611 190.022C188.334 190.647 190.044 191.798 191.359 192.554C192.707 193.343 195.501 194.658 197.572 195.48C199.643 196.301 203.292 197.485 205.626 198.077C207.993 198.701 211.313 199.326 213.023 199.523C215.16 199.753 217.296 199.753 219.762 199.523C221.767 199.359 225.548 198.767 228.243 198.208C230.906 197.682 234.884 196.663 237.119 195.907C239.322 195.184 242.313 193.967 243.76 193.211C245.206 192.455 246.949 191.271 247.639 190.614C248.296 189.924 248.855 189.069 248.855 188.707C248.855 188.148 248.625 188.05 247.31 188.05C246.423 188.05 244.549 188.28 243.102 188.51C241.656 188.773 237.744 189.43 234.391 189.989C231.038 190.548 226.994 191.14 225.35 191.337C223.74 191.502 220.189 191.666 217.461 191.666C214.535 191.666 211.379 191.469 209.67 191.173C208.059 190.91 205.988 190.384 205.067 190.055C204.114 189.693 202.404 188.806 201.287 188.083C200.136 187.326 199.216 186.603 199.216 186.406C199.216 186.241 199.709 185.551 200.301 184.894C200.859 184.236 202.174 183.348 203.161 182.888C204.147 182.428 206.382 181.738 208.092 181.376C210.623 180.85 212.53 180.718 218.118 180.718C223.214 180.685 225.876 180.85 228.309 181.277C230.117 181.573 233.043 182.198 234.818 182.625C236.889 183.151 238.927 183.447 240.637 183.447C242.971 183.447 243.497 183.316 245.305 182.395C246.718 181.639 247.738 180.784 248.592 179.666C249.25 178.779 250.039 177.201 250.302 176.214C250.598 175.228 250.828 173.42 250.828 172.204C250.828 170.954 250.663 169.179 250.466 168.258C250.269 167.305 249.579 165.398 248.954 164.05C248.033 162.144 247.179 160.993 245.108 158.955C242.971 156.818 241.853 155.996 239.322 154.746C237.612 153.925 235.081 152.938 233.733 152.544C232.385 152.182 229.788 151.656 227.98 151.393C226.172 151.13 222.721 150.9 220.354 150.9C217.954 150.9 214.239 151.13 212.135 151.426C209.998 151.689 207.073 152.215 205.626 152.544C204.18 152.873 201.813 153.563 200.366 154.023C198.92 154.483 196.323 155.568 194.613 156.357C192.904 157.179 189.88 158.987 184.258 162.834L183.173 161.552C182.549 160.861 181.628 159.415 181.102 158.396C180.576 157.344 179.787 155.404 179.36 154.122C178.9 152.807 178.308 150.308 178.045 148.599C177.749 146.889 177.453 143.7 177.322 141.53C177.19 139.262 177.289 135.547 177.486 132.818C177.716 130.188 178.176 126.342 178.538 124.271C178.9 122.199 179.623 118.879 180.149 116.874C180.675 114.901 181.628 111.778 182.286 109.97C182.943 108.161 184.159 105.203 185.047 103.394C185.902 101.586 187.381 98.9233 188.367 97.4768C189.354 96.0303 190.964 93.992 191.951 92.9071C192.97 91.855 195.172 89.8496 196.882 88.4688C198.591 87.088 200.958 85.1812 202.141 84.195C203.325 83.2087 205.133 82.058 206.119 81.5978C207.533 80.9731 208.256 80.8088 209.407 80.9731C210.228 81.0718 212.727 81.7293 214.995 82.4525C217.263 83.2087 219.762 83.9648 220.584 84.195C221.406 84.3922 223.016 84.7867 224.2 85.0497C225.383 85.3127 228.408 85.6086 230.939 85.7073C234.621 85.8388 235.969 85.773 237.678 85.3456C238.862 85.0497 240.44 84.4251 241.229 83.9977C241.985 83.5374 242.938 82.6827 243.332 82.1238C243.727 81.532 244.121 80.4471 244.187 79.7239C244.253 78.7705 244.089 77.9814 243.53 76.9294C243.004 75.976 242.116 75.0226 240.933 74.2336C239.946 73.5761 238.138 72.6884 236.856 72.261C234.884 71.6364 233.898 71.5049 230.117 71.5378C226.501 71.5378 225.022 71.7021 222.227 72.3925C220.321 72.8857 216.606 74.0692 213.943 75.0884C211.248 76.1075 208.585 76.9294 208.026 76.9294C207.237 76.8965 205.988 76.2719 203.654 74.6938C201.846 73.4774 198.657 71.7022 196.586 70.7816C193.726 69.4666 191.655 68.8091 188.039 68.0201C185.409 67.4612 182.877 66.8037 182.384 66.5406C181.858 66.2776 181.497 66.0146 181.562 65.9489C181.595 65.8831 183.403 64.5352 185.573 62.9901C187.743 61.412 190.866 59.5052 192.477 58.6833C194.12 57.8614 196.915 56.8094 198.723 56.3163C201.616 55.5601 202.635 55.4615 207.434 55.4286C211.576 55.3958 213.483 55.5273 215.488 55.9875C216.935 56.3163 219.302 56.9738 220.748 57.434C222.195 57.8943 224.792 58.9463 226.501 59.7682C228.21 60.5901 230.577 61.8394 231.761 62.5627C232.944 63.2859 234.687 64.5352 235.64 65.2914C236.922 66.4091 237.612 66.7379 238.5 66.7379C239.585 66.7379 239.651 66.6722 239.453 65.8503C239.355 65.3242 238.73 64.1407 238.073 63.1544C237.415 62.1682 235.508 60.097 233.898 58.5518C232.254 57.0067 229.558 54.7711 227.882 53.5876C226.205 52.404 223.937 50.8918 222.786 50.2014C221.669 49.5439 219.795 48.6233 218.611 48.1631C217.428 47.7357 215.357 47.0782 214.009 46.7165C212.661 46.3549 210.13 45.8618 208.42 45.6645C206.645 45.4673 204.114 45.4015 202.503 45.533C200.958 45.6316 198.525 45.9604 197.079 46.2563C195.632 46.5193 193.035 47.1768 191.326 47.7357C189.617 48.2946 186.658 49.4781 184.751 50.3657C182.845 51.2534 179.886 52.9301 178.176 54.0807C176.336 55.33 172.654 58.4203 169.136 61.7079C165.914 64.7325 162.463 68.1844 161.477 69.368C160.523 70.5515 158.156 73.7405 156.217 76.4363C154.31 79.165 151.943 82.5512 150.957 83.9977C150.004 85.4442 148.294 88.4688 147.143 90.7373C145.993 93.0057 144.349 96.4905 143.494 98.4631C142.64 100.468 141.16 104.315 140.207 107.011C139.254 109.739 137.774 114.178 136.92 116.874C136.065 119.602 134.586 124.928 133.632 128.709C132.646 132.522 131.364 138.341 130.707 141.695C130.082 145.048 129.129 150.308 128.537 153.366C127.978 156.456 127.058 161.091 126.532 163.722C125.973 166.352 125.085 170.264 124.559 172.434C124 174.603 122.981 178.384 122.291 180.817C121.568 183.25 120.318 187.261 119.497 189.693C118.642 192.126 116.998 196.433 115.815 199.227C114.631 202.022 112.692 206.263 111.508 208.597C110.358 210.964 108.418 214.58 107.235 216.652C106.051 218.723 104.21 221.912 103.125 223.72C102.041 225.528 100.101 228.553 98.8518 230.459C97.5697 232.366 95.4329 235.391 94.0851 237.199C92.7043 239.007 90.2059 242.196 88.4636 244.267C86.7542 246.338 82.4477 251.27 78.8973 255.248C75.3798 259.193 71.1062 263.993 69.4296 265.932C67.7202 267.839 64.1698 272.08 61.507 275.335C58.8114 278.59 54.9651 283.488 52.9269 286.184C50.8888 288.913 48.0616 292.825 46.6809 294.896C45.3002 296.967 43.0648 300.518 41.7498 302.786C40.4349 305.055 38.5282 308.671 37.4762 310.841C36.4243 313.011 34.9778 316.331 34.2546 318.238C33.5314 320.145 32.3808 323.465 31.7233 325.635C31.0658 327.805 30.244 330.829 29.9152 332.374C29.5865 333.92 29.0605 336.714 28.7975 338.621C28.5017 340.528 28.1072 343.98 27.9428 346.347C27.7456 348.714 27.6141 352.166 27.6141 354.073C27.6141 355.979 27.8442 360.122 28.1072 363.278C28.3373 366.434 28.7975 370.576 29.0934 372.483C29.3892 374.39 29.981 377.776 30.4412 380.044C30.9014 382.313 31.5589 385.272 31.9205 386.62C32.315 387.968 34.156 393.819 36.0298 399.606C37.9365 405.392 39.4158 410.356 39.3829 410.619C39.3172 410.882 38.4296 409.403 37.4105 407.331C36.3914 405.26 35.0107 402.137 34.3203 400.427C33.6629 398.718 32.7753 396.252 32.315 395.003C31.8877 393.754 30.9672 390.696 30.244 388.263C29.5536 385.831 28.5674 382.28 28.1072 380.373C27.6141 378.466 26.7922 374.784 26.2662 372.154C25.7074 369.524 24.8527 364.494 24.3267 360.976C23.8007 357.459 23.209 352.133 22.9788 349.141C22.7487 345.689 22.6501 340.626 22.7816 335.169C22.8802 330.468 23.209 324.616 23.5048 322.183C23.7678 319.75 24.228 316.2 24.5239 314.293C24.7869 312.386 25.4773 308.638 26.0032 305.909C26.5621 303.214 27.5154 298.973 28.14 296.54C28.7646 294.107 29.981 290.03 30.8028 287.499C31.6247 284.968 33.0054 280.99 33.893 278.623C34.7477 276.288 36.2599 272.508 37.2461 270.239C38.2323 267.971 39.5144 265.012 40.139 263.664C40.7307 262.316 42.1772 259.292 43.3278 256.924C44.4784 254.59 46.4179 250.875 47.6014 248.706C48.7848 246.536 50.823 242.985 52.1051 240.815C53.3872 238.646 55.3596 235.457 56.4445 233.747C57.5293 232.038 59.5017 229.079 60.8167 227.172C62.1316 225.265 64.5643 221.945 66.208 219.775C67.8188 217.605 70.646 213.989 72.454 211.72C74.295 209.452 77.1879 206 78.8973 203.994C80.6396 202.022 82.9737 199.195 84.1243 197.748C85.2748 196.301 87.05 193.934 88.0691 192.488C89.0882 191.041 90.7648 188.543 91.751 186.899C92.7701 185.288 93.9535 183.283 94.4467 182.461C94.9069 181.639 96.3862 178.779 97.734 176.05C99.0819 173.354 100.857 169.573 101.679 167.667C102.468 165.76 103.881 162.209 104.802 159.776C105.69 157.344 107.366 152.544 108.484 149.092C109.602 145.673 112.429 136.106 114.763 127.887C117.13 119.668 119.792 110.561 120.713 107.668C121.6 104.775 122.981 100.567 123.77 98.2987C124.526 96.0303 125.907 92.3482 126.827 90.0797C127.715 87.8113 129.326 84.0635 130.411 81.6964C131.463 79.3622 133.336 75.6473 134.586 73.4774C135.802 71.3076 137.906 67.9214 139.254 65.916C140.569 63.9435 143.396 60.1627 145.533 57.5327C147.669 54.9026 151.647 50.5301 154.343 47.8343C157.071 45.1056 160.918 41.5879 162.89 39.977C164.895 38.399 168.281 35.9004 170.451 34.4539C172.621 33.0402 176.467 30.8375 178.998 29.5882C181.53 28.339 185.179 26.7938 187.151 26.1691C189.091 25.5116 192.477 24.624 194.712 24.1637C196.915 23.7363 199.972 23.2103 201.517 23.0788C203.062 22.9144 206.382 22.7501 208.914 22.7172ZM254.312 38.7935C254.378 38.7935 254.937 39.1222 255.529 39.5167C256.088 39.9112 262.136 45.8289 268.908 52.6342C276.667 60.4258 283.373 66.8365 286.989 69.894C290.145 72.5898 294.977 76.6007 297.673 78.8033C300.402 81.006 304.905 84.5566 307.7 86.6935C310.494 88.8305 314.866 92.0852 317.397 93.9262C319.929 95.7344 325.254 99.3836 329.232 101.981C333.21 104.611 340.902 109.411 346.326 112.665C351.751 115.887 357.668 119.569 359.476 120.819C361.284 122.068 363.717 123.81 364.9 124.698C366.084 125.618 370.061 129.399 373.776 133.114C377.458 136.829 381.633 141.234 382.981 142.845C384.361 144.489 385.578 146.001 385.709 146.232C385.874 146.527 385.742 146.56 385.216 146.33C384.789 146.166 381.797 144.719 378.543 143.076C375.288 141.432 367.957 138.046 362.27 135.514C356.583 132.983 348.134 129.202 343.532 127.131C338.93 125.06 333.374 122.495 331.204 121.443C329.035 120.391 325.484 118.583 323.315 117.4C321.145 116.249 317.364 114.112 314.932 112.665C312.499 111.186 307.7 108.129 304.248 105.794C300.829 103.493 297.048 100.896 295.865 100.041C294.681 99.1863 291.131 96.5563 287.975 94.2221C284.819 91.855 280.973 88.8633 279.428 87.5812C277.883 86.299 274.563 83.1101 272.031 80.5129C269.5 77.8828 266.114 74.135 264.536 72.1624C262.925 70.157 260.821 67.3625 259.868 65.916C258.882 64.4695 257.435 61.9709 256.581 60.3271C255.759 58.7162 254.674 56.1848 254.214 54.7382C253.458 52.4698 253.326 51.5493 253.326 47.8343C253.293 45.5001 253.49 42.4756 253.721 41.1934C253.984 39.8784 254.214 38.7935 254.312 38.7935ZM205.626 48.1302C210.097 48.2288 211.741 48.3932 213.845 48.9521C215.291 49.3466 217.954 50.3986 219.762 51.2534C221.57 52.141 224.101 53.5876 225.383 54.4424C226.665 55.33 228.243 56.5135 228.835 57.0395C229.46 57.5984 230.084 58.2231 230.216 58.4532C230.347 58.6505 229.065 58.1902 227.422 57.3683C225.745 56.5793 223.049 55.5273 221.406 55.067C219.795 54.6067 217.132 54.015 215.488 53.752C213.845 53.489 210.327 53.2588 207.599 53.2588C204.837 53.2588 201.517 53.4561 200.038 53.7191C198.591 53.9821 196.454 54.5081 195.271 54.9026C194.087 55.2971 191.885 56.2834 190.34 57.1053C188.795 57.8943 186.428 59.3737 185.08 60.3271C183.732 61.2805 181.365 63.1544 179.82 64.5023C177.289 66.705 176.829 66.968 174.889 67.3297C173.706 67.5927 171.273 68.2502 169.465 68.842C167.657 69.4337 165.619 70.157 164.961 70.4857C164.271 70.7816 163.712 70.8803 163.712 70.683C163.712 70.5186 165.224 68.9077 167.098 67.1324C168.939 65.3242 171.93 62.4969 173.738 60.8203C175.547 59.1107 178.209 56.9738 179.656 56.0204C181.102 55.0999 183.634 53.6533 185.244 52.8314C186.888 52.0424 189.551 50.8918 191.162 50.3329C192.805 49.7411 195.468 48.985 197.079 48.6562C199.512 48.1302 201.024 48.0316 205.626 48.1302ZM173.673 70.0584C174.034 70.0255 174.166 70.1899 174.067 70.5186C173.969 70.7816 172.226 73.4774 170.188 76.5349C168.15 79.5595 165.914 82.9786 165.257 84.1621C164.6 85.3456 163.482 87.6469 162.791 89.2578C162.068 90.9016 161.016 93.6303 160.457 95.3399C159.866 97.0494 158.945 100.173 158.419 102.244C157.86 104.315 157.071 108.161 156.644 110.791C156.217 113.422 155.691 117.104 155.526 119.01C155.329 120.917 155 124.599 154.836 127.229C154.672 129.859 154.507 134.955 154.507 138.572C154.507 142.188 154.737 147.81 155 151.064C155.263 154.319 155.921 160.993 156.447 165.858C157.006 170.757 157.597 176.74 157.795 179.173C157.959 181.606 158.123 184.466 158.123 185.518C158.123 186.669 157.992 187.326 157.795 187.228C157.63 187.129 157.039 186.209 156.513 185.189C156.019 184.137 154.803 181.376 153.85 179.009C152.896 176.675 150.825 170.823 149.215 166.023C147.637 161.223 145.73 155.009 145.007 152.215C144.251 149.421 143.363 145.508 143.001 143.503C142.64 141.53 142.114 138.046 141.851 135.777C141.588 133.509 141.358 129.169 141.358 126.079C141.358 123.021 141.555 118.879 141.818 116.874C142.081 114.901 142.541 112.074 142.837 110.627C143.166 109.181 143.757 106.781 144.185 105.301C144.612 103.789 145.5 101.192 146.157 99.548C146.815 97.8713 148.195 94.781 149.247 92.7098C150.267 90.6386 151.943 87.614 152.929 85.9703C153.948 84.3593 155.428 82.1238 156.25 81.0389C157.039 79.954 158.879 77.9814 160.293 76.6335C162.167 74.8911 163.712 73.8391 165.849 72.787C167.492 71.9652 169.761 71.0446 170.944 70.683C172.128 70.3542 173.344 70.0584 173.673 70.0584ZM231.925 73.872C233.207 73.9706 235.081 74.2336 236.133 74.4966C237.152 74.7596 238.566 75.3185 239.256 75.7459C239.914 76.2061 240.801 77.1267 241.196 77.8171C241.59 78.5074 241.919 79.4608 241.952 79.9869C241.952 80.5129 241.722 81.006 241.393 81.1704C241.064 81.3348 239.848 81.795 238.664 82.1895C237.218 82.6827 235.377 82.9786 232.911 83.0772C230.939 83.1758 228.046 83.0772 226.501 82.8799C224.956 82.6827 221.932 82.058 219.762 81.4991C217.592 80.9403 215.225 80.2499 214.502 79.9211C213.779 79.5923 212.957 79.0992 212.694 78.7705C212.431 78.4746 212.267 78.1787 212.365 78.1458C212.464 78.0801 214.831 77.291 217.625 76.3705C220.419 75.4171 223.674 74.4966 224.857 74.3322C226.041 74.135 227.586 73.9377 228.309 73.872C229.032 73.8062 230.676 73.8062 231.925 73.872ZM321.013 150.407C324.367 150.473 327.029 150.736 329.396 151.229C331.303 151.623 333.506 152.182 334.327 152.511C335.149 152.807 336.135 153.267 336.497 153.53C337.122 153.957 336.464 154.056 330.087 154.253C326.175 154.385 321.441 154.714 319.534 155.009C317.627 155.272 314.669 155.864 312.959 156.292C311.25 156.752 307.995 157.771 305.727 158.56C303.459 159.382 300.106 160.631 298.265 161.387C296.391 162.111 294.813 162.735 294.714 162.735C294.616 162.735 294.714 162.407 294.944 162.012C295.142 161.585 296.227 160.302 297.311 159.152C298.429 158.001 300.204 156.423 301.289 155.667C302.374 154.878 304.379 153.727 305.727 153.103C307.075 152.445 309.146 151.689 310.329 151.393C311.513 151.097 313.288 150.736 314.274 150.571C315.261 150.407 318.318 150.341 321.013 150.407ZM222.227 153.07C225.318 153.168 228.046 153.431 229.953 153.859C231.596 154.22 233.865 154.878 235.048 155.338C236.232 155.766 238.106 156.752 239.256 157.475C240.374 158.198 241.36 158.889 241.426 159.053C241.492 159.185 239.092 159.283 236.1 159.316C232.254 159.316 229.657 159.513 227.487 159.941C225.778 160.237 220.222 161.683 215.16 163.13C210.097 164.543 204.771 165.957 203.325 166.286C201.517 166.68 199.216 166.845 195.928 166.845C191.523 166.845 191.03 166.779 189.386 166.023C188.433 165.563 187.447 165.004 187.25 164.774C186.987 164.445 187.151 164.083 188.039 163.196C188.663 162.538 190.307 161.354 191.655 160.5C193.003 159.645 195.402 158.396 197.013 157.738C198.591 157.048 201.32 156.061 203.095 155.535C204.837 155.009 208.125 154.286 210.393 153.892C212.661 153.53 215.16 153.168 215.981 153.07C216.803 153.004 219.598 153.004 222.227 153.07ZM352.375 159.875C352.474 159.941 354.709 161.256 357.339 162.735C359.969 164.248 363.158 166.154 364.407 166.943C365.689 167.765 367.892 169.31 369.338 170.428C370.784 171.513 373.283 173.683 374.894 175.228C376.472 176.773 379.463 179.864 381.469 182.132C383.507 184.4 386.038 187.359 387.123 188.707C388.208 190.055 390.114 192.587 391.331 194.296C392.58 196.006 394.75 199.392 396.163 201.792C397.577 204.159 399.648 207.907 400.733 210.076C401.817 212.246 403.593 216.06 404.645 218.558C405.697 221.024 407.538 225.857 408.721 229.309C409.872 232.761 411.384 237.626 412.008 240.158C412.666 242.689 413.488 246.075 413.849 247.719C414.211 249.363 414.868 252.815 415.329 255.445C415.756 258.075 416.282 261.527 416.479 263.171C416.709 264.815 416.939 266.721 417.038 267.445C417.137 268.168 417.4 271.784 417.663 275.499C417.926 279.214 418.156 284.54 418.156 287.335C418.156 290.129 417.991 294.863 417.827 297.855C417.663 300.847 417.334 304.923 417.17 306.896C416.972 308.868 416.512 312.879 416.15 315.772C415.789 318.665 415.131 323.268 414.671 325.964C414.244 328.692 413.455 333.131 412.929 335.826C412.37 338.555 411.647 342.171 411.252 343.881C410.891 345.591 410.036 349.075 409.411 351.607C408.787 354.138 407.537 358.741 406.65 361.798C405.762 364.856 404.217 369.82 403.198 372.812C402.179 375.803 400.437 380.472 399.352 383.168C398.267 385.896 396.196 390.466 394.782 393.359C393.369 396.252 391.232 400.164 390.049 402.071C388.832 403.978 386.597 407.233 385.019 409.304C383.112 411.835 379.628 415.649 374.434 420.81C369.305 425.972 364.078 430.739 350.994 441.687L348.332 441.095C346.885 440.766 344.485 440.141 343.039 439.714C341.592 439.287 338.7 438.235 336.629 437.413C334.557 436.591 331.434 435.144 329.725 434.224C328.016 433.336 325.419 431.791 323.972 430.838C322.526 429.884 320.027 427.945 318.384 426.564C316.773 425.15 314.274 422.75 312.828 421.172C311.414 419.627 309.54 417.391 308.653 416.208C307.765 415.024 306.154 412.296 305.07 410.126C303.886 407.759 302.67 404.603 301.979 402.236C301.355 400.066 300.632 396.745 300.336 394.839C300.073 392.932 299.744 389.546 299.613 387.277C299.514 384.976 299.58 380.702 299.777 377.579C300.007 374.521 300.533 369.327 300.993 366.072C301.453 362.817 302.473 356.966 303.294 353.086C304.116 349.207 305.3 344.013 305.924 341.58C306.549 339.147 307.864 334.413 308.85 331.059C309.836 327.706 311.447 322.545 312.433 319.553C313.42 316.561 315.359 311.4 316.74 308.046C318.088 304.693 320.027 300.649 320.981 299.006C321.967 297.362 324.432 293.68 326.47 290.787C328.509 287.894 331.862 283.094 333.933 280.102C335.971 277.11 338.272 273.658 339.028 272.376C339.752 271.127 341.034 268.76 341.823 267.116C342.644 265.472 343.795 262.842 344.42 261.198C345.044 259.555 345.833 257.122 346.162 255.774C346.524 254.426 347.477 250.185 348.266 246.404C349.088 242.624 350.731 235.95 351.915 231.61C353.098 227.271 354.38 222.306 354.742 220.597C355.137 218.887 355.498 215.928 355.597 214.022C355.695 212.049 355.63 209.156 355.4 207.282C355.169 205.474 354.841 203.337 354.643 202.515C354.446 201.693 353.493 198.241 352.54 194.789C351.553 191.337 350.666 187.852 350.534 186.998C350.304 185.584 350.337 185.452 351.093 185.091C351.553 184.894 352.737 184.105 353.723 183.348C354.709 182.625 355.926 181.639 356.452 181.179C357.043 180.609 357.339 179.995 357.339 179.338C357.339 178.384 357.306 178.351 356.123 178.549C355.432 178.647 353.854 179.305 352.572 180.028C351.323 180.718 350.14 181.376 349.942 181.442C349.712 181.54 349.712 180.784 349.844 179.305C349.975 178.055 350.337 175.721 350.6 174.077C350.896 172.434 351.323 169.278 351.586 167.009C351.849 164.741 352.079 162.176 352.112 161.322C352.145 160.434 352.244 159.809 352.375 159.875ZM322.164 177.661C325.32 177.76 328.772 178.023 330.383 178.351C331.928 178.647 334.229 179.173 335.478 179.568C336.76 179.929 338.732 180.718 339.916 181.343C341.099 181.935 342.513 182.888 344.025 184.433L342.217 185.222C341.231 185.65 338.93 186.472 337.122 186.998C335.314 187.557 332.717 188.247 331.369 188.51C330.021 188.773 327.588 189.233 325.945 189.496C324.334 189.759 321.276 190.154 319.205 190.384C317.134 190.614 311.875 190.811 307.535 190.811C302.308 190.844 299.054 190.713 297.936 190.45C296.983 190.219 296.194 189.924 296.194 189.792C296.194 189.628 296.851 188.74 297.607 187.754C298.363 186.8 299.744 185.387 300.632 184.631C301.552 183.874 302.933 182.79 303.755 182.231C304.577 181.672 305.826 180.948 306.549 180.587C307.272 180.225 308.817 179.601 310.001 179.173C311.184 178.779 313.189 178.253 314.439 177.99C316.017 177.694 318.449 177.595 322.164 177.661ZM189.452 187.491C189.847 187.589 190.997 187.787 191.983 187.885C192.97 188.017 194.613 188.247 195.6 188.444C196.586 188.641 199.051 189.529 201.024 190.417C203.029 191.337 206.053 192.422 207.763 192.85C209.472 193.31 212.595 193.803 214.666 194C216.737 194.165 219.992 194.23 221.899 194.132C223.805 194 228.013 193.639 231.268 193.277C234.522 192.915 237.349 192.685 237.514 192.751C237.711 192.85 236.725 193.441 235.377 194.066C234.029 194.691 231.662 195.512 230.117 195.907C228.572 196.269 226.074 196.729 224.529 196.926C222.984 197.091 220.189 197.255 218.283 197.255C216.376 197.255 213.582 197.091 212.037 196.926C210.491 196.729 208.059 196.334 206.612 196.071C205.166 195.775 202.799 195.184 201.353 194.723C199.906 194.263 197.473 193.277 195.928 192.521C194.383 191.765 192.214 190.45 191.096 189.595C189.945 188.74 188.959 187.885 188.893 187.688C188.795 187.425 188.992 187.359 189.452 187.491ZM177.716 191.074C177.782 191.14 177.979 194.888 178.176 199.392C178.396 204.871 178.713 208.761 179.13 211.063C179.491 212.97 180.083 216.224 180.478 218.295C180.839 220.367 181.365 224.805 181.628 228.158C181.924 231.511 182.351 236.903 182.647 240.158C182.91 243.413 183.436 247.719 183.765 249.692C184.127 251.664 184.784 254.59 185.244 256.201C185.705 257.779 186.592 260.146 187.25 261.461C187.94 262.743 189.321 265.012 190.406 266.458C191.457 267.905 195.271 272.343 198.854 276.321C202.963 280.858 208.256 286.217 213.056 290.688C217.296 294.633 222.753 299.433 225.186 301.373C227.619 303.345 231.629 306.337 234.062 308.079C236.495 309.822 239.914 312.123 241.623 313.208C243.332 314.293 246.39 316.068 248.362 317.153C250.367 318.238 253.162 319.652 254.608 320.276C256.055 320.901 258.356 321.854 259.704 322.314C261.051 322.808 263.517 323.498 265.128 323.86C266.772 324.188 268.119 324.517 268.152 324.583C268.185 324.616 267.856 328.725 267.396 333.69C266.969 338.654 266.443 345.919 266.246 349.799C266.048 353.678 265.95 359.366 266.081 362.456C266.18 365.513 266.509 369.886 266.804 372.154C267.1 374.423 267.593 377.579 267.955 379.223C268.317 380.866 269.106 383.661 269.697 385.469C270.322 387.277 271.275 389.71 271.867 390.893C272.459 392.077 273.576 394.017 274.365 395.266C275.154 396.482 276.798 398.488 278.047 399.704C279.592 401.282 280.973 402.301 282.715 403.156C284.063 403.814 286.069 404.603 287.153 404.866C288.238 405.129 290.309 405.523 291.756 405.688C293.202 405.885 295.865 406.016 300.96 406.016L301.421 407.397C301.651 408.186 302.44 409.994 303.163 411.441C303.919 412.887 305.563 415.616 306.845 417.523C308.39 419.791 310.625 422.421 313.452 425.249C315.819 427.616 318.91 430.377 320.356 431.396C321.802 432.416 324.235 433.928 325.78 434.783C327.325 435.637 330.119 436.985 332.026 437.807C333.933 438.629 338.009 440.141 341.067 441.161C344.157 442.213 347.017 443.265 348.299 443.922L346.819 445.237C345.998 445.928 344.222 447.308 342.875 448.262C341.527 449.215 339.587 450.399 338.601 450.859C337.615 451.319 335.905 451.911 334.82 452.207C333.736 452.47 331.139 452.799 329.068 452.897C326.996 453.029 321.704 452.93 317.332 452.733C312.926 452.536 307.601 452.141 305.497 451.878C303.36 451.582 300.139 451.056 298.33 450.695C296.522 450.3 293.86 449.643 292.413 449.182C290.967 448.722 288.764 447.867 287.482 447.275C286.233 446.651 284.754 445.829 283.274 444.645L284.655 442.837C285.411 441.851 286.529 439.977 287.186 438.728C287.811 437.478 288.534 435.605 288.797 434.618C289.06 433.632 289.29 431.627 289.29 430.18C289.29 428.734 289.06 426.728 288.797 425.742C288.534 424.756 287.909 423.145 287.416 422.158C286.89 421.205 285.773 419.594 284.852 418.608C283.833 417.49 282.518 416.471 281.4 415.945C279.888 415.254 279.296 415.156 277.949 415.32C276.962 415.452 275.779 415.912 274.99 416.471C274.267 416.964 273.182 418.115 272.59 419.002C271.998 419.923 271.275 421.402 270.979 422.29C270.716 423.21 270.388 425.413 270.322 427.221C270.223 429.227 270.289 431.232 270.552 432.317C270.782 433.303 271.374 435.013 271.933 436.098C272.459 437.183 274.07 439.484 275.483 441.193C276.93 442.903 278.113 444.415 278.113 444.58C278.113 444.711 277.62 445.007 277.061 445.27C276.469 445.5 274.661 446.026 273.018 446.454C270.881 447.012 268.744 447.243 265.292 447.374C261.676 447.506 259.704 447.374 257.074 446.947C255.167 446.651 251.781 445.796 249.513 445.073C247.244 444.35 243.628 442.969 241.459 442.015C239.289 441.062 235.903 439.517 233.898 438.563C231.925 437.61 229.164 436.328 227.816 435.703C226.468 435.046 223.805 433.895 221.899 433.106C219.992 432.35 216.672 431.199 214.502 430.542C212.332 429.917 209.012 429.194 207.105 428.898C205.199 428.602 202.437 428.372 200.958 428.372C199.446 428.372 197.079 428.536 195.698 428.733C194.285 428.931 192.016 429.424 190.669 429.851C189.321 430.279 187.25 431.068 186.066 431.594C184.883 432.153 182.68 433.303 181.135 434.191C179.59 435.079 176.631 436.854 174.56 438.136C172.489 439.418 169.3 441.193 167.492 442.114C165.684 443.035 162.66 444.284 160.753 444.941C158.847 445.566 156.513 446.191 155.526 446.355C153.883 446.618 153.751 446.585 153.258 445.796C152.995 445.336 152.107 443.922 151.286 442.673C150.464 441.424 149.379 439.648 147.9 437.084L148.82 436.163C149.313 435.637 150.858 434.454 152.206 433.5C153.554 432.547 156.151 430.87 157.959 429.786C159.767 428.701 165.027 425.775 169.629 423.276C174.232 420.778 180.083 417.523 182.614 416.011C185.146 414.531 188.86 412.164 190.833 410.75C192.838 409.337 195.928 407.003 197.736 405.556C199.512 404.077 202.273 401.71 203.818 400.263C205.363 398.817 208.322 395.858 210.36 393.688C212.431 391.518 215.357 388.198 216.869 386.291C218.381 384.384 221.011 380.768 222.688 378.236C224.364 375.705 227.126 371.201 228.769 368.209C230.413 365.217 232.648 360.713 233.733 358.182C234.818 355.651 236.297 351.87 237.054 349.799C237.777 347.727 238.993 344.111 239.716 341.744C240.407 339.377 241.393 335.761 241.853 333.69C242.511 330.698 242.708 328.955 242.741 325.306C242.774 322.183 242.642 320.473 242.379 319.98C242.149 319.553 241.82 319.224 241.623 319.224C241.459 319.224 241.031 319.487 240.703 319.816C240.242 320.243 240.045 321.164 239.848 324.156C239.716 326.227 239.256 330.172 238.796 332.868C238.336 335.596 237.448 339.574 236.823 341.744C236.133 344.111 234.818 347.432 233.602 349.963C232.451 352.33 230.019 356.472 228.21 359.168C226.271 362.094 222.786 366.631 219.598 370.346C216.672 373.798 212.99 377.908 211.445 379.518C209.867 381.162 205.429 384.91 201.517 387.935C197.638 390.926 192.97 394.444 191.162 395.726C189.354 397.008 186.625 398.784 185.08 399.638C183.535 400.526 177.913 403.222 172.588 405.655C167.262 408.088 161.115 410.915 158.945 411.934C156.776 412.953 152.403 415.222 149.247 416.964C145.171 419.2 143.429 420.021 143.264 419.726C143.133 419.495 143.001 417.621 143.001 415.55C143.001 413.479 143.231 410.356 143.462 408.646C143.725 406.937 144.349 403.879 144.809 401.907C145.27 399.934 146.42 395.989 147.341 393.195C148.261 390.4 150.036 385.502 151.286 382.346C152.568 379.19 154.935 373.568 156.545 369.853C158.189 366.138 160.129 361.864 160.819 360.319C161.542 358.774 163.219 354.993 164.534 351.936C165.849 348.878 167.394 345.032 167.986 343.388C168.544 341.744 169.432 338.72 169.925 336.648C170.451 334.577 171.109 331.684 171.437 330.238C171.766 328.791 172.752 325.536 173.64 323.005C174.56 320.473 175.711 316.923 176.237 315.115C176.763 313.307 177.585 310.052 178.045 307.882C178.505 305.712 179.13 302.03 179.491 299.663C179.82 297.329 180.28 293.022 180.51 290.129C180.773 286.776 180.839 281.877 180.708 276.65C180.609 272.146 180.28 266.294 179.984 263.664C179.689 261.034 179.097 256.464 178.637 253.473C178.209 250.481 177.289 245.615 176.664 242.624C176.04 239.632 175.021 235.292 174.396 232.925C173.771 230.591 172.752 226.876 172.095 224.706C171.437 222.536 170.385 219.282 169.728 217.474C169.103 215.665 167.92 212.378 167.131 210.175C166.342 207.94 165.684 205.803 165.684 205.408C165.684 204.882 166.671 203.731 169.005 201.529C171.24 199.458 173.245 197.156 174.988 194.691C176.434 192.652 177.683 191.041 177.716 191.074ZM163.942 209.09C164.041 209.09 164.501 209.945 164.961 210.997C165.388 212.016 166.769 215.895 167.986 219.61C169.202 223.325 171.043 229.605 172.029 233.583C173.048 237.561 174.232 242.821 174.692 245.254C175.152 247.686 175.744 251.007 176.04 252.651C176.303 254.294 176.829 257.911 177.157 260.705C177.519 263.5 177.979 268.398 178.209 271.554C178.439 274.973 178.505 280.496 178.407 285.198C178.308 289.537 177.979 294.929 177.683 297.197C177.387 299.466 176.861 302.786 176.533 304.594C176.171 306.403 175.514 309.197 175.021 310.841C174.56 312.485 173.969 314.161 173.738 314.622C173.377 315.345 173.311 314.72 173.114 310.183C173.015 307.29 172.917 302.622 172.917 299.827C172.917 297.033 172.785 291.707 172.588 287.992C172.424 284.277 172.128 279.181 171.93 276.65C171.733 274.119 171.273 269.023 170.911 265.308C170.55 261.593 169.958 256.135 169.596 253.144C169.235 250.152 168.512 244.465 167.953 240.487C167.427 236.509 166.375 229.638 165.684 225.199C164.961 220.761 164.238 215.895 164.041 214.35C163.876 212.805 163.712 210.997 163.712 210.339C163.712 209.649 163.811 209.09 163.942 209.09ZM160.983 209.748C161.312 209.748 161.477 210.372 161.608 211.983C161.707 213.2 162.068 216.487 162.43 219.282C162.791 222.076 163.811 229.177 164.698 235.062C165.586 240.947 166.703 248.771 167.164 252.486C167.591 256.201 168.347 262.941 168.807 267.445C169.268 271.982 169.958 280.036 170.352 285.362C170.846 292.365 171.043 298.184 171.043 306.238C171.076 315.213 170.944 318.205 170.484 321.361C170.155 323.531 169.629 326.194 169.268 327.279C168.906 328.364 168.084 330.205 167.427 331.388C166.802 332.572 165.158 335.235 163.811 337.306C162.43 339.377 159.603 343.158 157.499 345.689C155.428 348.221 150.957 353.481 147.604 357.36C144.218 361.239 139.78 366.565 137.676 369.195C135.605 371.825 132.712 375.606 131.298 377.579C129.852 379.551 127.518 383.036 126.071 385.305C124.658 387.573 122.258 391.781 120.779 394.674C119.266 397.567 117.623 401.085 117.064 402.499C116.505 403.879 115.88 405.72 115.683 406.608C115.519 407.463 115.124 410.224 114.894 412.756C114.631 415.287 114.401 419.43 114.401 421.961C114.401 424.493 114.565 428.273 114.763 430.344C114.927 432.416 115.322 435.44 115.585 437.084C115.848 438.728 116.374 441.292 116.735 442.837C117.13 444.382 117.787 446.815 118.247 448.262C118.675 449.708 119.924 452.667 120.976 454.837C122.028 457.007 123.77 460.097 124.822 461.741C125.907 463.385 127.682 465.817 128.767 467.165C129.852 468.513 132.054 470.88 133.665 472.425C135.276 473.971 137.873 476.108 139.385 477.192C140.93 478.277 143.527 479.855 145.138 480.71C146.782 481.565 149.28 482.683 150.727 483.209C152.173 483.735 154.836 484.524 159.931 485.707L158.616 486.266C157.893 486.595 156.118 487.022 154.672 487.22C153.159 487.45 150.99 487.515 149.576 487.384C148.228 487.252 146.092 486.957 144.809 486.694C143.56 486.431 141.029 485.707 139.221 485.083C137.413 484.491 134.454 483.275 132.646 482.453C130.838 481.631 127.649 479.921 125.578 478.672C123.507 477.455 120.384 475.45 118.675 474.201C116.965 472.984 114.434 471.078 113.086 469.993C111.738 468.875 109.01 466.442 107.037 464.535C105.065 462.628 102.501 459.9 101.35 458.453C100.2 457.007 98.4244 454.508 97.4053 452.864C96.3862 451.221 94.5453 447.9 93.3289 445.467C92.1126 443.035 90.3703 439.188 89.4827 436.92C88.5951 434.651 87.3788 431.331 86.8528 429.523C86.2939 427.714 85.3735 424.46 84.8475 422.29C84.2886 420.12 83.5654 416.701 83.2038 414.728C82.8422 412.756 82.3162 408.975 81.9875 406.345C81.5272 402.63 81.3957 399.08 81.3629 390.4C81.3629 383.431 81.5272 377.677 81.7902 375.113C82.0203 372.845 82.5134 368.867 82.8751 366.237C83.2367 363.607 83.7627 360.155 84.0256 358.511C84.2886 356.867 84.979 353.349 85.5378 350.621C86.0638 347.925 87.1815 343.026 87.9705 339.772C88.7924 336.517 89.9758 332.079 90.6004 329.909C91.225 327.739 92.3099 324.188 93.0331 322.019C93.7234 319.849 95.0384 316.002 95.926 313.471C96.8136 310.939 98.2929 307.027 99.2134 304.759C100.101 302.49 101.482 299.17 102.238 297.362C103.027 295.554 105.164 290.885 106.972 287.006C108.813 283.127 111.837 277.143 113.711 273.691C115.585 270.239 118.905 264.486 121.075 260.87C123.244 257.253 126.367 252.289 127.978 249.856C129.622 247.423 132.284 243.577 133.928 241.308C135.539 239.04 138.202 235.489 139.845 233.418C141.456 231.347 144.415 227.665 146.42 225.232C148.426 222.799 152.436 218.328 155.296 215.271C158.189 212.246 160.753 209.748 160.983 209.748ZM196.027 240.322C196.29 240.585 197.835 242.459 199.446 244.432C201.057 246.404 203.654 249.626 205.232 251.599C206.81 253.538 208.289 255.708 208.519 256.431C208.716 257.155 208.782 257.845 208.651 257.977C208.519 258.108 207.697 258.042 206.842 257.812C205.988 257.549 204.87 256.99 204.311 256.53C203.785 256.07 202.667 254.853 201.846 253.834C201.024 252.815 199.676 250.678 198.821 249.034C197.999 247.391 196.915 244.925 196.454 243.544C195.994 242.13 195.6 240.717 195.6 240.421C195.6 239.895 195.632 239.895 196.027 240.322ZM341.099 242.952C341.132 242.952 340.935 243.445 340.672 244.037C340.376 244.596 338.765 247.456 337.023 250.349C335.314 253.242 333.308 256.234 332.552 257.023C331.796 257.779 330.777 258.535 330.218 258.7C329.692 258.831 329.133 258.897 329.002 258.864C328.837 258.798 328.739 258.338 328.739 257.845C328.739 257.319 329.133 256.07 329.659 255.018C330.152 253.966 331.369 252.19 332.355 251.073C333.341 249.955 335.708 247.654 337.582 246.01C339.456 244.333 341.034 242.952 341.099 242.952ZM316.838 301.044C316.871 301.175 315.754 304.331 314.34 308.046C312.894 311.761 311.283 316.035 310.724 317.58C310.165 319.126 309.277 321.788 308.719 323.498C308.16 325.208 307.272 328.166 306.746 330.073C306.187 331.98 305.004 336.55 304.116 340.265C303.196 343.98 301.815 350.325 300.993 354.401C300.139 358.478 299.054 364.823 298.495 368.538C297.969 372.253 297.377 377.184 297.18 379.551C297.016 381.918 296.851 385.6 296.851 387.77C296.851 389.94 297.016 392.965 297.18 394.51C297.377 396.055 297.903 398.554 298.396 400.099C298.856 401.644 299.284 403.09 299.35 403.321C299.448 403.616 298.725 403.715 296.457 403.715C294.78 403.715 292.216 403.518 290.769 403.255C289.323 402.992 287.416 402.531 286.496 402.236C285.608 401.907 284.326 401.414 283.702 401.085C283.077 400.756 281.762 399.901 280.842 399.145C279.888 398.422 278.343 396.712 277.423 395.43C276.502 394.115 274.924 391.387 273.971 389.414C272.952 387.277 271.768 384.121 271.078 381.688C270.486 379.42 269.73 376.034 269.434 374.127C269.138 372.22 268.744 368.965 268.58 366.894C268.415 364.823 268.251 360.45 268.251 357.196C268.251 353.941 268.415 349.075 268.58 346.347C268.777 343.651 269.204 338.391 269.566 334.676C269.927 330.961 270.289 327.312 270.388 326.555C270.552 325.175 270.585 325.142 271.801 325.142C272.459 325.142 274.398 324.912 276.075 324.649C277.719 324.386 280.48 323.728 282.157 323.202C283.8 322.643 287.022 321.295 289.29 320.145C291.558 318.994 294.944 317.054 296.851 315.772C298.758 314.523 303.196 311.334 306.713 308.671C310.231 306.041 313.946 303.181 314.932 302.326C315.918 301.471 316.773 300.912 316.838 301.044ZM228.013 364.264C228.046 364.264 227.849 364.889 227.586 365.678C227.323 366.434 226.435 368.308 225.613 369.853C224.792 371.398 223.378 373.765 222.458 375.113C221.537 376.461 219.992 378.697 218.973 380.044C217.987 381.392 215.883 383.99 214.371 385.798C212.826 387.606 209.275 391.387 206.448 394.214C203.654 397.041 199.742 400.756 197.736 402.466C195.764 404.142 192.641 406.608 190.833 407.89C189.025 409.172 185.836 411.244 183.765 412.493C181.694 413.742 176.598 416.668 172.424 419.002C168.281 421.304 163.317 424.098 161.411 425.183C159.504 426.268 155.888 428.536 153.357 430.18C150.825 431.857 148.261 433.435 147.702 433.731C147.111 434.059 146.552 434.257 146.486 434.224C146.387 434.158 145.96 433.007 145.5 431.659C145.04 430.312 144.448 428.24 144.185 427.057C143.889 425.873 143.659 424.558 143.659 424.098C143.659 423.506 144.053 422.98 145.204 422.093C146.092 421.468 148.195 420.054 149.905 419.002C151.614 417.95 154.967 416.142 157.302 415.024C159.668 413.907 164.534 411.704 168.15 410.126C171.766 408.548 176.861 406.181 179.491 404.866C182.121 403.551 185.803 401.545 187.71 400.427C189.617 399.277 192.509 397.469 194.12 396.384C195.764 395.299 198.558 393.293 200.366 391.913C202.174 390.565 205.725 387.737 208.256 385.633C210.787 383.529 214.305 380.242 216.047 378.368C217.789 376.494 220.354 373.634 221.734 371.99C223.148 370.346 225.087 367.946 226.107 366.664C227.126 365.349 227.98 364.264 228.013 364.264ZM278.738 417.852C279.691 417.884 280.71 418.148 281.499 418.608C282.255 419.035 283.307 420.153 284.063 421.304C284.786 422.388 285.674 424.098 286.069 425.084C286.463 426.136 286.792 428.076 286.89 429.687C287.022 431.659 286.923 433.073 286.529 434.553C286.233 435.67 285.641 437.281 285.214 438.169C284.786 439.024 283.8 440.437 283.011 441.325C281.762 442.706 281.433 442.903 280.677 442.706C280.151 442.607 278.869 441.654 277.751 440.635C276.305 439.254 275.45 438.07 274.661 436.426C274.07 435.177 273.445 433.468 273.248 432.646C273.05 431.824 272.787 430.279 272.656 429.194C272.557 428.076 272.623 426.235 272.82 424.92C273.05 423.671 273.609 421.895 274.102 420.975C274.596 420.087 275.483 419.002 276.108 418.608C276.897 418.082 277.719 417.852 278.738 417.852ZM201.846 430.838C204.541 430.936 207.533 431.232 209.407 431.627C211.116 432.021 213.943 432.777 215.653 433.336C217.362 433.895 220.321 434.98 222.227 435.769C224.134 436.525 227.915 438.235 230.61 439.55C233.339 440.832 237.481 442.771 239.815 443.824C242.182 444.843 245.93 446.322 248.198 447.078C250.466 447.834 253.721 448.755 255.43 449.117C257.271 449.511 260.427 449.873 263.155 449.971C266.739 450.103 268.415 450.037 270.716 449.577C272.36 449.281 275.187 448.459 277.061 447.736C278.902 447.045 280.677 446.454 281.006 446.454C281.302 446.454 282.091 446.782 282.715 447.144C283.34 447.538 284.918 448.393 286.167 449.018C287.449 449.643 289.718 450.596 291.263 451.122C292.808 451.648 295.602 452.404 297.509 452.831C299.415 453.292 302.012 453.785 303.262 453.982C304.544 454.179 307.108 454.475 309.014 454.673C310.921 454.87 316.608 455.001 321.671 455.001C329.166 454.968 330.81 455.034 330.514 455.396C330.284 455.626 328.377 456.744 326.24 457.861C324.071 458.979 319.37 461.083 315.754 462.497C312.138 463.944 305.859 466.278 301.782 467.658C297.706 469.039 292.183 470.815 289.455 471.604C286.759 472.393 282.748 473.478 280.579 474.036C278.409 474.562 274.859 475.384 272.689 475.845C270.519 476.305 267.035 476.962 264.963 477.324C262.892 477.686 258.98 478.277 256.252 478.639C253.556 479.001 249.48 479.494 247.212 479.724C244.582 479.987 238.664 480.151 230.775 480.151C222.458 480.151 217.329 480.02 214.995 479.724C213.088 479.461 209.702 478.968 207.434 478.606C205.166 478.245 201.616 477.521 199.544 477.028C197.473 476.502 194.449 475.647 192.805 475.121C191.194 474.562 188.302 473.477 186.395 472.656C184.488 471.834 181.924 470.617 180.642 469.927C179.393 469.237 177.223 467.954 175.875 467.067C174.527 466.146 172.161 464.371 170.615 463.089C169.103 461.807 165.98 459.045 163.745 456.974C161.476 454.903 158.847 452.24 157.893 451.056C156.94 449.873 156.184 448.886 156.25 448.854C156.282 448.788 157.86 448.229 159.767 447.571C161.674 446.947 164.764 445.73 166.671 444.908C168.577 444.087 171.24 442.837 172.588 442.081C173.936 441.358 177.124 439.484 179.656 437.972C182.187 436.459 185.211 434.717 186.395 434.125C187.578 433.533 189.485 432.711 190.669 432.317C191.852 431.922 193.857 431.396 195.106 431.133C196.619 430.838 198.92 430.739 201.846 430.838Z" fill="#F6FBFD"/>
<path d="M254.674 244.925C255.397 244.103 256.778 243.051 257.764 242.525C259.013 241.9 260.032 241.637 261.183 241.637C262.169 241.637 264.24 242.098 270.059 244.037L272.689 243.281C274.201 242.854 276.206 242.525 277.456 242.525C279.231 242.525 279.921 242.689 281.565 243.544C282.65 244.136 284.556 245.517 285.838 246.667C287.088 247.818 288.501 249.33 288.929 250.053C289.389 250.744 290.145 251.829 290.671 252.388C291.164 252.979 291.854 253.999 292.742 255.84L294.714 255.675C295.799 255.544 297.574 255.379 298.659 255.248C300.303 255.051 300.895 255.116 302.111 255.708C302.933 256.07 303.755 256.727 303.952 257.155C304.248 257.746 304.248 258.108 303.886 258.798C303.623 259.324 302.867 259.982 302.177 260.344C301.519 260.672 300.5 261.067 299.974 261.198C299.448 261.33 297.87 261.56 294.057 261.856L293.827 263.828C293.728 264.913 293.301 266.689 292.939 267.774C292.545 268.858 291.854 270.338 291.361 271.061C290.901 271.784 289.981 273.034 289.323 273.823C288.666 274.612 286.956 276.157 285.51 277.242C284.063 278.327 281.992 279.642 280.907 280.135C279.823 280.661 277.686 281.384 276.141 281.779C273.741 282.37 272.722 282.469 269.073 282.305C266.016 282.206 264.273 281.976 262.991 281.516C262.005 281.154 260.526 280.529 259.704 280.102C258.882 279.675 257.435 278.59 256.449 277.669C255.463 276.749 253.951 274.875 253.096 273.527C252.208 272.179 250.861 269.483 250.105 267.543C249.085 264.979 248.527 263.96 248.033 263.828C247.672 263.763 246.62 263.664 245.732 263.664C244.812 263.664 243.267 263.434 242.281 263.138C241.13 262.776 240.078 262.185 239.388 261.494C238.599 260.672 238.336 260.081 238.336 259.226C238.336 258.459 238.577 257.845 239.059 257.385C239.749 256.727 240.012 256.694 245.404 257.155L246.719 255.741C247.442 254.952 249.25 252.519 250.729 250.349C252.208 248.18 253.984 245.747 254.674 244.925Z" fill="#ED0C7E"/>
<path fill-rule="evenodd" clip-rule="evenodd" d="M262.465 244.333C264.306 244.432 265.555 244.695 266.541 245.188C267.298 245.582 267.922 245.977 267.922 246.075C267.922 246.174 267.626 247.16 267.232 248.278C266.739 249.79 266.607 250.744 266.772 251.829C266.87 252.651 267.035 253.637 267.133 254.031C267.232 254.59 267.1 254.788 266.706 254.788C266.377 254.788 265.325 254.426 264.405 253.966C263.451 253.505 262.071 252.519 261.347 251.73C260.591 250.974 259.802 249.692 259.506 248.87C259.243 248.048 259.046 247.062 259.079 246.667C259.112 246.273 259.276 245.549 259.441 245.056C259.769 244.202 259.802 244.202 262.465 244.333V244.333ZM276.469 244.76C277.456 244.859 278.475 245.122 278.705 245.352C278.935 245.549 279.297 246.273 279.494 246.897C279.691 247.522 279.855 248.64 279.855 249.363C279.888 250.119 279.592 251.171 279.231 251.829C278.869 252.453 277.982 253.308 277.258 253.703C276.568 254.13 275.516 254.459 274.99 254.459C274.464 254.459 273.839 254.327 273.642 254.196C273.412 254.031 273.379 252.519 273.478 249.593C273.642 246.24 273.774 245.155 274.168 244.892C274.431 244.695 275.45 244.629 276.469 244.76V244.76ZM256.055 247.226C256.153 247.193 256.416 247.391 256.614 247.621C256.811 247.851 257.37 249.067 257.83 250.349C258.323 251.631 259.145 253.078 259.704 253.637C260.263 254.163 260.69 254.722 260.69 254.853C260.69 255.018 260.427 255.116 260.131 255.116C259.802 255.116 258.882 254.722 258.06 254.229C257.238 253.768 255.956 252.848 255.167 252.19C254.378 251.533 253.754 250.81 253.786 250.579C253.786 250.382 254.247 249.527 254.805 248.706C255.397 247.884 255.956 247.226 256.055 247.226V247.226ZM282.551 247.226C282.715 247.226 283.373 247.522 283.965 247.884C284.523 248.245 285.312 249.034 285.674 249.593C286.036 250.185 286.43 251.04 286.529 251.5C286.693 252.125 286.463 252.552 285.608 253.407C285.017 253.999 283.899 254.755 283.143 255.116C282.354 255.478 281.368 255.774 280.907 255.774C280.447 255.774 280.02 255.544 279.921 255.281C279.823 254.985 280.25 254.294 280.907 253.637C281.532 253.012 282.157 252.026 282.255 251.401C282.354 250.842 282.387 249.659 282.321 248.804C282.255 247.884 282.354 247.226 282.551 247.226V247.226ZM271.177 247.555C271.374 247.555 271.44 248.015 271.341 248.607C271.275 249.199 271.078 250.547 270.947 251.631C270.815 252.684 270.618 253.604 270.486 253.67C270.322 253.736 269.927 253.21 269.566 252.486C269.204 251.763 268.908 250.777 268.941 250.316C268.941 249.856 269.369 249.034 269.895 248.508C270.421 247.982 270.979 247.555 271.177 247.555V247.555ZM288.698 253.801C288.83 253.801 289.422 254.755 289.948 255.938C290.507 257.122 290.868 258.207 290.77 258.404C290.671 258.568 290.276 258.733 289.882 258.733C289.455 258.733 288.238 258.503 287.153 258.207C286.069 257.944 285.115 257.648 285.017 257.549C284.918 257.483 285.674 256.596 286.66 255.609C287.646 254.623 288.567 253.801 288.698 253.801ZM250.269 255.774C250.499 255.774 251.189 256.201 251.814 256.661C252.439 257.155 253.622 257.845 255.923 258.831L254.608 259.423C253.885 259.752 252.603 260.212 250.203 260.87L249.02 259.719C248.395 259.094 247.836 258.503 247.836 258.404C247.803 258.305 248.264 257.681 248.855 256.99C249.414 256.333 250.072 255.774 250.269 255.774ZM274.596 256.826C275.154 256.793 275.45 256.892 275.352 257.155C275.319 257.385 274.661 257.878 273.971 258.24C273.281 258.568 272.262 258.864 271.703 258.831C271.177 258.831 270.19 258.568 269.566 258.272C268.843 257.911 268.547 257.582 268.744 257.418C268.908 257.253 270.125 257.056 271.374 256.99C272.656 256.957 274.07 256.859 274.596 256.826V256.826ZM281.335 258.864C281.828 258.996 284.293 259.719 291.427 261.889L291.361 263.368C291.328 264.157 291.131 265.735 290.967 266.853C290.671 268.595 290.507 268.924 289.948 268.924C289.455 268.924 289.192 268.595 288.929 267.511C288.731 266.754 288.205 265.505 287.778 264.716C287.285 263.861 286.332 262.908 285.28 262.218C284.326 261.626 282.847 260.738 281.992 260.245C281.105 259.785 280.414 259.226 280.447 259.029C280.48 258.831 280.842 258.766 281.335 258.864V258.864ZM242.281 259.061C243.004 259.061 243.99 259.259 244.516 259.522C245.009 259.785 245.699 260.311 246.719 261.461L244.845 261.231C243.793 261.133 242.511 260.738 241.952 260.376C241.426 260.015 240.966 259.555 240.966 259.39C240.966 259.193 241.557 259.061 242.281 259.061V259.061ZM267.528 260.738C268.448 260.705 269.237 260.804 269.237 260.935C269.237 261.1 268.876 262.086 268.415 263.171C267.856 264.519 267.593 265.768 267.593 267.116C267.593 268.332 267.824 269.582 268.218 270.404C268.547 271.127 269.171 272.047 269.599 272.442C270.026 272.836 270.947 273.395 271.637 273.658C272.294 273.954 273.182 274.184 273.609 274.184C274.004 274.184 274.826 273.888 275.417 273.527C276.108 273.099 276.601 272.442 276.831 271.62C277.061 270.962 277.16 269.45 277.061 268.267C276.93 266.557 276.634 265.604 275.549 263.565C274.793 262.185 274.267 260.935 274.365 260.771C274.464 260.639 275.615 260.738 276.897 260.968C278.212 261.198 280.085 261.757 281.072 262.185C282.058 262.645 283.504 263.631 284.26 264.387C285.017 265.176 285.97 266.524 286.364 267.445C286.759 268.365 287.153 270.009 287.351 273.362L283.965 275.565C282.091 276.782 279.691 278.129 278.606 278.557C277.521 278.984 275.812 279.543 274.826 279.773C273.839 280.036 271.768 280.233 270.223 280.233C268.678 280.201 266.607 280.003 265.621 279.773C264.635 279.543 262.925 278.951 261.84 278.491C260.756 277.998 259.079 276.88 258.126 275.992C257.172 275.072 256.088 273.757 255.726 273.034C255.397 272.31 255.101 271.061 255.101 270.239C255.101 269.384 255.43 268.069 255.857 267.116C256.285 266.195 257.271 264.913 258.093 264.223C258.882 263.533 260.131 262.678 260.854 262.349C261.577 261.987 262.991 261.494 263.977 261.231C264.964 260.968 266.574 260.738 267.528 260.738V260.738ZM256.844 261.396C256.975 261.363 257.074 261.461 257.074 261.593C257.107 261.757 256.778 262.152 256.383 262.513C255.989 262.875 255.003 264.157 254.214 265.374C253.458 266.623 252.636 267.543 252.471 267.445C252.307 267.346 251.978 266.426 251.781 265.374C251.617 264.354 251.551 263.434 251.65 263.335C251.781 263.237 252.932 262.776 254.214 262.283C255.529 261.823 256.679 261.396 256.844 261.396V261.396ZM271.966 262.842C272.163 262.908 272.755 263.565 273.281 264.322C273.774 265.045 274.333 266.261 274.53 267.017C274.694 267.806 274.826 269.089 274.76 269.91C274.661 271.291 274.596 271.39 273.675 271.488C273.149 271.554 272.262 271.39 271.736 271.16C271.21 270.93 270.585 270.338 270.355 269.812C270.092 269.319 269.895 268.267 269.895 267.445C269.895 266.623 270.125 265.406 270.421 264.716C270.684 264.059 271.078 263.335 271.242 263.105C271.407 262.908 271.736 262.776 271.966 262.842V262.842Z" fill="#F6FBFD"/>
</svg>
