<svg width="277" height="93" viewBox="0 0 277 93" fill="none" xmlns="http://www.w3.org/2000/svg">
<path d="M35.3625 0.363968C35.7144 0.297242 36.3149 0.206252 36.697 0.157725C37.1944 0.0909988 37.8313 0.0728009 38.9109 0.0849328C40.0695 0.103131 40.6214 0.139527 41.2462 0.236582C41.6951 0.309374 42.3501 0.430693 42.702 0.515617C43.0538 0.600541 43.6543 0.770388 44.0364 0.891708C44.4185 1.00696 45.019 1.2314 45.3708 1.37699C46.0077 1.64995 46.0077 1.64995 46.1897 1.54077C46.2867 1.48617 46.5779 1.31633 46.8266 1.17074C47.0753 1.02516 47.5241 0.81285 47.8274 0.697596C48.1307 0.582343 48.5795 0.436759 48.8282 0.370034C49.0769 0.303308 49.5682 0.206252 49.92 0.157725C50.2718 0.103131 50.8905 0.0606689 51.303 0.0606689C51.7094 0.0606689 52.3645 0.103131 52.7587 0.151659C53.1469 0.200186 53.7414 0.297242 54.075 0.370034C54.4086 0.436759 54.8878 0.545947 55.1365 0.612673C55.3852 0.685465 55.8643 0.831048 56.198 0.940235C56.5316 1.04942 57.1321 1.2678 57.5324 1.43158C57.9327 1.58929 58.6727 1.92899 59.1701 2.18376C59.6735 2.43247 60.4196 2.86922 60.8382 3.14825C61.2567 3.42729 61.8572 3.86404 62.1726 4.11274C62.488 4.36145 63.2401 5.05903 63.8406 5.66563C64.5624 6.39355 65.1387 7.04261 65.5451 7.58248C65.8847 8.03136 66.3882 8.72895 66.6733 9.1293C66.9523 9.52966 67.4679 10.3061 67.8197 10.8581C68.1775 11.4101 68.6507 12.1744 68.8751 12.5566C69.0995 12.9387 69.4938 13.606 69.7425 14.0427C69.9912 14.4795 70.4036 15.171 70.6523 15.5896C70.901 16.0081 71.3802 16.7542 71.7138 17.2577C72.0474 17.7551 72.4963 18.3981 72.7207 18.6832C72.9391 18.9683 73.394 19.5264 73.7276 19.9267C74.0612 20.3271 74.8679 21.2006 75.5169 21.8679C76.166 22.5351 76.906 23.3298 77.1607 23.627C77.4155 23.9242 77.9553 24.6218 78.3617 25.1738C78.7742 25.7258 79.3989 26.6114 79.7629 27.1453C80.1208 27.6791 80.697 28.595 81.0488 29.1774C81.4006 29.7597 81.8616 30.5665 82.0799 30.9668C82.2983 31.3672 82.7108 32.1557 82.9959 32.7259C83.2749 33.2962 83.7055 34.206 83.9482 34.7581C84.1908 35.3101 84.5244 36.0986 84.6882 36.5172C84.858 36.9357 85.131 37.6576 85.2947 38.1247C85.4585 38.5917 85.689 39.259 85.8042 39.6108C85.9195 39.9627 86.1197 40.6178 86.2531 41.0667C86.3805 41.5155 86.5988 42.3223 86.7323 42.8561C86.8657 43.3899 87.072 44.3059 87.1872 44.8882C87.3085 45.4706 87.4723 46.3987 87.5511 46.9507C87.6361 47.5027 87.7452 48.358 87.7938 48.8614C87.8484 49.3589 87.9211 50.4265 87.9636 51.2272C88.0121 52.3251 88.0121 53.0166 87.9636 54.0479C87.9211 54.8 87.8484 55.7827 87.7998 56.2316C87.7452 56.6805 87.6361 57.4448 87.5511 57.9301C87.4723 58.4154 87.3024 59.2343 87.1872 59.7499C87.0659 60.2655 86.8293 61.1147 86.6656 61.6303C86.5018 62.1459 86.1985 62.9952 85.9923 63.5108C85.7921 64.0264 85.3857 64.9302 85.0946 65.5126C84.8034 66.0949 84.3485 66.9259 84.0877 67.3627C83.8208 67.7994 83.4872 68.3272 83.3416 68.5455C83.196 68.7639 82.8503 69.2431 82.5773 69.6071C82.3044 69.971 81.904 70.4806 81.6978 70.7293C81.4855 70.978 79.7144 73.0162 77.7612 75.2484C75.796 77.4929 73.8671 79.6402 73.4486 80.0406C73.0361 80.4409 72.4114 81.0172 72.0595 81.3144C71.7077 81.6177 71.1497 82.0848 70.8161 82.3517C70.4825 82.6247 69.7607 83.1767 69.2087 83.5892C68.6567 83.9956 67.6195 84.7235 66.9038 85.1966C66.188 85.6758 65.0659 86.3856 64.4169 86.7738C63.7678 87.162 62.5365 87.8293 61.6873 88.2539C60.8382 88.6785 59.716 89.1941 59.2004 89.4004C58.6849 89.6066 57.6052 89.9888 56.8045 90.2617C56.0039 90.5286 54.8696 90.8926 54.2873 91.0564C53.705 91.2262 52.8437 91.4567 52.3766 91.5659C51.9096 91.6751 51.2423 91.8268 50.8905 91.8995C50.5387 91.9723 49.8715 92.0937 49.4045 92.1725C48.9374 92.2574 48.1307 92.3727 47.6151 92.4394C47.0995 92.5061 46.1594 92.6093 45.5225 92.6699C44.7339 92.7427 43.8059 92.773 42.5806 92.773C41.1613 92.773 40.5426 92.7427 39.5782 92.6396C38.9109 92.5668 38.0496 92.4576 37.6675 92.3909C37.2854 92.3242 36.6424 92.2028 36.2421 92.1119C35.8417 92.0209 35.2109 91.8571 34.847 91.7479C34.483 91.6326 33.9553 91.4628 33.1789 91.1716L32.5602 91.4082C32.2145 91.5416 31.6079 91.7297 31.2076 91.8328C30.8073 91.9359 30.1401 92.0694 29.7215 92.1422C29.303 92.2089 28.6054 92.2878 28.1748 92.312C27.7441 92.3424 27.0163 92.3545 26.5674 92.3484C26.1185 92.3363 25.4756 92.2999 25.142 92.2635C24.8084 92.2271 24.2382 92.1422 23.8682 92.0755C23.4982 92.0087 22.9402 91.8874 22.6248 91.8025C22.3093 91.7176 21.7634 91.5477 21.4116 91.4325C21.0598 91.3111 20.4169 91.0442 19.9862 90.838C19.5555 90.6318 18.949 90.3103 18.6518 90.1283C18.3546 89.9402 17.845 89.5884 17.5296 89.3458C17.2142 89.0971 16.7229 88.6664 16.4439 88.3813C16.1588 88.0962 15.6675 87.5138 15.3399 87.0771C15.0185 86.6403 14.5696 85.9852 14.3452 85.6213C14.1147 85.2573 13.7932 84.6689 13.6234 84.3171C13.4475 83.9652 13.2473 83.5346 13.1745 83.3647C13.0593 83.0857 13.0168 83.0372 12.847 83.0129C12.7378 82.9947 12.2525 82.8612 11.7673 82.7157C11.282 82.5701 10.536 82.3214 10.0992 82.1637C9.66252 82.012 8.89826 81.6784 8.40088 81.4357C7.90349 81.187 7.20595 80.7988 6.85414 80.5683C6.50234 80.3439 6.01102 79.986 5.76233 79.7858C5.51364 79.5856 5.04659 79.1489 4.72511 78.8213C4.4097 78.4877 3.9851 78.0024 3.791 77.7355C3.59084 77.4686 3.30575 77.044 3.14805 76.7953C2.99641 76.5466 2.72952 76.0613 2.55362 75.7216C2.38378 75.3758 2.14116 74.8299 2.00771 74.5084C1.88033 74.1808 1.6741 73.6106 1.55279 73.2467C1.43754 72.8827 1.26771 72.3186 1.18279 72.0031C1.10393 71.6877 0.970491 71.1114 0.885572 70.7293C0.806719 70.3471 0.66721 69.5828 0.582291 69.0308C0.497373 68.4788 0.369995 67.5143 0.309339 66.8774C0.242617 66.2405 0.157698 65.2335 0.115239 64.633C0.0727795 63.9415 0.0545826 62.9102 0.0788451 61.8123C0.0970419 60.8599 0.157698 59.7013 0.206223 59.2343C0.254748 58.7672 0.327535 58.1788 0.363929 57.9301C0.400323 57.6814 0.467045 57.2143 0.521635 56.8989C0.57016 56.5834 0.697538 55.9162 0.800654 55.4127C0.903769 54.9153 1.12213 53.9993 1.2859 53.3806C1.44967 52.7619 1.71656 51.8641 1.88033 51.3788C2.03804 50.8935 2.32312 50.1171 2.50509 49.65C2.68706 49.1829 2.96001 48.5157 3.11165 48.1639C3.2633 47.812 3.52412 47.2115 3.70002 46.8293C3.87592 46.4472 4.1792 45.8042 4.37937 45.4038C4.57953 45.0035 4.92527 44.3484 5.14364 43.948C5.362 43.5476 5.82299 42.7409 6.17479 42.1585C6.5266 41.5762 7.11496 40.6481 7.48497 40.0961C7.85497 39.5441 8.51006 38.616 8.94678 38.0337C9.3835 37.4513 10.0143 36.6446 10.3419 36.2442C10.6694 35.8439 11.2153 35.2009 11.5429 34.8187C11.8765 34.4366 12.3011 33.9149 12.4952 33.6662C12.6832 33.4175 13.0229 32.9383 13.2412 32.6046C13.4596 32.271 13.8721 31.5492 14.1571 30.9971C14.4422 30.4451 14.8426 29.602 15.0427 29.1167C15.249 28.6314 15.6432 27.5577 15.9283 26.7206C16.2073 25.8896 16.8442 23.7726 17.3477 22.0195C17.8511 20.2664 18.4455 18.2889 18.6639 17.6217C18.8823 16.9544 19.1977 16.0506 19.3614 15.6199C19.5252 15.1831 19.8042 14.5038 19.9741 14.1034C20.1439 13.703 20.4472 13.0479 20.6474 12.6476C20.8475 12.2472 21.1993 11.5921 21.4298 11.1917C21.6664 10.7914 22.0182 10.2151 22.2184 9.91788C22.4246 9.62065 22.7643 9.14143 22.9826 8.85633C23.201 8.57123 23.6377 8.0253 23.9531 7.64314C24.2746 7.26098 24.863 6.61192 25.2633 6.19337C25.6636 5.78088 26.3187 5.15002 26.7251 4.7982C27.1254 4.44637 27.7138 3.96109 28.0292 3.72452C28.3446 3.48795 28.8056 3.15432 29.0543 2.99054C29.303 2.82675 29.7579 2.54165 30.0551 2.36574C30.3523 2.18983 30.8619 1.91686 31.1773 1.75914C31.4927 1.60143 32.0811 1.34059 32.4814 1.18287C32.8817 1.02516 33.5489 0.806784 33.9675 0.69153C34.386 0.576277 35.0107 0.430693 35.3625 0.363968Z" fill="#ED0C7E"/>
<path fill-rule="evenodd" clip-rule="evenodd" d="M38.547 4.19159C39.0141 4.18552 39.6813 4.21585 40.0331 4.24618C40.3849 4.28258 41.0036 4.37963 41.416 4.45849C41.8224 4.54342 42.4897 4.71933 42.9021 4.85885C43.3085 4.99836 43.9697 5.26527 44.37 5.45938C44.7703 5.65349 45.389 5.99925 45.7408 6.22976C46.0987 6.4542 46.4323 6.67257 46.4808 6.7029C46.5658 6.7575 46.5658 6.80602 46.4869 7.15785C46.4323 7.37623 46.3777 7.94643 46.3595 8.43171C46.3353 8.98978 46.3535 9.46899 46.3959 9.73589C46.4323 9.97246 46.5354 10.3668 46.6203 10.6155C46.6992 10.8642 46.8994 11.307 47.0571 11.6042C47.2148 11.8954 47.5181 12.3807 47.7364 12.69C47.9548 12.9933 48.3794 13.5332 48.6827 13.885C48.9799 14.2368 49.544 14.8434 49.9261 15.2256C50.3082 15.6078 50.933 16.1901 51.3151 16.5237C51.6973 16.8513 52.4919 17.4821 53.0742 17.9189C53.6565 18.3556 54.5845 19.0168 55.1365 19.3869C55.6884 19.7569 56.5316 20.3028 57.0168 20.6061C57.5021 20.9094 58.3088 21.3826 58.8062 21.6616C59.3096 21.9346 60.4257 22.5108 61.2931 22.9355C62.1605 23.3601 63.1431 23.8211 63.4767 23.9606C63.8103 24.1062 64.4533 24.3913 64.9021 24.5975C65.351 24.8038 66.8431 25.5014 68.2079 26.1383C69.5787 26.7813 70.9131 27.4364 71.18 27.6002C71.4469 27.764 71.7866 27.952 71.9382 28.0187C72.0899 28.0855 72.2779 28.1461 72.3628 28.1461C72.5023 28.1461 72.5084 28.134 72.4659 27.952C72.4417 27.8428 72.3507 27.6548 72.2718 27.5395C72.1869 27.4243 71.9746 27.1452 71.8048 26.9269C71.6289 26.7085 71.1254 26.1201 70.6887 25.6227C70.252 25.1253 69.6515 24.5005 69.3543 24.2336C69.0571 23.9667 68.6385 23.5906 68.4202 23.4086C68.2018 23.2206 67.6984 22.8202 67.298 22.523C66.8977 22.2257 66.2851 21.789 65.9333 21.5524C65.5815 21.3219 65.0113 20.9519 64.6595 20.7335C64.3077 20.5151 63.6708 20.1269 63.2341 19.86C62.8034 19.5992 62.021 19.1139 61.5054 18.7863C60.9898 18.4527 60.1709 17.9068 59.6857 17.5731C59.2004 17.2395 58.3149 16.6086 57.7144 16.1719C57.1139 15.7412 56.2404 15.0861 55.7734 14.7161C55.3063 14.3521 54.6391 13.8183 54.2873 13.5332C53.9355 13.2481 53.4866 12.8659 53.2865 12.684C53.0863 12.508 51.7094 11.1493 50.2233 9.67523C48.7372 8.19513 47.4453 6.90308 47.1602 6.61798L47.3967 6.20549C47.5302 5.98105 47.8335 5.5989 48.064 5.36839C48.3915 5.04689 48.622 4.87704 49.0102 4.689C49.2953 4.55555 49.732 4.39177 49.9807 4.33111C50.3204 4.24618 50.66 4.21585 51.3455 4.21585C51.8489 4.21585 52.4615 4.25225 52.7102 4.30078C52.9589 4.34324 53.4927 4.45849 53.893 4.56161C54.2934 4.66474 54.9909 4.88311 55.4398 5.04689C55.8886 5.21674 56.6408 5.53824 57.1078 5.76268C57.5749 5.99318 58.2057 6.33894 58.5029 6.53912C58.8062 6.7393 59.3339 7.13359 59.6857 7.41869C60.0375 7.69772 60.6623 8.28006 61.0747 8.71074C61.4872 9.14143 62.0998 9.86328 62.4395 10.3122C62.7731 10.761 63.41 11.6649 63.8406 12.3139C64.2774 12.963 64.9506 14.0306 65.3328 14.6797C65.721 15.3287 66.3033 16.3296 66.6308 16.8937C66.9644 17.4639 67.4739 18.3071 67.7712 18.7742C68.0684 19.2413 68.59 20.0177 68.9418 20.503C69.2876 20.9883 69.9426 21.8314 70.4036 22.3835C70.8646 22.9355 71.7199 23.8757 72.3082 24.4762C72.8966 25.0767 73.5942 25.8168 73.8489 26.114C74.1097 26.4173 74.6253 27.0724 75.0014 27.5699C75.3774 28.0733 75.887 28.7831 76.1356 29.147C76.3904 29.517 76.8089 30.154 77.0698 30.5725C77.3306 30.9911 77.7309 31.6583 77.9614 32.0587C78.1919 32.459 78.6529 33.3022 78.9804 33.9391C79.308 34.5761 79.7993 35.5951 80.0722 36.2139C80.3452 36.8326 80.7455 37.785 80.9578 38.337C81.1762 38.889 81.5037 39.7746 81.6857 40.3084C81.8677 40.8422 82.1345 41.7036 82.2862 42.2192C82.4378 42.7348 82.6501 43.5294 82.7654 43.9783C82.8806 44.4272 83.0686 45.2764 83.1839 45.8588C83.2991 46.4411 83.4508 47.3328 83.5236 47.8302C83.5903 48.3337 83.6934 49.1769 83.748 49.7107C83.8147 50.384 83.8451 51.2514 83.8451 52.5617C83.8451 53.9265 83.8208 54.709 83.7419 55.4127C83.6873 55.9465 83.5721 56.7654 83.4932 57.2325C83.4144 57.6996 83.2627 58.4396 83.1596 58.8703C83.0505 59.307 82.8078 60.1381 82.6137 60.7204C82.4196 61.3028 82.1345 62.0853 81.9768 62.4492C81.8191 62.8132 81.5522 63.3894 81.3885 63.7231C81.2186 64.0567 80.9578 64.548 80.8062 64.8149C80.6545 65.0819 80.2967 65.6521 80.0116 66.0888C79.7265 66.5195 79.308 67.1079 79.0835 67.393C78.8591 67.6781 78.5801 68.0178 78.4648 68.1512C78.3496 68.2847 78.2525 68.3635 78.2465 68.3332C78.2465 68.3029 78.5376 67.6842 78.8894 66.9684C79.2412 66.2526 79.6355 65.3973 79.769 65.0758C79.8963 64.7482 80.1329 64.081 80.2845 63.5896C80.4362 63.0922 80.6545 62.3218 80.7637 61.873C80.879 61.4241 81.0367 60.7144 81.1216 60.2958C81.2004 59.8772 81.3278 59.1554 81.3945 58.6883C81.4613 58.2212 81.5522 57.5115 81.5947 57.1112C81.6432 56.638 81.6736 55.5825 81.6736 54.0782C81.6736 52.6163 81.6432 51.5062 81.5947 51.0452C81.5522 50.6448 81.4613 49.923 81.3945 49.4377C81.3278 48.9524 81.1944 48.1214 81.0913 47.5876C80.9942 47.0538 80.8001 46.1681 80.6667 45.6161C80.5332 45.0641 80.3331 44.2877 80.2117 43.8873C80.0965 43.487 79.8963 42.8319 79.7629 42.4315C79.6355 42.0311 79.3929 41.3214 79.2291 40.8543C79.0653 40.3873 78.7621 39.5805 78.5498 39.0649C78.3435 38.5493 77.9917 37.7425 77.7673 37.2754C77.5429 36.8083 77.185 36.1229 76.9788 35.7589C76.7665 35.395 76.3722 34.7641 76.1053 34.3638C75.8384 33.9634 75.4138 33.3629 75.1651 33.0292C74.9165 32.6956 74.4737 32.1497 74.1825 31.816C73.8914 31.4824 73.2727 30.8394 72.8056 30.3905C72.3446 29.9417 71.6653 29.329 71.2953 29.0378C70.9313 28.7406 70.0882 28.134 69.421 27.6912C68.7538 27.2484 67.8561 26.6842 67.4194 26.4416C66.9887 26.1989 66.3033 25.8471 65.9029 25.6591C65.5026 25.471 64.7505 25.1435 64.2349 24.9312C63.7193 24.7249 62.4759 24.2578 61.475 23.8999C60.4742 23.542 59.249 23.081 58.7455 22.8809C58.2481 22.6807 57.5203 22.3774 57.1381 22.2015C56.756 22.0316 56.1555 21.7405 55.8037 21.5524C55.4519 21.3644 54.8271 21.0065 54.4086 20.7578C53.9901 20.5091 53.3532 20.0966 52.9832 19.8479C52.6192 19.5931 51.8914 19.0714 51.3758 18.6832C50.8602 18.2889 50.0535 17.6035 49.5925 17.1606C49.1315 16.7118 48.531 16.0748 48.2641 15.7412C47.9912 15.4076 47.5605 14.807 47.2997 14.4067C47.0389 14.0063 46.6931 13.4179 46.5294 13.1025C46.3717 12.7871 46.1351 12.2411 46.0138 11.8893C45.8925 11.5375 45.7287 11.1432 45.6559 11.0097C45.5771 10.8763 45.4739 10.761 45.4133 10.755C45.3587 10.7428 45.2859 10.7914 45.2495 10.8581C45.2192 10.9248 45.1889 11.2463 45.1889 11.5739C45.1828 11.8954 45.2131 12.3382 45.2435 12.5566C45.2798 12.7749 45.3648 13.1692 45.4376 13.4361C45.5043 13.703 45.6559 14.1823 45.7772 14.4977C45.8925 14.8131 46.1472 15.4015 46.3413 15.8019C46.5294 16.2022 46.8872 16.8452 47.1299 17.2274C47.3664 17.6095 47.7607 18.1979 47.9972 18.5316C48.2338 18.8652 48.5917 19.3444 48.7918 19.5931C48.992 19.8418 49.5561 20.4484 50.0414 20.9337C50.5266 21.425 51.1938 22.0377 51.5274 22.2985C51.861 22.5654 52.4494 22.984 52.8315 23.2388C53.2137 23.4935 53.8991 23.9121 54.3479 24.1729C54.7968 24.4277 55.7794 24.9433 56.5316 25.3194C57.2837 25.6894 58.2117 26.1262 58.5939 26.2899C58.976 26.4537 59.5522 26.7206 59.8677 26.8783C60.1831 27.0421 60.5106 27.2302 60.7472 27.4243L60.1406 27.3757C59.807 27.3454 59.1276 27.3333 58.6242 27.3333C57.9024 27.3394 57.6112 27.3697 57.2291 27.4728C56.9622 27.5456 56.5801 27.679 56.3799 27.77C56.1798 27.8671 55.7976 28.0794 55.5307 28.2492C55.2457 28.4312 54.8453 28.7649 54.5602 29.0682C54.2934 29.3472 53.9173 29.8082 53.7293 30.0933C53.5412 30.3723 53.2319 30.8879 53.0499 31.2398C52.8679 31.5916 52.6071 32.1375 52.4797 32.453C52.3463 32.7684 52.1522 33.3022 52.0491 33.6358C51.946 33.9695 51.8065 34.5033 51.7458 34.8187C51.6791 35.1341 51.5942 35.6801 51.5517 36.0319C51.5153 36.3898 51.4971 36.9479 51.5153 37.3058C51.5335 37.6576 51.5941 38.1368 51.6548 38.3673C51.7094 38.6039 51.861 39.0103 51.9884 39.2772C52.134 39.5866 52.3948 39.9748 52.7042 40.3387C52.971 40.6542 53.2743 41.0788 53.3774 41.279C53.4806 41.4791 53.5594 41.7036 53.5594 41.7824C53.5594 41.8795 53.523 41.9159 53.426 41.9159C53.3471 41.9159 53.1227 41.8431 52.9225 41.7582C52.7224 41.6733 52.4069 41.5519 52.225 41.4852C52.043 41.4185 51.7397 41.37 51.5578 41.37C51.3212 41.37 51.0968 41.4306 50.7996 41.558C50.5327 41.6733 50.2294 41.7582 49.9807 41.7764C49.7017 41.8006 49.3984 41.7703 48.9192 41.6672C48.5371 41.5883 48.0397 41.5277 47.7667 41.5277C47.3785 41.5337 47.2269 41.558 47.0085 41.6733C46.8569 41.746 46.6628 41.8734 46.5718 41.9523C46.4748 42.0311 46.3474 42.0979 46.2807 42.0979C46.1998 42.0979 46.1594 42.0574 46.1594 41.9766C46.1594 41.9098 46.1958 41.7642 46.2382 41.6611C46.2867 41.5519 46.5294 41.2729 46.7841 41.0363C47.0753 40.7694 47.2572 40.551 47.2754 40.4479C47.3058 40.3023 47.2936 40.2781 47.1784 40.2781C47.0995 40.272 46.863 40.3933 46.6507 40.5329C46.4384 40.6784 46.1897 40.8907 46.0987 41.006C46.0077 41.1212 45.8864 41.3154 45.8257 41.4306C45.7651 41.5459 45.7105 41.7582 45.7105 41.8977C45.7044 42.1039 45.7408 42.1889 45.8864 42.3344C45.9895 42.4376 46.1412 42.5589 46.2382 42.6013C46.3899 42.6681 46.4262 42.6559 46.6628 42.474C46.8023 42.3648 47.0389 42.1949 47.1905 42.0918C47.3422 41.9948 47.5423 41.9159 47.6454 41.9159C47.7486 41.9159 48.1671 41.9705 48.5856 42.0372C49.0041 42.1039 49.5197 42.1585 49.7381 42.1585C49.9564 42.1585 50.3507 42.1039 50.6176 42.0311C50.8845 41.9584 51.2242 41.8734 51.3758 41.8431C51.5942 41.7946 51.7276 41.8006 52.0127 41.8856C52.2128 41.9402 52.504 42.0554 52.6678 42.1343C52.8255 42.2131 53.0681 42.3041 53.2137 42.3344C53.4017 42.3769 53.517 42.3708 53.6686 42.3041C53.7717 42.2556 53.9052 42.1403 53.9537 42.0372C54.0022 41.9402 54.0447 41.7824 54.0447 41.6915C54.0447 41.5944 53.984 41.4245 53.9112 41.3093C53.8384 41.194 53.6019 40.8543 53.3774 40.551C53.1591 40.2477 52.874 39.8413 52.7527 39.6412C52.6314 39.441 52.4676 39.1073 52.3827 38.9011C52.2917 38.6888 52.1704 38.2945 52.1037 38.0215C52.043 37.7425 51.9702 37.2876 51.946 37.0025C51.9278 36.7113 51.9399 36.2199 51.9763 35.8802C52.0187 35.5466 52.1158 35.0007 52.1946 34.6671C52.2735 34.3334 52.4494 33.745 52.5889 33.3629C52.7284 32.9807 53.0014 32.3377 53.1894 31.9374C53.4624 31.3732 53.6079 31.1488 53.8384 30.9304C54.0022 30.7788 54.2752 30.5846 54.4389 30.4997C54.6088 30.4148 55.0273 30.2207 55.3791 30.069C55.7309 29.9235 56.2222 29.7233 56.4709 29.6384C56.7196 29.5474 57.1988 29.4018 57.5324 29.3169C57.866 29.2319 58.4422 29.1106 58.8062 29.05C59.2368 28.9711 59.9101 28.9165 60.7168 28.8983C61.657 28.868 62.1301 28.8862 62.6578 28.9529C63.04 29.0075 63.5556 29.0924 63.7982 29.1409C64.1803 29.2259 64.2531 29.2623 64.3562 29.4382C64.4533 29.5959 64.4775 29.7415 64.4775 30.2086C64.4775 30.524 64.4229 31.1548 64.3501 31.6037C64.2834 32.0526 64.1985 32.6835 64.156 33.005C64.1136 33.3265 64.0651 33.6176 64.0408 33.6419C64.0105 33.6722 63.5495 33.4721 63.0097 33.193C62.306 32.8412 61.8511 32.6531 61.4447 32.544C61.1293 32.4651 60.5955 32.368 60.2619 32.3256C59.9101 32.2892 59.4127 32.2771 59.0791 32.2953C58.7637 32.3195 58.327 32.368 58.1086 32.3984C57.8903 32.4348 57.5081 32.5258 57.2594 32.6107C57.0108 32.6956 56.5619 32.8897 56.2586 33.0414C55.9614 33.193 55.5489 33.4296 55.3488 33.5752C55.1486 33.7147 54.8332 33.9937 54.6512 34.1939C54.4693 34.3941 54.257 34.6792 54.1902 34.8248C54.1175 34.9703 54.0447 35.1584 54.0204 35.2433C53.9901 35.3889 54.0083 35.401 54.4268 35.5284C54.6634 35.6012 55.1789 35.7286 55.5611 35.8135C55.9432 35.8984 56.4891 35.9955 56.7742 36.038C57.0593 36.0804 57.769 36.1168 58.3513 36.1168C59.0488 36.1168 59.6432 36.0804 60.08 36.0137C60.45 35.9591 60.9534 35.856 61.2021 35.7893C61.4508 35.7165 61.8632 35.583 62.1119 35.486C62.3606 35.3889 62.9247 35.1584 63.3554 34.9764C63.7921 34.7944 64.1621 34.661 64.1924 34.6852C64.2167 34.7095 64.3684 35.1645 64.5321 35.6983C64.6959 36.2321 64.9082 37.0267 64.9992 37.4574C65.1387 38.1186 65.1629 38.3976 65.169 39.1862C65.169 39.9141 65.1447 40.2174 65.0598 40.5207C65.0052 40.7391 64.8839 41.0909 64.799 41.3093C64.708 41.5277 64.5079 41.922 64.3562 42.1889C64.1985 42.4558 63.8406 42.9592 63.5616 43.3111C63.2887 43.6629 62.5244 44.4939 61.8693 45.1612C60.8624 46.1863 60.6441 46.4411 60.4682 46.799C60.2923 47.163 60.2619 47.2843 60.2619 47.6543C60.2619 47.8969 60.2741 48.1093 60.2923 48.1275C60.3104 48.1457 60.4621 48.182 60.6259 48.2002C60.7957 48.2245 61.0019 48.2245 61.099 48.2002C61.19 48.182 61.3598 48.0729 61.4811 47.9697C61.6024 47.8605 61.8451 47.5512 62.021 47.2843C62.1969 47.0174 62.7003 46.1742 63.137 45.4038C63.5798 44.6395 63.9801 43.9662 64.0347 43.9177C64.1197 43.8327 64.1257 43.8631 64.0833 44.1906C64.0651 44.3908 63.9619 44.8943 63.8649 45.3128C63.7678 45.7314 63.592 46.3744 63.4706 46.7383C63.3493 47.1023 63.131 47.7089 62.9793 48.0729C62.8277 48.4368 62.5365 49.0798 62.3242 49.4984C62.118 49.9169 61.7723 50.5417 61.566 50.8935C61.3537 51.2454 61.0565 51.7064 60.9109 51.9247C60.7593 52.1431 60.45 52.5617 60.2195 52.865C59.989 53.1683 59.5644 53.6778 59.2732 54.0114C58.9821 54.339 58.4726 54.8546 58.139 55.1579C57.8053 55.4552 57.0411 56.0981 56.4406 56.5774C55.8401 57.0626 55.0516 57.6571 54.6816 57.8997C54.3176 58.1484 53.7838 58.4699 53.4988 58.6216C53.2137 58.7732 52.6981 58.9916 52.3463 59.1069C51.9945 59.2221 51.5335 59.3495 51.3151 59.3798C51.0968 59.4162 50.66 59.4466 50.3446 59.4466C50.0292 59.4466 49.5379 59.4102 49.2528 59.3556C48.9677 59.307 48.5735 59.2161 48.3733 59.1493C48.1731 59.0887 47.791 58.9492 47.5241 58.84C47.2572 58.7368 46.6992 58.4699 46.2807 58.2516C45.8621 58.0332 45.2374 57.6753 44.8856 57.4569C44.5338 57.2446 43.9879 56.8867 43.6725 56.6683C43.357 56.4439 42.7565 55.995 42.338 55.6614C41.9195 55.3278 41.1188 54.6605 40.5487 54.1752C39.9846 53.6899 38.8867 52.6648 38.1224 51.8944C37.3521 51.1301 36.4847 50.202 36.1935 49.832C35.8963 49.468 35.5021 48.9342 35.308 48.6491C35.1199 48.364 34.8712 47.9455 34.756 47.7089C34.6468 47.4784 34.5073 47.0234 34.4406 46.708C34.3799 46.3926 34.2586 45.6161 34.1798 44.9792C34.1009 44.3483 33.9917 43.2807 33.9371 42.6135C33.8886 41.9462 33.8462 41.3821 33.8462 41.3578C33.8462 41.3275 33.8644 41.3093 33.8947 41.3093C33.9189 41.3032 34.0585 41.4791 34.204 41.6854C34.3496 41.8977 34.6044 42.2435 34.756 42.4618C34.9137 42.6802 35.1139 43.0017 35.2049 43.1776C35.2898 43.3475 35.5385 44.0208 35.7568 44.6638C35.9752 45.3007 36.2906 46.1014 36.4483 46.435C36.6242 46.7929 36.8668 47.1751 37.0367 47.3692C37.2004 47.5451 37.4552 47.7635 37.6068 47.8484C37.8131 47.9637 37.989 48.0122 38.3044 48.0243C38.5409 48.0365 38.7714 48.0183 38.82 47.9879C38.8806 47.9455 38.9109 47.8242 38.9049 47.6058C38.8988 47.4056 38.8442 47.1569 38.7472 46.9507C38.6683 46.7687 38.5045 46.4836 38.3954 46.3137C38.2801 46.1499 37.9404 45.7253 37.6372 45.3796C37.34 45.0277 36.885 44.4939 36.6363 44.1967C36.3876 43.8934 35.9873 43.4021 35.7447 43.0988C35.5081 42.8015 35.1139 42.2556 34.8652 41.8856C34.6226 41.5216 34.2889 40.9575 34.1373 40.642C33.9796 40.3266 33.7673 39.8231 33.6702 39.5198C33.5732 39.2226 33.4458 38.7555 33.3912 38.4886C33.3366 38.2217 33.276 37.5787 33.2578 37.0631C33.2335 36.499 33.2517 35.8317 33.3002 35.395C33.3366 34.9946 33.4216 34.3698 33.4883 33.9998C33.5489 33.6358 33.6035 33.2112 33.6035 33.0596C33.6035 32.9079 33.5793 32.6956 33.5429 32.5925C33.5125 32.4833 33.464 32.3923 33.4398 32.3923C33.4094 32.3923 33.3488 32.4651 33.2881 32.5561C33.2335 32.6531 33.1425 32.9019 33.088 33.1202C33.0334 33.3386 32.9363 33.6904 32.8635 33.9088C32.7968 34.1272 32.6452 34.4972 32.5238 34.7277C32.4086 34.9643 32.1296 35.4132 31.9052 35.7286C31.6807 36.044 31.3229 36.4808 31.1045 36.6992C30.8861 36.9175 30.6192 37.142 30.3281 37.3058L30.2068 37.0631C30.1401 36.9297 30.0309 36.6203 29.9702 36.3837C29.9035 36.1411 29.8065 35.7347 29.7579 35.486C29.7094 35.2373 29.6245 34.7459 29.576 34.3941C29.5274 34.0423 29.4546 33.5145 29.4243 33.2112C29.3879 32.9079 29.3333 32.3498 29.2969 31.9677C29.2666 31.5855 29.212 30.8455 29.1756 30.3299C29.1392 29.8143 29.0846 28.8013 29.0543 28.0855C29.024 27.3697 28.9937 26.0291 28.9937 25.1131C28.9937 24.1972 29.024 23.1296 29.0543 22.7474C29.0846 22.3653 29.1453 21.8193 29.1817 21.5342C29.2181 21.2491 29.2969 20.7214 29.3637 20.3513C29.4304 19.9874 29.5699 19.3687 29.673 18.9865C29.7761 18.6043 29.952 18.0159 30.0673 17.6823C30.1825 17.3487 30.4737 16.6693 30.7163 16.1658C30.9589 15.6684 31.3411 14.9708 31.5715 14.619C31.796 14.2672 32.1356 13.7758 32.3297 13.5271C32.5178 13.2784 32.7543 13.0055 32.8514 12.9266C33.0212 12.7931 33.0576 12.7871 33.6642 12.8174C34.016 12.8417 34.5194 12.9145 34.7863 12.9812C35.0532 13.0479 35.4232 13.1632 35.6052 13.236C35.7872 13.3087 36.3634 13.612 36.879 13.9153C37.3945 14.2126 37.8555 14.4855 37.898 14.5219C37.9586 14.5705 37.8131 14.6979 37.2672 15.074C36.879 15.3409 36.3391 15.7533 36.0662 15.9899C35.7932 16.2265 35.3686 16.6511 35.1139 16.9301C34.8652 17.2092 34.5012 17.6459 34.3193 17.8946C34.1312 18.1433 33.8401 18.6104 33.6763 18.9258C33.5065 19.2413 33.2881 19.7508 33.1789 20.0481C33.0758 20.3513 32.9363 20.8002 32.8757 21.0489C32.8089 21.2976 32.7179 21.7526 32.6634 22.0498C32.6088 22.3531 32.5299 22.99 32.4814 23.4753C32.4329 23.9606 32.3904 24.9372 32.3904 25.6469C32.3904 26.4719 32.4268 27.1877 32.4875 27.6487C32.536 28.0369 32.6452 28.5647 32.7301 28.8134C32.815 29.0621 32.9788 29.42 33.088 29.602C33.2032 29.7839 33.3852 30.0326 33.4943 30.1479C33.6035 30.2632 33.7916 30.433 33.9068 30.524C34.0221 30.6089 34.2829 30.7666 34.483 30.8637C34.6832 30.9668 35.0593 31.0942 35.3201 31.1427C35.5749 31.1973 35.957 31.2398 36.1693 31.2398C36.3755 31.2398 36.7758 31.1973 37.0609 31.1488C37.346 31.0942 38.3954 30.8455 39.3962 30.5968C40.397 30.3481 41.5434 30.0872 41.9438 30.0144C42.4715 29.9174 42.9203 29.881 43.5815 29.881C44.4064 29.881 44.5277 29.8931 44.8553 30.0266C45.0554 30.1054 45.3162 30.2692 45.4376 30.3845C45.5649 30.5179 45.6984 30.7363 45.759 30.9365C45.8439 31.1912 45.8682 31.3975 45.85 31.7857C45.8258 32.1861 45.7833 32.3802 45.6559 32.6531C45.5649 32.8412 45.4194 33.0474 45.3284 33.1142C45.2313 33.1748 45.0494 33.2597 44.9159 33.3022C44.7582 33.3507 44.4428 33.3629 44.0364 33.3447C43.6846 33.3325 42.9628 33.2476 42.429 33.1566C41.8952 33.0717 41.1188 32.9686 40.7003 32.9261C40.1301 32.8776 39.7662 32.8776 39.2446 32.9261C38.8624 32.9625 38.3104 33.0656 38.0193 33.1506C37.7221 33.2355 37.3399 33.375 37.1701 33.466C36.9942 33.5509 36.6909 33.7754 36.139 34.3031L35.7083 34.2667C35.4353 34.2424 35.0957 34.1575 34.8045 34.0362C34.5437 33.9331 34.2647 33.8481 34.1798 33.8481C34.0463 33.8481 34.0281 33.8724 34.0281 34.0786C34.0281 34.2242 34.0888 34.4001 34.198 34.5761C34.295 34.7277 34.483 34.9461 34.6165 35.0613C34.7499 35.1766 35.0653 35.3889 35.308 35.5284C35.5567 35.674 36.0722 35.9166 36.4544 36.0683C36.8365 36.2199 37.5098 36.4383 37.9404 36.5475C38.3772 36.6628 38.9898 36.778 39.3052 36.8144C39.6995 36.8569 40.0937 36.8569 40.5487 36.8144C40.9187 36.7841 41.6162 36.6749 42.1136 36.5718C42.6049 36.4747 43.3388 36.2867 43.7513 36.1472C44.1577 36.0137 44.7097 35.7893 44.9766 35.6497C45.2435 35.5102 45.5649 35.2918 45.6923 35.1705C45.8136 35.0431 45.9167 34.8854 45.9167 34.8187C45.9167 34.7156 45.8743 34.6974 45.6316 34.6974C45.4679 34.6974 45.1221 34.7398 44.8553 34.7823C44.5884 34.8308 43.8666 34.9522 43.2479 35.0553C42.6292 35.1584 41.8831 35.2676 41.5798 35.304C41.2826 35.3343 40.6275 35.3646 40.1241 35.3646C39.5842 35.3646 39.0019 35.3282 38.6865 35.2736C38.3893 35.2251 38.0072 35.1281 37.8373 35.0674C37.6614 35.0007 37.346 34.8369 37.1398 34.7034C36.9275 34.5639 36.7576 34.4305 36.7576 34.3941C36.7576 34.3638 36.8486 34.2364 36.9578 34.1151C37.0609 33.9937 37.3036 33.8299 37.4855 33.745C37.6675 33.6601 38.08 33.5327 38.3954 33.466C38.8624 33.3689 39.2142 33.3447 40.2454 33.3447C41.1856 33.3386 41.6769 33.3689 42.1257 33.4478C42.4593 33.5024 42.9992 33.6176 43.3267 33.6965C43.7088 33.7936 44.0849 33.8481 44.4003 33.8481C44.831 33.8481 44.928 33.8239 45.2616 33.654C45.5225 33.5145 45.7105 33.3568 45.8682 33.1506C45.9895 32.9868 46.1351 32.6956 46.1836 32.5136C46.2382 32.3317 46.2807 31.998 46.2807 31.7736C46.2807 31.5431 46.2503 31.2155 46.214 31.0457C46.1776 30.8698 46.0502 30.5179 45.9349 30.2692C45.7651 29.9174 45.6074 29.7051 45.2253 29.329C44.831 28.9347 44.6248 28.7831 44.1577 28.5525C43.8423 28.4009 43.3752 28.2189 43.1265 28.1461C42.8779 28.0794 42.3987 27.9823 42.0651 27.9338C41.7315 27.8853 41.0946 27.8428 40.6578 27.8428C40.2151 27.8428 39.5296 27.8853 39.1414 27.9399C38.7472 27.9884 38.2073 28.0855 37.9404 28.1461C37.6736 28.2068 37.2368 28.3342 36.9699 28.4191C36.7031 28.504 36.2239 28.7042 35.9085 28.8498C35.5931 29.0014 35.035 29.3351 33.9978 30.0448L33.7976 29.8082C33.6824 29.6808 33.5125 29.4139 33.4155 29.2259C33.3184 29.0318 33.1729 28.6739 33.094 28.4373C33.0091 28.1947 32.8999 27.7336 32.8514 27.4182C32.7968 27.1028 32.7422 26.5144 32.7179 26.114C32.6937 25.6955 32.7119 25.01 32.7483 24.5065C32.7907 24.0213 32.8757 23.3115 32.9424 22.9294C33.0091 22.5472 33.1425 21.9346 33.2396 21.5645C33.3366 21.2006 33.5125 20.6243 33.6339 20.2907C33.7552 19.9571 33.9796 19.4111 34.1434 19.0775C34.3011 18.7439 34.574 18.2525 34.756 17.9856C34.938 17.7187 35.2352 17.3426 35.4171 17.1424C35.6052 16.9483 36.0116 16.5783 36.327 16.3235C36.6424 16.0688 37.0791 15.7169 37.2975 15.535C37.5159 15.353 37.8495 15.1407 38.0314 15.0558C38.2923 14.9405 38.4257 14.9102 38.638 14.9405C38.7896 14.9587 39.2506 15.08 39.6691 15.2135C40.0877 15.353 40.5487 15.4925 40.7003 15.535C40.8519 15.5714 41.1492 15.6442 41.3675 15.6927C41.5859 15.7412 42.1439 15.7958 42.611 15.814C43.2903 15.8383 43.539 15.8261 43.8544 15.7473C44.0728 15.6927 44.3639 15.5774 44.5095 15.4986C44.649 15.4136 44.8249 15.2559 44.8977 15.1528C44.9705 15.0436 45.0433 14.8434 45.0554 14.71C45.0675 14.5341 45.0372 14.3885 44.9341 14.1944C44.8371 14.0185 44.6733 13.8426 44.4549 13.697C44.273 13.5757 43.9393 13.4119 43.7028 13.333C43.3388 13.2178 43.1569 13.1935 42.4593 13.1996C41.7921 13.1996 41.5192 13.2299 41.0036 13.3573C40.6518 13.4483 39.9664 13.6666 39.475 13.8547C38.9777 14.0427 38.4863 14.1944 38.3832 14.1944C38.2377 14.1883 38.0072 14.0731 37.5765 13.7819C37.2429 13.5575 36.6545 13.2299 36.2724 13.06C35.7447 12.8174 35.3626 12.6961 34.6953 12.5505C34.2101 12.4474 33.743 12.3261 33.6521 12.2775C33.555 12.229 33.4883 12.1805 33.5004 12.1683C33.5065 12.1562 33.8401 11.9075 34.2404 11.6224C34.6407 11.3312 35.217 10.9794 35.5142 10.8278C35.8175 10.6761 36.3331 10.482 36.6667 10.391C37.2004 10.2515 37.3885 10.2333 38.2741 10.2272C39.0383 10.2212 39.3901 10.2454 39.7601 10.3304C40.027 10.391 40.4637 10.5123 40.7306 10.5973C40.9975 10.6822 41.4767 10.8763 41.7921 11.0279C42.1075 11.1796 42.5443 11.4101 42.7626 11.5436C42.981 11.677 43.3025 11.9075 43.4784 12.047C43.7149 12.2533 43.8423 12.3139 44.0061 12.3139C44.2062 12.3139 44.2184 12.3018 44.182 12.1501C44.1638 12.0531 44.0485 11.8347 43.9272 11.6527C43.8059 11.4708 43.4541 11.0886 43.1569 10.8035C42.8536 10.5184 42.3562 10.1059 42.0469 9.88754C41.7375 9.66917 41.319 9.39013 41.1067 9.26274C40.9005 9.14143 40.5547 8.97158 40.3364 8.88665C40.118 8.8078 39.7359 8.68648 39.4872 8.61975C39.2385 8.55303 38.7714 8.46204 38.456 8.42564C38.1285 8.38924 37.6614 8.37711 37.3642 8.40138C37.0791 8.41957 36.6303 8.48023 36.3634 8.53483C36.0965 8.58336 35.6173 8.70468 35.3019 8.8078C34.9865 8.91092 34.4406 9.12929 34.0888 9.29307C33.737 9.45686 33.1911 9.76622 32.8757 9.97853C32.536 10.209 31.8566 10.7792 31.2076 11.3858C30.6132 11.9439 29.9763 12.5808 29.7943 12.7992C29.6184 13.0176 29.1817 13.606 28.8238 14.1034C28.472 14.6069 28.0353 15.2317 27.8533 15.4986C27.6774 15.7655 27.362 16.3235 27.1497 16.7421C26.9374 17.1606 26.6341 17.8036 26.4764 18.1676C26.3187 18.5376 26.0458 19.2473 25.8699 19.7448C25.694 20.2482 25.421 21.0671 25.2633 21.5645C25.1056 22.068 24.8326 23.0507 24.6567 23.7483C24.4748 24.4519 24.2382 25.5256 24.1169 26.1444C24.0017 26.7631 23.8258 27.7336 23.7166 28.2978C23.6135 28.868 23.4436 29.7233 23.3466 30.2086C23.2435 30.6938 23.0797 31.4157 22.9826 31.816C22.8795 32.2164 22.6915 32.914 22.5641 33.3629C22.4307 33.8117 22.2002 34.5518 22.0485 35.0007C21.8908 35.4496 21.5875 36.2442 21.3692 36.7598C21.1508 37.2754 20.7929 38.0579 20.5746 38.4886C20.3623 38.9254 20.0044 39.5926 19.786 39.9748C19.5677 40.3569 19.228 40.9453 19.0278 41.279C18.8277 41.6126 18.4698 42.1707 18.2393 42.5225C18.0028 42.8743 17.6085 43.4324 17.3598 43.766C17.105 44.0996 16.6441 44.688 16.3226 45.0702C16.0072 45.4524 15.2126 46.3623 14.5575 47.0962C13.9085 47.8242 13.1199 48.7098 12.8106 49.0677C12.4952 49.4195 11.8401 50.202 11.3488 50.8025C10.8514 51.4031 10.1417 52.3069 9.76565 52.8043C9.38958 53.3078 8.86793 54.0296 8.61318 54.4118C8.35842 54.794 7.94596 55.4491 7.70334 55.8676C7.46071 56.2862 7.1089 56.9534 6.91481 57.3538C6.72071 57.7542 6.45382 58.3668 6.32037 58.7186C6.18693 59.0705 5.97463 59.6831 5.85332 60.0835C5.73201 60.4838 5.58037 61.0419 5.51971 61.327C5.45906 61.6121 5.36201 62.1277 5.31348 62.4795C5.25889 62.8314 5.1861 63.4683 5.15578 63.9051C5.11938 64.3418 5.09512 64.9787 5.09512 65.3306C5.09512 65.6824 5.13758 66.4467 5.1861 67.029C5.22856 67.6114 5.31348 68.3757 5.36807 68.7275C5.42266 69.0793 5.53184 69.7041 5.61676 70.1227C5.70168 70.5412 5.82299 71.0872 5.88972 71.3359C5.9625 71.5846 6.30218 72.6643 6.64792 73.7319C6.99972 74.7995 7.27268 75.7155 7.26661 75.764C7.25448 75.8126 7.09071 75.5396 6.90267 75.1574C6.71464 74.7753 6.45988 74.199 6.33251 73.8836C6.21119 73.5682 6.04742 73.1132 5.9625 72.8827C5.88365 72.6522 5.71381 72.0881 5.58037 71.6392C5.45299 71.1903 5.27102 70.5352 5.1861 70.1833C5.09512 69.8315 4.94348 69.1521 4.84643 68.6668C4.74331 68.1816 4.58561 67.2535 4.48856 66.6044C4.39151 65.9554 4.28233 64.9727 4.23987 64.4207C4.19741 63.7837 4.17921 62.8496 4.20347 61.8426C4.22167 60.9752 4.28233 59.8954 4.33692 59.4466C4.38544 58.9977 4.47036 58.3426 4.52495 57.9907C4.57348 57.6389 4.70085 56.9474 4.7979 56.4439C4.90102 55.9465 5.07692 55.164 5.19217 54.7151C5.30742 54.2662 5.53184 53.514 5.68348 53.047C5.83513 52.5799 6.08988 51.8459 6.25365 51.4091C6.41136 50.9785 6.69038 50.2809 6.87235 49.8623C7.05432 49.4438 7.29087 48.8978 7.40612 48.6491C7.5153 48.4004 7.78219 47.8424 7.99449 47.4056C8.20678 46.9749 8.56465 46.2895 8.78302 45.8891C9.00138 45.4888 9.37745 44.8336 9.61401 44.4333C9.85057 44.0329 10.2145 43.4445 10.4147 43.1291C10.6148 42.8137 10.9788 42.2677 11.2214 41.9159C11.464 41.5641 11.9129 40.9514 12.2162 40.551C12.5134 40.1507 13.035 39.4834 13.3686 39.0649C13.7083 38.6463 14.2421 38.0094 14.5575 37.6394C14.879 37.2754 15.3096 36.7537 15.5219 36.4868C15.7342 36.2199 16.0618 35.7832 16.2498 35.5163C16.4378 35.2494 16.7472 34.7884 16.9291 34.4851C17.1172 34.1878 17.3355 33.8178 17.4265 33.6662C17.5114 33.5145 17.7844 32.9868 18.0331 32.4833C18.2818 31.9859 18.6093 31.2883 18.761 30.9365C18.9065 30.5846 19.1674 29.9295 19.3372 29.4806C19.501 29.0318 19.8103 28.1461 20.0165 27.5092C20.2228 26.8783 20.7444 25.1131 21.1751 23.5966C21.6118 22.0802 22.1031 20.3999 22.273 19.8661C22.4367 19.3323 22.6915 18.5558 22.8371 18.1373C22.9766 17.7187 23.2313 17.0393 23.4012 16.6208C23.5649 16.2022 23.8621 15.5107 24.0623 15.074C24.2564 14.6433 24.6021 13.9578 24.8326 13.5575C25.0571 13.1571 25.4453 12.5323 25.694 12.1623C25.9366 11.7983 26.4582 11.1007 26.8525 10.6155C27.2468 10.1302 27.9807 9.3234 28.4781 8.82599C28.9815 8.32252 29.6912 7.67346 30.0551 7.37623C30.4251 7.08506 31.0499 6.62405 31.4502 6.35714C31.8506 6.09631 32.5602 5.68989 33.0273 5.45938C33.4943 5.22887 34.1676 4.94377 34.5316 4.82852C34.8894 4.7072 35.5142 4.54342 35.9267 4.45849C36.3331 4.37963 36.8972 4.28258 37.1822 4.25831C37.4673 4.22798 38.08 4.19766 38.547 4.19159ZM46.9236 7.15785C46.9358 7.15785 47.0389 7.21851 47.1481 7.2913C47.2512 7.36409 48.3672 8.45597 49.6168 9.71163C51.0482 11.1493 52.2856 12.3321 52.9529 12.8963C53.5352 13.3937 54.4268 14.1337 54.9242 14.5401C55.4276 14.9466 56.2586 15.6017 56.7742 15.996C57.2898 16.3903 58.0965 16.9908 58.5635 17.3305C59.0306 17.6641 60.0132 18.3374 60.7472 18.8167C61.4811 19.3019 62.9005 20.1876 63.9013 20.7881C64.9021 21.3826 65.9939 22.062 66.3275 22.2925C66.6612 22.523 67.11 22.8445 67.3284 23.0082C67.5467 23.1781 68.2807 23.8757 68.9661 24.5611C69.6454 25.2466 70.4158 26.0594 70.6645 26.3567C70.9192 26.66 71.1436 26.939 71.1679 26.9815C71.1982 27.0361 71.174 27.0421 71.0769 26.9997C70.9981 26.9693 70.4461 26.7024 69.8456 26.3991C69.2451 26.0958 67.8925 25.471 66.8431 25.004C65.7938 24.5369 64.2349 23.8393 63.3857 23.4571C62.5365 23.075 61.5114 22.6018 61.1111 22.4077C60.7108 22.2136 60.0557 21.88 59.6554 21.6616C59.255 21.4493 58.5575 21.055 58.1086 20.7881C57.6598 20.5151 56.7742 19.951 56.1373 19.5203C55.5065 19.0957 54.8089 18.6165 54.5906 18.4588C54.3722 18.301 53.7171 17.8158 53.1348 17.3851C52.5525 16.9483 51.8428 16.3963 51.5578 16.1598C51.2727 15.9232 50.66 15.3348 50.193 14.8556C49.7259 14.3703 49.1012 13.6788 48.81 13.3148C48.5128 12.9448 48.1246 12.4292 47.9487 12.1623C47.7668 11.8954 47.4999 11.4344 47.3422 11.1311C47.1905 10.8338 46.9903 10.3668 46.9054 10.0998C46.7659 9.6813 46.7417 9.51145 46.7417 8.82599C46.7356 8.39531 46.772 7.83724 46.8144 7.60067C46.863 7.35803 46.9054 7.15785 46.9236 7.15785ZM37.9404 8.88059C38.7654 8.89879 39.0686 8.92912 39.4568 9.03224C39.7237 9.10503 40.2151 9.29914 40.5487 9.45686C40.8823 9.62064 41.3493 9.88754 41.5859 10.0453C41.8224 10.209 42.1136 10.4274 42.2228 10.5245C42.338 10.6276 42.4533 10.7428 42.4775 10.7853C42.5018 10.8217 42.2652 10.7368 41.962 10.5851C41.6526 10.4395 41.1552 10.2454 40.8519 10.1605C40.5547 10.0756 40.0634 9.9664 39.7601 9.91787C39.4569 9.86934 38.8078 9.82688 38.3044 9.82688C37.7949 9.82688 37.1822 9.86328 36.9093 9.9118C36.6424 9.96033 36.2481 10.0574 36.0298 10.1302C35.8114 10.203 35.405 10.385 35.1199 10.5366C34.8348 10.6822 34.3981 10.9552 34.1494 11.1311C33.9007 11.307 33.464 11.6527 33.1789 11.9014C32.7119 12.3079 32.627 12.3564 32.2691 12.4231C32.0507 12.4716 31.6019 12.593 31.2683 12.7022C30.9347 12.8113 30.5586 12.9448 30.4373 13.0055C30.3099 13.06 30.2068 13.0782 30.2068 13.0418C30.2068 13.0115 30.4858 12.7143 30.8315 12.3867C31.1712 12.0531 31.7232 11.5314 32.0568 11.2221C32.3904 10.9066 32.8817 10.5123 33.1486 10.3364C33.4155 10.1666 33.8825 9.89967 34.1798 9.74802C34.483 9.60244 34.9744 9.39013 35.2716 9.28701C35.5749 9.17782 36.0662 9.0383 36.3634 8.97764C36.8122 8.88059 37.0913 8.86239 37.9404 8.88059ZM32.0447 12.9266C32.1114 12.9205 32.1356 12.9509 32.1175 13.0115C32.0993 13.06 31.7778 13.5575 31.4017 14.1216C31.0256 14.6797 30.6132 15.3105 30.4919 15.5289C30.3706 15.7473 30.1643 16.1719 30.0369 16.4691C29.9035 16.7724 29.7094 17.2759 29.6063 17.5913C29.4971 17.9068 29.3273 18.483 29.2302 18.8652C29.1271 19.2473 28.9815 19.9571 28.9027 20.4423C28.8238 20.9276 28.7268 21.607 28.6964 21.9588C28.66 22.3107 28.5994 22.99 28.5691 23.4753C28.5387 23.9606 28.5084 24.9008 28.5084 25.5681C28.5084 26.2353 28.5509 27.2726 28.5994 27.8732C28.6479 28.4737 28.7692 29.7051 28.8663 30.6028C28.9694 31.5067 29.0786 32.6107 29.115 33.0596C29.1453 33.5084 29.1756 34.0362 29.1756 34.2303C29.1756 34.4426 29.1514 34.5639 29.115 34.5457C29.0846 34.5275 28.9755 34.3577 28.8784 34.1696C28.7874 33.9755 28.563 33.466 28.3871 33.0292C28.2112 32.5986 27.8291 31.5188 27.5318 30.6332C27.2407 29.7475 26.8889 28.6011 26.7554 28.0855C26.6159 27.5699 26.4522 26.848 26.3854 26.478C26.3187 26.114 26.2217 25.471 26.1731 25.0525C26.1246 24.6339 26.0822 23.8332 26.0822 23.263C26.0822 22.6989 26.1186 21.9346 26.1671 21.5645C26.2156 21.2006 26.3005 20.6789 26.3551 20.412C26.4158 20.1451 26.525 19.7023 26.6038 19.4293C26.6827 19.1503 26.8464 18.6711 26.9677 18.3678C27.0891 18.0584 27.3438 17.4882 27.5379 17.1061C27.7259 16.7239 28.0353 16.1658 28.2173 15.8625C28.4053 15.5653 28.6782 15.1528 28.8299 14.9526C28.9755 14.7525 29.3151 14.3885 29.576 14.1398C29.9217 13.8183 30.2068 13.6242 30.601 13.4301C30.9043 13.2784 31.3229 13.1086 31.5412 13.0418C31.7596 12.9812 31.984 12.9266 32.0447 12.9266ZM42.7929 13.6302C43.0295 13.6484 43.3752 13.697 43.5693 13.7455C43.7574 13.794 44.0182 13.8971 44.1456 13.976C44.2669 14.0609 44.4307 14.2308 44.5034 14.3582C44.5762 14.4855 44.6369 14.6615 44.643 14.7585C44.643 14.8556 44.6005 14.9466 44.5398 14.9769C44.4792 15.0072 44.2548 15.0921 44.0364 15.1649C43.7695 15.2559 43.4298 15.3105 42.9749 15.3287C42.611 15.3469 42.0772 15.3287 41.7921 15.2923C41.507 15.2559 40.949 15.1407 40.5487 15.0376C40.1483 14.9344 39.7116 14.807 39.5782 14.7464C39.4447 14.6857 39.2931 14.5947 39.2446 14.5341C39.196 14.4795 39.1657 14.4249 39.1839 14.4188C39.2021 14.4067 39.6388 14.2611 40.1544 14.0913C40.67 13.9153 41.2705 13.7455 41.4888 13.7152C41.7072 13.6788 41.9923 13.6424 42.1257 13.6302C42.2592 13.6181 42.5624 13.6181 42.7929 13.6302ZM59.2308 27.7518C59.8495 27.764 60.3408 27.8125 60.7775 27.9035C61.1293 27.9763 61.5357 28.0794 61.6873 28.1401C61.839 28.1947 62.021 28.2796 62.0877 28.3281C62.2029 28.407 62.0816 28.4252 60.9049 28.4616C60.1831 28.4858 59.3096 28.5465 58.9578 28.6011C58.606 28.6496 58.0601 28.7588 57.7447 28.8376C57.4293 28.9226 56.8288 29.1106 56.4103 29.2562C55.9917 29.4079 55.373 29.6384 55.0334 29.7779C54.6876 29.9113 54.3965 30.0266 54.3783 30.0266C54.3601 30.0266 54.3783 29.9659 54.4207 29.8931C54.4571 29.8143 54.6573 29.5777 54.8575 29.3654C55.0637 29.1531 55.3912 28.8619 55.5914 28.7224C55.7916 28.5768 56.1616 28.3645 56.4103 28.2492C56.6589 28.1279 57.0411 27.9884 57.2594 27.9338C57.4778 27.8792 57.8053 27.8125 57.9873 27.7822C58.1693 27.7518 58.7334 27.7397 59.2308 27.7518ZM41.0036 28.2432C41.5738 28.2614 42.0772 28.3099 42.429 28.3888C42.7323 28.4555 43.1508 28.5768 43.3692 28.6617C43.5875 28.7406 43.9333 28.9226 44.1456 29.056C44.3518 29.1895 44.5338 29.3169 44.5459 29.3472C44.558 29.3715 44.1152 29.3897 43.5633 29.3957C42.8536 29.3957 42.3744 29.4321 41.9741 29.511C41.6587 29.5656 40.6336 29.8325 39.6995 30.0994C38.7654 30.3602 37.7827 30.621 37.5159 30.6817C37.1822 30.7545 36.7576 30.7848 36.1511 30.7848C35.3383 30.7848 35.2473 30.7727 34.944 30.6332C34.7681 30.5483 34.5862 30.4451 34.5498 30.4027C34.5012 30.342 34.5316 30.2753 34.6953 30.1115C34.8106 29.9902 35.1139 29.7718 35.3626 29.6141C35.6112 29.4564 36.054 29.2259 36.3513 29.1046C36.6424 28.9772 37.1458 28.7952 37.4734 28.6981C37.7949 28.6011 38.4014 28.4676 38.82 28.3948C39.2385 28.3281 39.6995 28.2614 39.8511 28.2432C40.0028 28.2311 40.5183 28.2311 41.0036 28.2432ZM65.0174 29.4988C65.0356 29.511 65.448 29.7536 65.9333 30.0266C66.4185 30.3056 67.0069 30.6574 67.2374 30.803C67.4739 30.9547 67.8803 31.2398 68.1472 31.446C68.4141 31.6462 68.8751 32.0465 69.1723 32.3316C69.4635 32.6168 70.0154 33.187 70.3854 33.6055C70.7615 34.0241 71.2286 34.57 71.4287 34.8187C71.6289 35.0674 71.9807 35.5345 72.2051 35.8499C72.4356 36.1653 72.8359 36.7901 73.0968 37.233C73.3576 37.6697 73.7397 38.3612 73.9399 38.7616C74.1401 39.1619 74.4676 39.8656 74.6617 40.3266C74.8558 40.7816 75.1955 41.6733 75.4138 42.3102C75.6261 42.9471 75.9052 43.8449 76.0204 44.312C76.1417 44.779 76.2934 45.4038 76.3601 45.7071C76.4268 46.0104 76.5481 46.6474 76.633 47.1326C76.7119 47.6179 76.8089 48.2548 76.8453 48.5581C76.8878 48.8614 76.9302 49.2133 76.9484 49.3467C76.9666 49.4802 77.0152 50.1474 77.0637 50.8329C77.1122 51.5183 77.1547 52.501 77.1547 53.0166C77.1547 53.5322 77.1243 54.4057 77.094 54.9577C77.0637 55.5097 77.003 56.2619 76.9727 56.6259C76.9363 56.9898 76.8514 57.7299 76.7847 58.2637C76.7179 58.7975 76.5966 59.6467 76.5117 60.1442C76.4329 60.6476 76.2873 61.4665 76.1902 61.9639C76.0871 62.4674 75.9537 63.1347 75.8809 63.4501C75.8142 63.7655 75.6565 64.4085 75.5412 64.8756C75.426 65.3427 75.1955 66.1919 75.0317 66.7561C74.8679 67.3202 74.5828 68.2362 74.3948 68.7882C74.2068 69.3402 73.8853 70.2015 73.6851 70.6989C73.485 71.2024 73.1028 72.0456 72.842 72.5794C72.5812 73.1132 72.1869 73.8351 71.9686 74.1869C71.7441 74.5387 71.3317 75.1392 71.0405 75.5214C70.6887 75.9885 70.0458 76.6921 69.0874 77.6445C68.1412 78.5969 67.1767 79.4764 64.7626 81.4964L64.2713 81.3872C64.0044 81.3265 63.5616 81.2113 63.2947 81.1324C63.0278 81.0536 62.4941 80.8595 62.1119 80.7078C61.7298 80.5562 61.1536 80.2893 60.8382 80.1194C60.5227 79.9556 60.0436 79.6705 59.7767 79.4946C59.5098 79.3187 59.0488 78.9608 58.7455 78.706C58.4483 78.4452 57.9873 78.0024 57.7204 77.7112C57.4596 77.4261 57.1139 77.0136 56.9501 76.7953C56.7863 76.5769 56.4891 76.0734 56.2889 75.673C56.0706 75.2363 55.8462 74.654 55.7188 74.2172C55.6035 73.8169 55.4701 73.2042 55.4155 72.8524C55.367 72.5005 55.3063 71.8757 55.282 71.4572C55.2639 71.0326 55.276 70.244 55.3124 69.6677C55.3548 69.1036 55.4519 68.1452 55.5368 67.5446C55.6217 66.9441 55.8098 65.8644 55.9614 65.1486C56.113 64.4328 56.3314 63.4744 56.4466 63.0255C56.5619 62.5766 56.8045 61.7031 56.9865 61.0844C57.1685 60.4656 57.4657 59.5133 57.6476 58.9613C57.8296 58.4093 58.1875 57.4569 58.4422 56.8382C58.6909 56.2195 59.0488 55.4733 59.2247 55.17C59.4067 54.8667 59.8616 54.1874 60.2377 53.6536C60.6137 53.1198 61.2324 52.2341 61.6146 51.6821C61.9906 51.1301 62.4152 50.4932 62.5547 50.2566C62.6882 50.0261 62.9247 49.5894 63.0703 49.2861C63.2219 48.9828 63.4342 48.4975 63.5495 48.1942C63.6647 47.8909 63.8103 47.442 63.871 47.1933C63.9377 46.9446 64.1136 46.1621 64.2592 45.4645C64.4108 44.7669 64.7141 43.5355 64.9324 42.7348C65.1508 41.9341 65.3874 41.0181 65.4541 40.7027C65.5269 40.3873 65.5936 39.8413 65.6118 39.4895C65.63 39.1255 65.6179 38.5917 65.5754 38.246C65.5329 37.9123 65.4723 37.5181 65.4359 37.3664C65.3995 37.2148 65.2236 36.5778 65.0477 35.9409C64.8657 35.304 64.702 34.661 64.6777 34.5033C64.6352 34.2424 64.6413 34.2182 64.7808 34.1514C64.8657 34.115 65.0841 33.9695 65.2661 33.8299C65.448 33.6965 65.6725 33.5145 65.7695 33.4296C65.8787 33.3244 65.9333 33.2112 65.9333 33.0899C65.9333 32.914 65.9272 32.9079 65.7089 32.9443C65.5815 32.9625 65.2903 33.0838 65.0538 33.2173C64.8233 33.3447 64.6049 33.466 64.5685 33.4781C64.5261 33.4963 64.526 33.3568 64.5503 33.0838C64.5746 32.8533 64.6413 32.4226 64.6898 32.1193C64.7444 31.816 64.8233 31.2337 64.8718 30.8152C64.9203 30.3966 64.9628 29.9235 64.9688 29.7657C64.9749 29.602 64.9931 29.4867 65.0174 29.4988ZM59.4431 32.7805C60.0254 32.7987 60.6623 32.8473 60.9595 32.9079C61.2446 32.9625 61.6691 33.0596 61.8996 33.1324C62.1362 33.1991 62.5001 33.3447 62.7185 33.4599C62.9369 33.5691 63.1977 33.745 63.4767 34.0301L63.1431 34.1757C62.9611 34.2546 62.5365 34.4062 62.2029 34.5033C61.8693 34.6064 61.3901 34.7338 61.1414 34.7823C60.8927 34.8308 60.4439 34.9158 60.1406 34.9643C59.8434 35.0128 59.2793 35.0856 58.8972 35.1281C58.515 35.1705 57.5445 35.2069 56.7439 35.2069C55.7794 35.213 55.1789 35.1887 54.9727 35.1402C54.7968 35.0977 54.6512 35.0431 54.6512 35.0189C54.6512 34.9885 54.7725 34.8248 54.912 34.6428C55.0516 34.4669 55.3063 34.206 55.4701 34.0665C55.6399 33.927 55.8947 33.7268 56.0463 33.6237C56.198 33.5206 56.4285 33.3871 56.5619 33.3204C56.6953 33.2537 56.9804 33.1384 57.1988 33.0596C57.4171 32.9868 57.7871 32.8897 58.0176 32.8412C58.3088 32.7866 58.7576 32.7684 59.4431 32.7805ZM34.9562 34.5943C35.0289 34.6125 35.2412 34.6489 35.4232 34.6671C35.6052 34.6913 35.9085 34.7338 36.0904 34.7702C36.2724 34.8066 36.7273 34.9704 37.0913 35.1341C37.4613 35.304 38.0193 35.5042 38.3347 35.583C38.6501 35.6679 39.2264 35.7589 39.6085 35.7953C39.9906 35.8257 40.5911 35.8378 40.9429 35.8196C41.2947 35.7953 42.0711 35.7286 42.6716 35.6619C43.2721 35.5951 43.7938 35.5527 43.8241 35.5648C43.8605 35.583 43.6785 35.6922 43.4298 35.8075C43.1811 35.9227 42.7444 36.0744 42.4593 36.1472C42.1742 36.2139 41.7133 36.2988 41.4282 36.3352C41.1431 36.3655 40.6275 36.3959 40.2757 36.3959C39.9239 36.3959 39.4083 36.3655 39.1232 36.3352C38.8382 36.2988 38.3893 36.226 38.1224 36.1775C37.8555 36.1229 37.4188 36.0137 37.1519 35.9288C36.885 35.8438 36.4362 35.6619 36.1511 35.5224C35.866 35.3828 35.4657 35.1402 35.2594 34.9825C35.0471 34.8248 34.8652 34.6671 34.853 34.6307C34.8348 34.5821 34.8712 34.57 34.9562 34.5943ZM32.7907 35.2555C32.8029 35.2676 32.8393 35.9591 32.8757 36.7901C32.9161 37.8011 32.9747 38.5189 33.0516 38.9436C33.1183 39.2954 33.2275 39.8959 33.3002 40.2781C33.367 40.6602 33.464 41.4791 33.5125 42.0979C33.5671 42.7166 33.646 43.7114 33.7006 44.312C33.7491 44.9125 33.8462 45.7071 33.9068 46.0711C33.9735 46.435 34.0948 46.9749 34.1798 47.2721C34.2647 47.5633 34.4285 48.0001 34.5498 48.2427C34.6771 48.4793 34.9319 48.8978 35.1321 49.1647C35.3262 49.4316 36.0298 50.2505 36.6909 50.9845C37.4491 51.8216 38.4257 52.8104 39.3113 53.6354C40.0937 54.3633 41.1006 55.2489 41.5495 55.6068C41.9983 55.9708 42.7383 56.5228 43.1872 56.8443C43.6361 57.1658 44.2669 57.5904 44.5823 57.7905C44.8977 57.9907 45.4618 58.3183 45.8257 58.5185C46.1958 58.7186 46.7113 58.9795 46.9782 59.0947C47.2451 59.21 47.6697 59.3859 47.9184 59.4708C48.1671 59.5618 48.622 59.6892 48.9192 59.7559C49.2225 59.8166 49.4712 59.8772 49.4773 59.8894C49.4833 59.8954 49.4227 60.6537 49.3377 61.5697C49.2589 62.4856 49.1618 63.8262 49.1254 64.542C49.0891 65.2578 49.0709 66.3072 49.0951 66.8774C49.1133 67.4415 49.174 68.2483 49.2286 68.6668C49.2832 69.0854 49.3741 69.6677 49.4409 69.971C49.5076 70.2743 49.6532 70.7899 49.7623 71.1236C49.8776 71.4572 50.0535 71.9061 50.1627 72.1244C50.2719 72.3428 50.4781 72.7007 50.6237 72.9312C50.7692 73.1557 51.0725 73.5257 51.303 73.7501C51.5881 74.0413 51.8428 74.2293 52.1643 74.3871C52.413 74.5084 52.783 74.654 52.9832 74.7025C53.1833 74.751 53.5655 74.8238 53.8324 74.8541C54.0993 74.8905 54.5906 74.9148 55.5307 74.9148L55.6157 75.1696C55.6581 75.3152 55.8037 75.6488 55.9371 75.9157C56.0766 76.1826 56.3799 76.6861 56.6165 77.0379C56.9016 77.4564 57.314 77.9417 57.8357 78.4634C58.2724 78.9001 58.8426 79.4097 59.1095 79.5977C59.3763 79.7858 59.8252 80.0648 60.1103 80.2225C60.3954 80.3802 60.9109 80.6289 61.2627 80.7806C61.6146 80.9322 62.3667 81.2113 62.9308 81.3993C63.501 81.5934 64.0287 81.7876 64.2652 81.9089L63.9923 82.1515C63.8406 82.2789 63.5131 82.5337 63.2644 82.7096C63.0157 82.8855 62.6578 83.1039 62.4759 83.1888C62.2939 83.2737 61.9785 83.3829 61.7783 83.4375C61.5782 83.486 61.099 83.5467 60.7168 83.5649C60.3347 83.5891 59.3581 83.5709 58.5514 83.5346C57.7386 83.4982 56.756 83.4254 56.3678 83.3768C55.9735 83.3222 55.3791 83.2252 55.0455 83.1585C54.7119 83.0857 54.2206 82.9644 53.9537 82.8794C53.6868 82.7945 53.2804 82.6368 53.0438 82.5276C52.8133 82.4123 52.5404 82.2607 52.2674 82.0423L52.5222 81.7087C52.6617 81.5267 52.8679 81.181 52.9892 80.9504C53.1045 80.7199 53.2379 80.3742 53.2865 80.1922C53.335 80.0102 53.3774 79.6402 53.3774 79.3733C53.3774 79.1064 53.335 78.7364 53.2865 78.5544C53.2379 78.3724 53.1227 78.0752 53.0317 77.8932C52.9347 77.7173 52.7284 77.4201 52.5586 77.2381C52.3706 77.0318 52.1279 76.8438 51.9217 76.7467C51.6427 76.6193 51.5335 76.6011 51.2848 76.6315C51.1028 76.6557 50.8845 76.7407 50.7389 76.8438C50.6055 76.9348 50.4053 77.1471 50.2961 77.3109C50.1869 77.4807 50.0535 77.7537 49.9989 77.9175C49.9504 78.0873 49.8897 78.4937 49.8776 78.8274C49.8594 79.1974 49.8715 79.5674 49.92 79.7676C49.9625 79.9496 50.0717 80.265 50.1748 80.4652C50.2718 80.6653 50.5691 81.09 50.8299 81.4054C51.0968 81.7208 51.3151 81.9999 51.3151 82.0302C51.3151 82.0545 51.2242 82.109 51.121 82.1576C51.0119 82.2 50.6782 82.2971 50.375 82.376C49.9807 82.4791 49.5864 82.5215 48.9495 82.5458C48.2823 82.5701 47.9184 82.5458 47.4331 82.4669C47.0813 82.4123 46.4566 82.2546 46.038 82.1212C45.6195 81.9877 44.9523 81.733 44.552 81.557C44.1516 81.3811 43.5269 81.096 43.1569 80.9201C42.7929 80.7442 42.2834 80.5076 42.0347 80.3924C41.786 80.2711 41.2947 80.0588 40.9429 79.9132C40.5911 79.7737 39.9785 79.5613 39.5782 79.44C39.1778 79.3248 38.5652 79.1913 38.2134 79.1367C37.8616 79.0821 37.3521 79.0397 37.0791 79.0397C36.8001 79.0397 36.3634 79.07 36.1086 79.1064C35.8478 79.1428 35.4293 79.2338 35.1806 79.3126C34.9319 79.3915 34.5498 79.5371 34.3314 79.6341C34.113 79.7373 33.7066 79.9496 33.4216 80.1133C33.1365 80.2771 32.5906 80.6047 32.2084 80.8413C31.8263 81.0778 31.2379 81.4054 30.9043 81.5752C30.5707 81.7451 30.0127 81.9756 29.6609 82.0969C29.3091 82.2122 28.8784 82.3274 28.6964 82.3577C28.3932 82.4063 28.3689 82.4002 28.2779 82.2546C28.2294 82.1697 28.0656 81.9089 27.914 81.6784C27.7623 81.4479 27.5622 81.1203 27.2892 80.6472L27.4591 80.4773C27.55 80.3802 27.8351 80.1619 28.0838 79.986C28.3325 79.81 28.8117 79.5007 29.1453 79.3005C29.4789 79.1003 30.4494 78.5605 31.2986 78.0994C32.1478 77.6384 33.2275 77.0379 33.6945 76.7589C34.1616 76.4859 34.847 76.0491 35.2109 75.7883C35.5809 75.5275 36.1511 75.0968 36.4847 74.8299C36.8122 74.5569 37.3218 74.1202 37.6068 73.8533C37.8919 73.5864 38.4378 73.0404 38.8139 72.6401C39.196 72.2397 39.7359 71.627 40.0149 71.2752C40.2939 70.9234 40.7792 70.2561 41.0885 69.7891C41.3979 69.322 41.9074 68.4909 42.2106 67.9389C42.5139 67.3869 42.9264 66.5559 43.1265 66.0888C43.3267 65.6217 43.5997 64.9241 43.7392 64.542C43.8726 64.1598 44.097 63.4926 44.2305 63.0558C44.3579 62.6191 44.5398 61.9518 44.6248 61.5697C44.7461 61.0176 44.7825 60.6962 44.7885 60.0228C44.7946 59.4466 44.7703 59.1311 44.7218 59.0401C44.6793 58.9613 44.6187 58.9006 44.5823 58.9006C44.552 58.9006 44.4731 58.9491 44.4125 59.0098C44.3275 59.0887 44.2911 59.2585 44.2548 59.8105C44.2305 60.1927 44.1456 60.9206 44.0607 61.418C43.9757 61.9215 43.812 62.6555 43.6967 63.0558C43.5693 63.4926 43.3267 64.1052 43.1023 64.5723C42.89 65.0091 42.4411 65.7734 42.1075 66.2708C41.7497 66.8107 41.1067 67.6478 40.5183 68.3332C39.9785 68.9701 39.2991 69.7284 39.0141 70.0256C38.7229 70.3289 37.9041 71.0204 37.1822 71.5785C36.4665 72.1305 35.6052 72.7796 35.2716 73.0161C34.938 73.2527 34.4345 73.5803 34.1494 73.738C33.8644 73.9018 32.8271 74.3992 31.8445 74.8481C30.8619 75.297 29.7276 75.8186 29.3273 76.0067C28.9269 76.1947 28.1202 76.6133 27.5379 76.9348C26.7858 77.3473 26.4643 77.4989 26.434 77.4443C26.4097 77.4018 26.3854 77.0561 26.3854 76.6739C26.3854 76.2918 26.4279 75.7155 26.4704 75.4001C26.5189 75.0846 26.6341 74.5205 26.7191 74.1566C26.804 73.7926 27.0163 73.0647 27.1861 72.5491C27.3559 72.0335 27.6835 71.1296 27.914 70.5473C28.1505 69.965 28.5873 68.9277 28.8845 68.2422C29.1878 67.5568 29.5456 66.7682 29.673 66.4831C29.8065 66.198 30.1158 65.5004 30.3584 64.9363C30.601 64.3721 30.8861 63.6624 30.9953 63.3591C31.0984 63.0558 31.2622 62.4977 31.3532 62.1156C31.4502 61.7334 31.5715 61.1996 31.6322 60.9327C31.6929 60.6658 31.8748 60.0653 32.0386 59.5982C32.2084 59.1311 32.4207 58.476 32.5178 58.1424C32.6148 57.8087 32.7665 57.2082 32.8514 56.8079C32.9363 56.4075 33.0516 55.7281 33.1183 55.2914C33.1789 54.8607 33.2639 54.066 33.3063 53.5322C33.3548 52.9135 33.367 52.0097 33.3427 51.0452C33.3245 50.2141 33.2639 49.1344 33.2093 48.6491C33.1547 48.1638 33.0455 47.3207 32.9606 46.7687C32.8817 46.2167 32.7119 45.3189 32.5966 44.7669C32.4814 44.2149 32.2934 43.4142 32.1781 42.9774C32.0629 42.5468 31.8748 41.8613 31.7535 41.4609C31.6322 41.0606 31.4381 40.4601 31.3168 40.1264C31.2015 39.7928 30.9832 39.1862 30.8376 38.7798C30.692 38.3673 30.5707 37.973 30.5707 37.9002C30.5707 37.8032 30.7527 37.5909 31.1833 37.1844C31.5958 36.8023 31.9658 36.3777 32.2873 35.9227C32.5542 35.5466 32.7847 35.2494 32.7907 35.2555ZM30.2492 38.5796C30.2674 38.5796 30.3524 38.7373 30.4373 38.9314C30.5161 39.1195 30.7709 39.8353 30.9953 40.5207C31.2197 41.2062 31.5594 42.3648 31.7414 43.0988C31.9294 43.8327 32.1478 44.8033 32.2327 45.2522C32.3176 45.7011 32.4268 46.3137 32.4814 46.617C32.5299 46.9203 32.627 47.5876 32.6876 48.1032C32.7543 48.6188 32.8393 49.5226 32.8817 50.105C32.9242 50.7358 32.9363 51.7549 32.9181 52.6223C32.8999 53.423 32.8393 54.4179 32.7847 54.8364C32.7301 55.255 32.633 55.8676 32.5724 56.2013C32.5057 56.5349 32.3843 57.0505 32.2934 57.3538C32.2084 57.6571 32.0993 57.9665 32.0568 58.0514C31.9901 58.1848 31.9779 58.0696 31.9415 57.2325C31.9233 56.6987 31.9052 55.8373 31.9052 55.3217C31.9052 54.8061 31.8809 53.8234 31.8445 53.1379C31.8142 52.4525 31.7596 51.5123 31.7232 51.0452C31.6868 50.5781 31.6019 49.6379 31.5352 48.9524C31.4684 48.267 31.3593 47.26 31.2925 46.708C31.2258 46.156 31.0924 45.1066 30.9892 44.3726C30.8922 43.6386 30.6981 42.3708 30.5707 41.5519C30.4373 40.733 30.3038 39.8353 30.2674 39.5502C30.2371 39.2651 30.2068 38.9314 30.2068 38.8101C30.2068 38.6827 30.225 38.5796 30.2492 38.5796ZM29.7033 38.7009C29.764 38.7009 29.7943 38.8162 29.8186 39.1134C29.8368 39.3379 29.9035 39.9445 29.9702 40.4601C30.0369 40.9757 30.225 42.2859 30.3888 43.3717C30.5525 44.4575 30.7588 45.9012 30.8437 46.5867C30.9225 47.2721 31.062 48.5157 31.147 49.3467C31.2319 50.1838 31.3592 51.67 31.432 52.6527C31.523 53.9447 31.5594 55.0184 31.5594 56.5046C31.5655 58.1606 31.5412 58.7126 31.4563 59.2949C31.3956 59.6953 31.2986 60.1866 31.2319 60.3868C31.1652 60.587 31.0135 60.9267 30.8922 61.145C30.7769 61.3634 30.4737 61.8548 30.225 62.2369C29.9702 62.6191 29.4486 63.3167 29.0604 63.7837C28.6782 64.2508 27.8533 65.2214 27.2346 65.9372C26.6099 66.6529 25.791 67.6356 25.4028 68.1209C25.0207 68.6062 24.4869 69.3038 24.2261 69.6677C23.9592 70.0317 23.5285 70.6747 23.2616 71.0932C23.0008 71.5118 22.558 72.2882 22.2851 72.822C22.0061 73.3558 21.7028 74.0049 21.5997 74.2657C21.4966 74.5205 21.3813 74.8602 21.3449 75.024C21.3146 75.1817 21.2418 75.6912 21.1993 76.1583C21.1508 76.6254 21.1084 77.3897 21.1084 77.8568C21.1084 78.3239 21.1387 79.0215 21.1751 79.4036C21.2054 79.7858 21.2782 80.3439 21.3267 80.6472C21.3752 80.9504 21.4723 81.4236 21.539 81.7087C21.6118 81.9938 21.7331 82.4427 21.818 82.7096C21.8969 82.9765 22.1274 83.5224 22.3215 83.9228C22.5156 84.3231 22.8371 84.8933 23.0312 85.1966C23.2313 85.4999 23.5589 85.9488 23.759 86.1975C23.9592 86.4462 24.3656 86.883 24.6628 87.1681C24.96 87.4532 25.4392 87.8475 25.7182 88.0476C26.0033 88.2478 26.4825 88.539 26.7797 88.6967C27.083 88.8544 27.544 89.0607 27.8109 89.1577C28.0777 89.2548 28.5691 89.4004 29.5092 89.6187L29.2666 89.7218C29.1332 89.7825 28.8056 89.8614 28.5387 89.8978C28.2597 89.9402 27.8594 89.9524 27.5986 89.9281C27.3499 89.9038 26.9556 89.8492 26.7191 89.8007C26.4886 89.7522 26.0215 89.6187 25.6879 89.5035C25.3543 89.3943 24.8084 89.1698 24.4748 89.0182C24.1412 88.8665 23.5528 88.5511 23.1707 88.3206C22.7885 88.0962 22.2123 87.7261 21.8969 87.4956C21.5815 87.2712 21.1144 86.9194 20.8657 86.7192C20.617 86.5129 20.1136 86.0641 19.7497 85.7122C19.3857 85.3604 18.9126 84.8569 18.7003 84.59C18.488 84.3231 18.1605 83.8621 17.9724 83.5588C17.7844 83.2555 17.4447 82.6429 17.2203 82.194C16.9959 81.7451 16.6744 81.0354 16.5106 80.6168C16.3468 80.1983 16.1224 79.5856 16.0254 79.252C15.9223 78.9183 15.7524 78.3178 15.6554 77.9175C15.5522 77.5171 15.4188 76.8862 15.3521 76.5223C15.2854 76.1583 15.1883 75.4607 15.1277 74.9755C15.0427 74.29 15.0185 73.6349 15.0124 72.0335C15.0124 70.7475 15.0427 69.6859 15.0913 69.2128C15.1337 68.7942 15.2247 68.0602 15.2914 67.575C15.3581 67.0897 15.4552 66.4528 15.5037 66.1495C15.5522 65.8462 15.6796 65.1971 15.7827 64.6936C15.8798 64.1962 16.086 63.2924 16.2316 62.6919C16.3832 62.0913 16.6016 61.2724 16.7168 60.8721C16.8321 60.4717 17.0323 59.8166 17.1657 59.4162C17.2931 59.0159 17.5357 58.3062 17.6995 57.8391C17.8632 57.372 18.1362 56.6501 18.306 56.2316C18.4698 55.813 18.7246 55.2004 18.8641 54.8668C19.0096 54.5331 19.4039 53.6718 19.7375 52.956C20.0772 52.2402 20.6352 51.1362 20.981 50.4992C21.3267 49.8623 21.9393 48.8008 22.3397 48.1335C22.74 47.4663 23.3162 46.5503 23.6135 46.1014C23.9167 45.6525 24.4081 44.9428 24.7113 44.5243C25.0085 44.1057 25.4999 43.4506 25.8031 43.0684C26.1004 42.6863 26.6463 42.0069 27.0163 41.558C27.3863 41.1091 28.1263 40.2841 28.654 39.72C29.1878 39.1619 29.6609 38.7009 29.7033 38.7009ZM36.1693 44.3423C36.2178 44.3908 36.5029 44.7366 36.8001 45.1005C37.0973 45.4645 37.5765 46.059 37.8677 46.4229C38.1588 46.7808 38.4318 47.1812 38.4742 47.3146C38.5106 47.4481 38.5227 47.5754 38.4985 47.5997C38.4742 47.624 38.3226 47.6118 38.1649 47.5694C38.0072 47.5209 37.8009 47.4177 37.6978 47.3328C37.6008 47.2479 37.3945 47.0234 37.2429 46.8354C37.0913 46.6474 36.8426 46.2531 36.6849 45.9498C36.5332 45.6465 36.3331 45.1915 36.2481 44.9367C36.1632 44.6759 36.0904 44.4151 36.0904 44.3605C36.0904 44.2634 36.0965 44.2634 36.1693 44.3423ZM62.9369 44.8276C62.9429 44.8276 62.9065 44.9185 62.858 45.0277C62.8034 45.1309 62.5062 45.6586 62.1847 46.1924C61.8693 46.7262 61.4993 47.2782 61.3598 47.4238C61.2203 47.5633 61.0323 47.7028 60.9291 47.7332C60.8321 47.7574 60.729 47.7696 60.7047 47.7635C60.6744 47.7514 60.6562 47.6664 60.6562 47.5754C60.6562 47.4784 60.729 47.2479 60.826 47.0538C60.917 46.8597 61.1414 46.5321 61.3234 46.3259C61.5054 46.1196 61.9421 45.695 62.2878 45.3917C62.6336 45.0823 62.9247 44.8276 62.9369 44.8276ZM58.4604 55.5461C58.4665 55.5704 58.2603 56.1527 57.9994 56.8382C57.7326 57.5236 57.4353 58.3122 57.3322 58.5973C57.2291 58.8824 57.0653 59.3738 56.9622 59.6892C56.8591 60.0046 56.6953 60.5506 56.5983 60.9024C56.4952 61.2542 56.2768 62.0974 56.113 62.7828C55.9432 63.4683 55.6884 64.639 55.5368 65.3912C55.3791 66.1434 55.1789 67.3141 55.0758 67.9996C54.9788 68.685 54.8696 69.5949 54.8332 70.0317C54.8029 70.4684 54.7725 71.1478 54.7725 71.5482C54.7725 71.9485 54.8029 72.5066 54.8332 72.7917C54.8696 73.0768 54.9666 73.5378 55.0576 73.8229C55.1425 74.108 55.2214 74.3749 55.2335 74.4174C55.2517 74.472 55.1183 74.4902 54.6998 74.4902C54.3904 74.4902 53.9173 74.4538 53.6504 74.4053C53.3835 74.3567 53.0317 74.2718 52.8619 74.2172C52.6981 74.1566 52.4615 74.0656 52.3463 74.0049C52.231 73.9442 51.9884 73.7865 51.8186 73.647C51.6427 73.5136 51.3576 73.1981 51.1878 72.9616C51.0179 72.7189 50.7268 72.2154 50.5509 71.8515C50.3628 71.4572 50.1445 70.8749 50.0171 70.426C49.9079 70.0074 49.7684 69.3826 49.7138 69.0308C49.6592 68.679 49.5864 68.0784 49.5561 67.6963C49.5258 67.3141 49.4954 66.5074 49.4954 65.9068C49.4954 65.3063 49.5258 64.4085 49.5561 63.9051C49.5925 63.4076 49.6714 62.4371 49.7381 61.7516C49.8048 61.0662 49.8715 60.3929 49.8897 60.2533C49.92 59.9986 49.9261 59.9925 50.1505 59.9925C50.2718 59.9925 50.6297 59.95 50.9391 59.9015C51.2423 59.853 51.7519 59.7317 52.0612 59.6346C52.3645 59.5315 52.9589 59.2828 53.3774 59.0705C53.796 58.8582 54.4207 58.5003 54.7725 58.2637C55.1243 58.0332 55.9432 57.4448 56.5922 56.9534C57.2412 56.4682 57.9267 55.9404 58.1086 55.7827C58.2906 55.625 58.4483 55.5219 58.4604 55.5461ZM42.0711 67.211C42.0772 67.211 42.0408 67.3263 41.9923 67.4718C41.9438 67.6114 41.78 67.9571 41.6283 68.2422C41.4767 68.5273 41.2159 68.9641 41.046 69.2128C40.8762 69.4615 40.5911 69.874 40.4031 70.1227C40.2211 70.3714 39.8329 70.8506 39.5539 71.1842C39.2688 71.5179 38.6137 72.2154 38.0921 72.7371C37.5765 73.2588 36.8547 73.9442 36.4847 74.2597C36.1208 74.569 35.5445 75.024 35.2109 75.2606C34.8773 75.4971 34.2889 75.8793 33.9068 76.1098C33.5247 76.3403 32.5845 76.8802 31.8142 77.3109C31.0499 77.7355 30.134 78.2511 29.7822 78.4513C29.4304 78.6514 28.7632 79.07 28.2961 79.3733C27.8291 79.6827 27.3559 79.9738 27.2528 80.0284C27.1436 80.0891 27.0405 80.1255 27.0284 80.1194C27.0102 80.1073 26.9313 79.895 26.8464 79.6463C26.7615 79.3976 26.6523 79.0154 26.6038 78.797C26.5492 78.5787 26.5068 78.336 26.5068 78.2511C26.5068 78.1419 26.5795 78.0448 26.7918 77.8811C26.9556 77.7658 27.3438 77.505 27.6592 77.3109C27.9746 77.1167 28.5933 76.7831 29.024 76.5769C29.4607 76.3706 30.3584 75.9642 31.0256 75.673C31.6929 75.3819 32.633 74.9451 33.1183 74.7025C33.6035 74.4599 34.2829 74.0898 34.6347 73.8836C34.9865 73.6713 35.5203 73.3376 35.8175 73.1375C36.1208 72.9373 36.6363 72.5673 36.9699 72.3125C37.3036 72.0638 37.9586 71.5421 38.4257 71.1539C38.8927 70.7657 39.5418 70.1591 39.8632 69.8133C40.1847 69.4676 40.6578 68.9398 40.9126 68.6365C41.1734 68.3332 41.5313 67.8904 41.7193 67.6538C41.9074 67.4112 42.0651 67.211 42.0711 67.211ZM51.4304 77.0986C51.6063 77.1046 51.7943 77.1532 51.9399 77.2381C52.0794 77.3169 52.2735 77.5232 52.413 77.7355C52.5465 77.9357 52.7102 78.2511 52.783 78.4331C52.8558 78.6272 52.9165 78.9851 52.9347 79.2823C52.9589 79.6463 52.9407 79.9071 52.8679 80.1801C52.8133 80.3863 52.7042 80.6835 52.6253 80.8473C52.5465 81.005 52.3645 81.2659 52.2189 81.4297C51.9884 81.6844 51.9278 81.7208 51.7883 81.6844C51.6912 81.6662 51.4546 81.4903 51.2484 81.3023C50.9815 81.0475 50.8238 80.8291 50.6782 80.5258C50.5691 80.2953 50.4538 79.9799 50.4174 79.8282C50.381 79.6766 50.3325 79.3915 50.3082 79.1913C50.29 78.9851 50.3022 78.6454 50.3386 78.4027C50.381 78.1722 50.4841 77.8447 50.5751 77.6748C50.6661 77.511 50.8299 77.3109 50.9451 77.2381C51.0907 77.141 51.2423 77.0986 51.4304 77.0986ZM37.2429 79.4946C37.7403 79.5128 38.2923 79.5674 38.638 79.6402C38.9534 79.713 39.475 79.8525 39.7905 79.9556C40.1059 80.0587 40.6518 80.2589 41.0036 80.4045C41.3554 80.544 42.0529 80.8595 42.5503 81.1021C43.0538 81.3387 43.818 81.6966 44.2487 81.8907C44.6854 82.0787 45.3769 82.3517 45.7954 82.4912C46.2139 82.6307 46.8144 82.8006 47.1299 82.8673C47.4695 82.9401 48.0518 83.0068 48.5553 83.025C49.2164 83.0493 49.5258 83.0371 49.9504 82.9522C50.2537 82.8976 50.7753 82.746 51.121 82.6125C51.4607 82.4851 51.7883 82.376 51.8489 82.376C51.9035 82.376 52.0491 82.4366 52.1643 82.5033C52.2796 82.5761 52.5707 82.7338 52.8012 82.8491C53.0378 82.9644 53.4563 83.1403 53.7414 83.2373C54.0265 83.3344 54.542 83.4739 54.8939 83.5527C55.2457 83.6377 55.7248 83.7287 55.9553 83.7651C56.1919 83.8015 56.665 83.8561 57.0168 83.8924C57.3686 83.9288 58.418 83.9531 59.3521 83.9531C60.735 83.947 61.0383 83.9592 60.9837 84.0259C60.9413 84.0684 60.5895 84.2746 60.1952 84.4808C59.7949 84.6871 58.9275 85.0753 58.2603 85.3361C57.5931 85.6031 56.4345 86.0337 55.6824 86.2885C54.9302 86.5433 53.9112 86.8708 53.4078 87.0164C52.9104 87.162 52.1704 87.3622 51.7701 87.4653C51.3697 87.5624 50.7146 87.714 50.3143 87.7989C49.914 87.8839 49.271 88.0052 48.8889 88.0719C48.5068 88.1386 47.7849 88.2478 47.2815 88.3145C46.7841 88.3813 46.032 88.4723 45.6135 88.5147C45.1282 88.5632 44.0364 88.5936 42.5806 88.5936C41.046 88.5936 40.0998 88.5693 39.6691 88.5147C39.3173 88.4662 38.6926 88.3752 38.2741 88.3085C37.8555 88.2418 37.2004 88.1083 36.8183 88.0173C36.4362 87.9203 35.8781 87.7625 35.5749 87.6655C35.2776 87.5624 34.7439 87.3622 34.3921 87.2105C34.0403 87.0589 33.5671 86.8344 33.3306 86.7071C33.1001 86.5797 32.6998 86.3431 32.4511 86.1793C32.2024 86.0095 31.7656 85.6819 31.4806 85.4453C31.2015 85.2088 30.6253 84.6992 30.2128 84.3171C29.7943 83.9349 29.3091 83.4436 29.1332 83.2252C28.9573 83.0068 28.8178 82.8248 28.8299 82.8188C28.836 82.8066 29.1271 82.7035 29.4789 82.5822C29.8307 82.4669 30.4009 82.2425 30.7527 82.0909C31.1045 81.9392 31.5958 81.7087 31.8445 81.5692C32.0932 81.4357 32.6816 81.09 33.1486 80.8109C33.6157 80.5319 34.1737 80.2104 34.3921 80.1012C34.6104 79.992 34.9622 79.8404 35.1806 79.7676C35.399 79.6948 35.769 79.5977 35.9994 79.5492C36.2785 79.4946 36.7031 79.4764 37.2429 79.4946Z" fill="#F6FBFD"/>
<path d="M46.9904 45.1915C47.1238 45.0398 47.3786 44.8457 47.5605 44.7487C47.791 44.6334 47.979 44.5849 48.1913 44.5849C48.3733 44.5849 48.7554 44.6698 49.8291 45.0277L50.3143 44.8882C50.5933 44.8093 50.9633 44.7487 51.1938 44.7487C51.5214 44.7487 51.6487 44.779 51.952 44.9367C52.1522 45.0459 52.504 45.3007 52.7406 45.513C52.9711 45.7253 53.2319 46.0043 53.3107 46.1378C53.3956 46.2652 53.5352 46.4654 53.6322 46.5685C53.7232 46.6777 53.8506 46.8657 54.0143 47.2054L54.3783 47.1751C54.5784 47.1508 54.906 47.1205 55.1061 47.0962C55.4094 47.0598 55.5186 47.072 55.743 47.1811C55.8947 47.2479 56.0463 47.3692 56.0827 47.448C56.1373 47.5572 56.1373 47.624 56.0706 47.7513C56.0221 47.8484 55.8825 47.9697 55.7552 48.0364C55.6339 48.0971 55.4458 48.1699 55.3488 48.1942C55.2517 48.2184 54.9606 48.2609 54.257 48.3155L54.2145 48.6794C54.1963 48.8796 54.1175 49.2072 54.0507 49.4074C53.9779 49.6075 53.8506 49.8805 53.7596 50.0139C53.6747 50.1474 53.5048 50.3779 53.3835 50.5235C53.2622 50.6691 52.9468 50.9542 52.6799 51.1544C52.413 51.3545 52.0309 51.5972 51.8307 51.6882C51.6306 51.7852 51.2363 51.9187 50.9512 51.9915C50.5084 52.1006 50.3204 52.1188 49.6471 52.0885C49.083 52.0703 48.7615 52.0279 48.525 51.9429C48.343 51.8762 48.07 51.7609 47.9184 51.6821C47.7668 51.6032 47.4999 51.4031 47.3179 51.2332C47.1359 51.0634 46.8569 50.7176 46.6992 50.4689C46.5354 50.2202 46.2867 49.7228 46.1472 49.3649C45.9592 48.8917 45.8561 48.7037 45.7651 48.6794C45.6984 48.6673 45.5043 48.6491 45.3405 48.6491C45.1707 48.6491 44.8856 48.6066 44.7036 48.552C44.4913 48.4853 44.2972 48.3761 44.1698 48.2487C44.0243 48.0971 43.9757 47.9879 43.9757 47.8302C43.9757 47.6887 44.0202 47.5754 44.1092 47.4905C44.2366 47.3692 44.2851 47.3631 45.2798 47.448L45.5225 47.1872C45.6559 47.0416 45.9895 46.5927 46.2625 46.1924C46.5354 45.792 46.863 45.3431 46.9904 45.1915Z" fill="#ED0C7E"/>
<path fill-rule="evenodd" clip-rule="evenodd" d="M48.4279 45.0823C48.7676 45.1005 48.9981 45.149 49.1801 45.24C49.3196 45.3128 49.4348 45.3856 49.4348 45.4038C49.4348 45.422 49.3802 45.604 49.3074 45.8102C49.2164 46.0893 49.1922 46.2652 49.2225 46.4653C49.2407 46.617 49.271 46.799 49.2892 46.8718C49.3074 46.9749 49.2832 47.0113 49.2104 47.0113C49.1497 47.0113 48.9556 46.9446 48.7858 46.8596C48.6099 46.7747 48.3551 46.5927 48.2217 46.4471C48.0822 46.3076 47.9366 46.0711 47.882 45.9194C47.8335 45.7678 47.7971 45.5858 47.8032 45.513C47.8092 45.4402 47.8395 45.3067 47.8699 45.2158C47.9305 45.058 47.9366 45.058 48.4279 45.0823V45.0823ZM51.0119 45.1612C51.1938 45.1794 51.3819 45.2279 51.4243 45.2703C51.4668 45.3067 51.5335 45.4402 51.5699 45.5554C51.6063 45.6707 51.6366 45.8769 51.6366 46.0104C51.6427 46.1499 51.5881 46.344 51.5214 46.4653C51.4547 46.5806 51.2909 46.7383 51.1574 46.8111C51.0301 46.89 50.836 46.9506 50.7389 46.9506C50.6419 46.9506 50.5266 46.9264 50.4902 46.9021C50.4478 46.8718 50.4417 46.5927 50.4599 46.0529C50.4902 45.4341 50.5145 45.234 50.5873 45.1854C50.6358 45.149 50.8238 45.1369 51.0119 45.1612V45.1612ZM47.2451 45.6161C47.2633 45.61 47.3118 45.6464 47.3482 45.6889C47.3846 45.7314 47.4877 45.9558 47.5727 46.1924C47.6636 46.4289 47.8153 46.6959 47.9184 46.799C48.0215 46.896 48.1004 46.9992 48.1004 47.0234C48.1004 47.0537 48.0518 47.0719 47.9973 47.0719C47.9366 47.0719 47.7668 46.9992 47.6151 46.9082C47.4635 46.8232 47.2269 46.6534 47.0813 46.5321C46.9358 46.4108 46.8205 46.2773 46.8266 46.2348C46.8266 46.1984 46.9115 46.0407 47.0146 45.8891C47.1238 45.7374 47.2269 45.6161 47.2451 45.6161V45.6161ZM52.134 45.6161C52.1643 45.6161 52.2856 45.6707 52.3948 45.7374C52.4979 45.8042 52.6435 45.9497 52.7102 46.0529C52.777 46.162 52.8497 46.3198 52.8679 46.4047C52.8983 46.5199 52.8558 46.5988 52.6981 46.7565C52.5889 46.8657 52.3827 47.0052 52.2432 47.0719C52.0976 47.1387 51.9156 47.1933 51.8307 47.1933C51.7458 47.1933 51.667 47.1508 51.6488 47.1023C51.6306 47.0477 51.7094 46.9203 51.8307 46.799C51.946 46.6837 52.0612 46.5017 52.0794 46.3865C52.0976 46.2834 52.1037 46.065 52.0915 45.9073C52.0794 45.7374 52.0976 45.6161 52.134 45.6161V45.6161ZM50.0353 45.6768C50.0717 45.6768 50.0838 45.7617 50.0656 45.8709C50.0535 45.9801 50.0171 46.2288 49.9928 46.4289C49.9686 46.6231 49.9322 46.7929 49.9079 46.805C49.8776 46.8172 49.8048 46.7201 49.7381 46.5867C49.6714 46.4532 49.6168 46.2712 49.6228 46.1863C49.6228 46.1014 49.7017 45.9497 49.7987 45.8527C49.8958 45.7556 49.9989 45.6768 50.0353 45.6768V45.6768ZM53.2683 46.8293C53.2925 46.8293 53.4017 47.0052 53.4988 47.2236C53.6019 47.442 53.6686 47.6421 53.6504 47.6785C53.6322 47.7089 53.5594 47.7392 53.4866 47.7392C53.4078 47.7392 53.1834 47.6967 52.9832 47.6421C52.783 47.5936 52.6071 47.539 52.5889 47.5208C52.5707 47.5087 52.7102 47.3449 52.8922 47.1629C53.0742 46.981 53.244 46.8293 53.2683 46.8293ZM46.1776 47.1933C46.22 47.1933 46.3474 47.2721 46.4627 47.357C46.5779 47.448 46.7963 47.5754 47.2209 47.7574L46.9782 47.8666C46.8448 47.9272 46.6082 48.0122 46.1654 48.1335L45.9471 47.9212C45.8318 47.8059 45.7287 47.6967 45.7287 47.6785C45.7226 47.6603 45.8076 47.5451 45.9167 47.4177C46.0199 47.2964 46.1412 47.1933 46.1776 47.1933ZM50.6661 47.3874C50.7692 47.3813 50.8238 47.3995 50.8056 47.448C50.7996 47.4905 50.6783 47.5815 50.5509 47.6482C50.4235 47.7089 50.2355 47.7635 50.1324 47.7574C50.0353 47.7574 49.8533 47.7089 49.7381 47.6543C49.6046 47.5876 49.5501 47.5269 49.5864 47.4966C49.6168 47.4662 49.8412 47.4298 50.0717 47.4177C50.3083 47.4116 50.5691 47.3934 50.6661 47.3874V47.3874ZM51.9096 47.7635C52.0006 47.7877 52.4555 47.9212 53.7717 48.3215L53.7596 48.5945C53.7535 48.7401 53.7171 49.0313 53.6868 49.2375C53.6322 49.559 53.6019 49.6197 53.4988 49.6197C53.4078 49.6197 53.3593 49.559 53.3107 49.3588C53.2743 49.2193 53.1773 48.9888 53.0984 48.8432C53.0075 48.6855 52.8316 48.5096 52.6375 48.3822C52.4616 48.273 52.1886 48.1092 52.0309 48.0182C51.8671 47.9333 51.7397 47.8302 51.7458 47.7938C51.7519 47.7574 51.8186 47.7453 51.9096 47.7635V47.7635ZM44.7036 47.7999C44.8371 47.7999 45.019 47.8363 45.1161 47.8848C45.2071 47.9333 45.3344 48.0304 45.5225 48.2427L45.1767 48.2002C44.9826 48.182 44.7461 48.1092 44.643 48.0425C44.5459 47.9758 44.461 47.8908 44.461 47.8605C44.461 47.8241 44.5702 47.7999 44.7036 47.7999V47.7999ZM49.362 48.1092C49.5319 48.1032 49.6774 48.1214 49.6774 48.1456C49.6774 48.176 49.6107 48.3579 49.5258 48.5581C49.4227 48.8068 49.3741 49.0373 49.3741 49.286C49.3741 49.5105 49.4166 49.741 49.4894 49.8926C49.5501 50.0261 49.6653 50.1959 49.7442 50.2687C49.823 50.3415 49.9928 50.4446 50.1202 50.4932C50.2415 50.5477 50.4053 50.5902 50.4842 50.5902C50.5569 50.5902 50.7086 50.5356 50.8178 50.4689C50.9451 50.39 51.0361 50.2687 51.0786 50.1171C51.121 49.9957 51.1392 49.7167 51.121 49.4983C51.0968 49.1829 51.0422 49.007 50.842 48.6309C50.7025 48.3761 50.6055 48.1456 50.6237 48.1153C50.6419 48.091 50.8542 48.1092 51.0907 48.1517C51.3333 48.1941 51.6791 48.2973 51.8611 48.3761C52.043 48.4611 52.3099 48.643 52.4494 48.7825C52.5889 48.9281 52.7648 49.1768 52.8376 49.3467C52.9104 49.5165 52.9832 49.8198 53.0196 50.4386L52.3948 50.845C52.0491 51.0694 51.6063 51.3181 51.4061 51.397C51.206 51.4758 50.8906 51.579 50.7086 51.6214C50.5266 51.67 50.1445 51.7063 49.8594 51.7063C49.5743 51.7003 49.1922 51.6639 49.0102 51.6214C48.8282 51.579 48.5128 51.4698 48.3127 51.3849C48.1125 51.2939 47.8032 51.0876 47.6273 50.9238C47.4513 50.754 47.2512 50.5114 47.1845 50.3779C47.1238 50.2444 47.0692 50.0139 47.0692 49.8623C47.0692 49.7046 47.1299 49.4619 47.2087 49.286C47.2876 49.1162 47.4695 48.8796 47.6212 48.7522C47.7668 48.6248 47.9973 48.4671 48.1307 48.4065C48.2641 48.3397 48.525 48.2487 48.7069 48.2002C48.8889 48.1517 49.1861 48.1092 49.362 48.1092V48.1092ZM47.3907 48.2305C47.415 48.2245 47.4332 48.2427 47.4332 48.2669C47.4392 48.2973 47.3786 48.3701 47.3058 48.4368C47.233 48.5035 47.051 48.7401 46.9054 48.9645C46.7659 49.195 46.6143 49.3649 46.584 49.3467C46.5536 49.3285 46.493 49.1586 46.4566 48.9645C46.4263 48.7765 46.4141 48.6066 46.4323 48.5884C46.4566 48.5702 46.6689 48.4853 46.9054 48.3943C47.1481 48.3094 47.3604 48.2305 47.3907 48.2305V48.2305ZM50.1809 48.4974C50.2173 48.5096 50.3265 48.6309 50.4235 48.7704C50.5145 48.9039 50.6176 49.1283 50.654 49.2678C50.6843 49.4134 50.7086 49.65 50.6965 49.8016C50.6783 50.0564 50.6661 50.0746 50.4963 50.0928C50.3992 50.1049 50.2355 50.0746 50.1384 50.0321C50.0414 49.9897 49.9261 49.8805 49.8837 49.7834C49.8351 49.6924 49.7987 49.4983 49.7987 49.3467C49.7987 49.195 49.8412 48.9706 49.8958 48.8432C49.9443 48.7219 50.0171 48.5884 50.0474 48.546C50.0778 48.5096 50.1384 48.4853 50.1809 48.4974V48.4974Z" fill="#F6FBFD"/>
<path d="M229.146 32H217.003V22.7197H219.523V29.9434H221.84V22.7197H224.309V29.9434H226.62V22.7197H229.146V32ZM241.208 32H238.37L235.616 27.2964V32H233.096V22.7197H235.616V27.2139L238.269 22.7197H241.024L238.161 27.1504L241.208 32ZM252.794 27.3472C252.794 28.0623 252.707 28.714 252.533 29.3022C252.364 29.8862 252.097 30.3898 251.733 30.813C251.37 31.2362 250.902 31.562 250.331 31.7905C249.759 32.0148 249.076 32.127 248.28 32.127C247.502 32.127 246.827 32.0148 246.255 31.7905C245.688 31.562 245.221 31.2383 244.853 30.8193C244.484 30.3962 244.212 29.8905 244.034 29.3022C243.856 28.714 243.767 28.0581 243.767 27.3345C243.767 26.3696 243.926 25.5317 244.243 24.8208C244.565 24.1056 245.06 23.5534 245.729 23.1641C246.397 22.7705 247.252 22.5737 248.293 22.5737C249.351 22.5737 250.21 22.7705 250.87 23.1641C251.535 23.5576 252.021 24.112 252.33 24.8271C252.639 25.5423 252.794 26.3823 252.794 27.3472ZM246.408 27.3472C246.408 27.9058 246.471 28.3861 246.598 28.7881C246.725 29.1901 246.926 29.499 247.201 29.7148C247.476 29.9307 247.836 30.0386 248.28 30.0386C248.742 30.0386 249.108 29.9307 249.379 29.7148C249.654 29.499 249.85 29.1901 249.969 28.7881C250.092 28.3861 250.153 27.9058 250.153 27.3472C250.153 26.5093 250.013 25.847 249.734 25.3604C249.455 24.8737 248.974 24.6304 248.293 24.6304C247.84 24.6304 247.474 24.7404 247.195 24.9604C246.92 25.1805 246.719 25.4937 246.592 25.8999C246.469 26.3062 246.408 26.7886 246.408 27.3472ZM264.322 32H261.802V24.77H260.031C260.002 25.117 259.961 25.5085 259.911 25.9443C259.86 26.376 259.803 26.8203 259.739 27.2773C259.68 27.7301 259.616 28.166 259.549 28.585C259.481 29.0039 259.411 29.37 259.339 29.6831C259.229 30.1951 259.066 30.6331 258.85 30.9971C258.639 31.361 258.349 31.6403 257.981 31.835C257.613 32.0296 257.139 32.127 256.559 32.127C256.373 32.127 256.199 32.1143 256.038 32.0889C255.878 32.0635 255.723 32.0296 255.575 31.9873V30.0513C255.689 30.0894 255.795 30.1211 255.892 30.1465C255.99 30.1676 256.091 30.1782 256.197 30.1782C256.337 30.1782 256.46 30.138 256.565 30.0576C256.675 29.9772 256.777 29.8016 256.87 29.5308C256.967 29.2599 257.063 28.8431 257.156 28.2803C257.19 28.0983 257.234 27.8275 257.289 27.4678C257.344 27.1038 257.405 26.6743 257.473 26.1792C257.545 25.6841 257.617 25.1424 257.689 24.5542C257.765 23.966 257.839 23.3545 257.911 22.7197H264.322V32ZM273.978 32L273.521 30.2607H270.506L270.036 32H267.281L270.309 22.6816H273.654L276.72 32H273.978ZM273.001 28.2041L272.601 26.6807C272.558 26.5156 272.497 26.2808 272.417 25.9761C272.336 25.6672 272.256 25.3498 272.175 25.0239C272.099 24.6938 272.04 24.423 271.998 24.2114C271.96 24.423 271.905 24.6854 271.833 24.9985C271.765 25.3075 271.693 25.6143 271.617 25.9189C271.545 26.2236 271.481 26.4775 271.426 26.6807L271.027 28.2041H273.001Z" fill="#C4117C"/>
<path d="M186.329 38L185.453 34.915H185.427C185.435 34.9951 185.442 35.1035 185.45 35.2402C185.46 35.377 185.469 35.5244 185.477 35.6826C185.484 35.8408 185.488 35.9932 185.488 36.1396V38H184.463V33.7168H186.004L186.897 36.7578H186.921L187.797 33.7168H189.341V38H188.277V36.1221C188.277 35.9873 188.279 35.8428 188.283 35.6885C188.289 35.5322 188.295 35.3857 188.301 35.249C188.309 35.1104 188.315 35.001 188.321 34.9209H188.295L187.431 38H186.329ZM194.692 38L194.481 37.1973H193.089L192.872 38H191.601L192.998 33.6992H194.542L195.957 38H194.692ZM194.24 36.248L194.056 35.5449C194.036 35.4688 194.008 35.3604 193.971 35.2197C193.934 35.0771 193.897 34.9307 193.86 34.7803C193.824 34.6279 193.797 34.5029 193.778 34.4053C193.76 34.5029 193.735 34.624 193.701 34.7686C193.67 34.9111 193.637 35.0527 193.602 35.1934C193.569 35.334 193.539 35.4512 193.514 35.5449L193.329 36.248H194.24ZM200.13 34.6045C199.994 34.6045 199.871 34.6338 199.764 34.6924C199.657 34.749 199.565 34.832 199.489 34.9414C199.413 35.0508 199.354 35.1846 199.313 35.3428C199.274 35.499 199.254 35.6768 199.254 35.876C199.254 36.1455 199.288 36.3721 199.357 36.5557C199.425 36.7393 199.529 36.8779 199.667 36.9717C199.808 37.0654 199.984 37.1123 200.195 37.1123C200.386 37.1123 200.57 37.0859 200.746 37.0332C200.923 36.9805 201.102 36.917 201.282 36.8428V37.8213C201.092 37.9053 200.898 37.9658 200.699 38.0029C200.501 38.04 200.291 38.0586 200.069 38.0586C199.604 38.0586 199.223 37.9668 198.926 37.7832C198.631 37.5977 198.413 37.3408 198.273 37.0127C198.134 36.6846 198.065 36.3037 198.065 35.8701C198.065 35.5459 198.11 35.249 198.2 34.9795C198.291 34.71 198.425 34.4766 198.601 34.2793C198.777 34.0801 198.994 33.9268 199.251 33.8193C199.511 33.71 199.808 33.6553 200.142 33.6553C200.349 33.6553 200.567 33.6797 200.795 33.7285C201.026 33.7754 201.25 33.8516 201.469 33.957L201.115 34.8682C200.958 34.7939 200.8 34.7314 200.64 34.6807C200.48 34.6299 200.31 34.6045 200.13 34.6045ZM205.809 38H204.652V34.6631H203.606V33.7168H206.852V34.6631H205.809V38ZM211.807 38H209.264V33.7168H211.807V34.6455H210.422V35.3193H211.705V36.248H210.422V37.0566H211.807V38ZM215.84 33.7168C216.383 33.7168 216.789 33.835 217.059 34.0713C217.33 34.3076 217.466 34.6436 217.466 35.0791C217.466 35.2744 217.438 35.4619 217.381 35.6416C217.326 35.8213 217.235 35.9814 217.108 36.1221C216.983 36.2627 216.816 36.374 216.607 36.4561C216.4 36.5381 216.145 36.5791 215.84 36.5791H215.515V38H214.357V33.7168H215.84ZM215.813 34.6514H215.515V35.6357H215.743C215.843 35.6357 215.936 35.6191 216.021 35.5859C216.107 35.5508 216.176 35.4951 216.227 35.4189C216.279 35.3408 216.306 35.2373 216.306 35.1084C216.306 34.9736 216.266 34.8643 216.186 34.7803C216.105 34.6943 215.981 34.6514 215.813 34.6514ZM223.956 35.8525C223.956 36.1826 223.916 36.4834 223.836 36.7549C223.758 37.0244 223.635 37.2568 223.467 37.4521C223.299 37.6475 223.083 37.7979 222.82 37.9033C222.556 38.0068 222.24 38.0586 221.873 38.0586C221.514 38.0586 221.202 38.0068 220.939 37.9033C220.677 37.7979 220.461 37.6484 220.291 37.4551C220.121 37.2598 219.995 37.0264 219.913 36.7549C219.831 36.4834 219.79 36.1807 219.79 35.8467C219.79 35.4014 219.863 35.0146 220.01 34.6865C220.158 34.3564 220.387 34.1016 220.696 33.9219C221.004 33.7402 221.399 33.6494 221.879 33.6494C222.367 33.6494 222.764 33.7402 223.069 33.9219C223.375 34.1035 223.6 34.3594 223.742 34.6895C223.885 35.0195 223.956 35.4072 223.956 35.8525ZM221.009 35.8525C221.009 36.1104 221.038 36.332 221.097 36.5176C221.155 36.7031 221.248 36.8457 221.375 36.9453C221.502 37.0449 221.668 37.0947 221.873 37.0947C222.086 37.0947 222.255 37.0449 222.38 36.9453C222.507 36.8457 222.598 36.7031 222.653 36.5176C222.709 36.332 222.737 36.1104 222.737 35.8525C222.737 35.4658 222.673 35.1602 222.544 34.9355C222.415 34.7109 222.194 34.5986 221.879 34.5986C221.67 34.5986 221.501 34.6494 221.372 34.751C221.245 34.8525 221.153 34.9971 221.094 35.1846C221.037 35.3721 221.009 35.5947 221.009 35.8525ZM226.53 33.7168H228.024C228.643 33.7168 229.084 33.8086 229.348 33.9922C229.612 34.1758 229.744 34.4395 229.744 34.7832C229.744 34.9707 229.709 35.1299 229.641 35.2607C229.575 35.3916 229.49 35.4951 229.386 35.5713C229.285 35.6475 229.18 35.6992 229.073 35.7266V35.7559C229.19 35.7852 229.306 35.834 229.421 35.9023C229.538 35.9688 229.635 36.0693 229.711 36.2041C229.789 36.3369 229.829 36.5176 229.829 36.7461C229.829 37.0059 229.762 37.2295 229.629 37.417C229.498 37.6045 229.311 37.749 229.067 37.8506C228.823 37.9502 228.533 38 228.197 38H226.53V33.7168ZM227.687 35.3604H228.036C228.227 35.3604 228.362 35.3213 228.44 35.2432C228.518 35.1631 228.557 35.0664 228.557 34.9531C228.557 34.8359 228.512 34.7471 228.422 34.6865C228.334 34.624 228.198 34.5928 228.012 34.5928H227.687V35.3604ZM227.687 36.207V37.1064H228.094C228.295 37.1064 228.436 37.0635 228.516 36.9775C228.596 36.8896 228.636 36.7803 228.636 36.6494C228.636 36.5732 228.619 36.502 228.583 36.4355C228.55 36.3672 228.493 36.3125 228.411 36.2715C228.329 36.2285 228.215 36.207 228.071 36.207H227.687ZM239.475 38H238.166L236.894 35.8291V38H235.731V33.7168H236.894V35.791L238.119 33.7168H239.39L238.069 35.7617L239.475 38ZM243.197 33.7168C243.74 33.7168 244.146 33.835 244.416 34.0713C244.688 34.3076 244.823 34.6436 244.823 35.0791C244.823 35.2744 244.795 35.4619 244.738 35.6416C244.684 35.8213 244.593 35.9814 244.466 36.1221C244.341 36.2627 244.174 36.374 243.965 36.4561C243.758 36.5381 243.502 36.5791 243.197 36.5791H242.872V38H241.715V33.7168H243.197ZM243.171 34.6514H242.872V35.6357H243.101C243.2 35.6357 243.293 35.6191 243.379 35.5859C243.465 35.5508 243.533 35.4951 243.584 35.4189C243.637 35.3408 243.663 35.2373 243.663 35.1084C243.663 34.9736 243.623 34.8643 243.543 34.7803C243.463 34.6943 243.339 34.6514 243.171 34.6514ZM249.934 38L249.723 37.1973H248.331L248.114 38H246.843L248.24 33.6992H249.784L251.199 38H249.934ZM249.483 36.248L249.298 35.5449C249.279 35.4688 249.25 35.3604 249.213 35.2197C249.176 35.0771 249.139 34.9307 249.102 34.7803C249.067 34.6279 249.039 34.5029 249.02 34.4053C249.002 34.5029 248.977 34.624 248.944 34.7686C248.912 34.9111 248.879 35.0527 248.844 35.1934C248.811 35.334 248.781 35.4512 248.756 35.5449L248.571 36.248H249.483ZM255.372 34.6045C255.236 34.6045 255.114 34.6338 255.006 34.6924C254.899 34.749 254.807 34.832 254.731 34.9414C254.655 35.0508 254.596 35.1846 254.555 35.3428C254.516 35.499 254.496 35.6768 254.496 35.876C254.496 36.1455 254.531 36.3721 254.599 36.5557C254.667 36.7393 254.771 36.8779 254.91 36.9717C255.05 37.0654 255.226 37.1123 255.437 37.1123C255.628 37.1123 255.812 37.0859 255.988 37.0332C256.165 36.9805 256.344 36.917 256.524 36.8428V37.8213C256.334 37.9053 256.14 37.9658 255.941 38.0029C255.744 38.04 255.534 38.0586 255.311 38.0586C254.846 38.0586 254.465 37.9668 254.168 37.7832C253.873 37.5977 253.656 37.3408 253.515 37.0127C253.376 36.6846 253.307 36.3037 253.307 35.8701C253.307 35.5459 253.352 35.249 253.442 34.9795C253.534 34.71 253.667 34.4766 253.843 34.2793C254.019 34.0801 254.236 33.9268 254.494 33.8193C254.753 33.71 255.05 33.6553 255.384 33.6553C255.591 33.6553 255.809 33.6797 256.037 33.7285C256.268 33.7754 256.493 33.8516 256.711 33.957L256.357 34.8682C256.201 34.7939 256.042 34.7314 255.882 34.6807C255.722 34.6299 255.552 34.6045 255.372 34.6045ZM263.17 35.8525C263.17 36.1826 263.129 36.4834 263.049 36.7549C262.971 37.0244 262.848 37.2568 262.68 37.4521C262.512 37.6475 262.296 37.7979 262.033 37.9033C261.769 38.0068 261.454 38.0586 261.087 38.0586C260.727 38.0586 260.416 38.0068 260.152 37.9033C259.89 37.7979 259.674 37.6484 259.504 37.4551C259.335 37.2598 259.209 37.0264 259.127 36.7549C259.045 36.4834 259.004 36.1807 259.004 35.8467C259.004 35.4014 259.077 35.0146 259.223 34.6865C259.372 34.3564 259.6 34.1016 259.909 33.9219C260.217 33.7402 260.612 33.6494 261.092 33.6494C261.581 33.6494 261.977 33.7402 262.282 33.9219C262.588 34.1035 262.813 34.3594 262.956 34.6895C263.098 35.0195 263.17 35.4072 263.17 35.8525ZM260.222 35.8525C260.222 36.1104 260.252 36.332 260.31 36.5176C260.369 36.7031 260.462 36.8457 260.588 36.9453C260.715 37.0449 260.881 37.0947 261.087 37.0947C261.299 37.0947 261.468 37.0449 261.593 36.9453C261.72 36.8457 261.811 36.7031 261.866 36.5176C261.922 36.332 261.951 36.1104 261.951 35.8525C261.951 35.4658 261.886 35.1602 261.757 34.9355C261.629 34.7109 261.407 34.5986 261.092 34.5986C260.883 34.5986 260.714 34.6494 260.586 34.751C260.459 34.8525 260.366 34.9971 260.307 35.1846C260.251 35.3721 260.222 35.5947 260.222 35.8525ZM267.633 38H266.475V34.6631H265.429V33.7168H268.676V34.6631H267.633V38ZM271.088 38V33.7168H272.245V35.2285H272.629C272.996 35.2285 273.298 35.2842 273.534 35.3955C273.772 35.5068 273.949 35.6621 274.064 35.8613C274.18 36.0586 274.237 36.2871 274.237 36.5469C274.237 36.998 274.085 37.3535 273.78 37.6133C273.476 37.8711 273.052 38 272.509 38H271.088ZM272.245 37.083H272.526C272.716 37.083 272.855 37.042 272.945 36.96C273.035 36.876 273.08 36.7568 273.08 36.6025C273.08 36.5029 273.057 36.4199 273.01 36.3535C272.963 36.2852 272.899 36.2334 272.819 36.1982C272.741 36.1631 272.651 36.1455 272.55 36.1455H272.245V37.083ZM274.536 38V33.7168H275.702V38H274.536Z" fill="#C4117C"/>
<path d="M256 43H277V49H262V53H273V59H262V63H277V69H256V43Z" fill="white"/>
<path d="M221 43H229L235 60H236L243 43H250L239 69H232L221 43Z" fill="white"/>
<rect x="209" y="43" width="6" height="26" fill="white"/>
<path d="M187 43H193H202V49H193V69H187V49H178V43H187Z" fill="white"/>
<circle cx="158" cy="56" r="8" fill="#C4117C"/>
<path d="M171 56C171 63.1797 165.18 69 158 69C150.82 69 145 63.1797 145 56C145 48.8203 150.82 43 158 43C165.18 43 171 48.8203 171 56ZM150.688 56C150.688 60.0382 153.962 63.3119 158 63.3119C162.038 63.3119 165.312 60.0382 165.312 56C165.312 51.9618 162.038 48.6881 158 48.6881C153.962 48.6881 150.688 51.9618 150.688 56Z" fill="white"/>
<path d="M107 43H115L122 60H123L130 43H138V69H132V54L125 69H120L113 54V69H107V43Z" fill="white"/>
</svg>
