<svg width="172" height="50" viewBox="0 0 172 50" fill="none" xmlns="http://www.w3.org/2000/svg">
<path d="M123.146 12H111.003V2.71973H113.523V9.94336H115.84V2.71973H118.309V9.94336H120.62V2.71973H123.146V12ZM135.208 12H132.37L129.616 7.29639V12H127.096V2.71973H129.616V7.21387L132.269 2.71973H135.024L132.161 7.15039L135.208 12ZM146.794 7.34717C146.794 8.06234 146.707 8.71403 146.533 9.30225C146.364 9.88623 146.097 10.3898 145.733 10.813C145.37 11.2362 144.902 11.562 144.331 11.7905C143.759 12.0148 143.076 12.127 142.28 12.127C141.502 12.127 140.827 12.0148 140.255 11.7905C139.688 11.562 139.221 11.2383 138.853 10.8193C138.484 10.3962 138.212 9.89046 138.034 9.30225C137.856 8.71403 137.767 8.05811 137.767 7.33447C137.767 6.36963 137.926 5.53174 138.243 4.8208C138.565 4.10563 139.06 3.55339 139.729 3.16406C140.397 2.77051 141.252 2.57373 142.293 2.57373C143.351 2.57373 144.21 2.77051 144.87 3.16406C145.535 3.55762 146.021 4.11198 146.33 4.82715C146.639 5.54232 146.794 6.38232 146.794 7.34717ZM140.408 7.34717C140.408 7.90576 140.471 8.38607 140.598 8.78809C140.725 9.1901 140.926 9.49902 141.201 9.71484C141.476 9.93066 141.836 10.0386 142.28 10.0386C142.742 10.0386 143.108 9.93066 143.379 9.71484C143.654 9.49902 143.85 9.1901 143.969 8.78809C144.092 8.38607 144.153 7.90576 144.153 7.34717C144.153 6.50928 144.013 5.84701 143.734 5.36035C143.455 4.8737 142.974 4.63037 142.293 4.63037C141.84 4.63037 141.474 4.7404 141.195 4.96045C140.92 5.1805 140.719 5.49365 140.592 5.8999C140.469 6.30615 140.408 6.78857 140.408 7.34717ZM158.322 12H155.802V4.77002H154.031C154.002 5.11702 153.961 5.50846 153.911 5.94434C153.86 6.37598 153.803 6.82031 153.739 7.27734C153.68 7.73014 153.616 8.16602 153.549 8.58496C153.481 9.00391 153.411 9.36995 153.339 9.68311C153.229 10.1951 153.066 10.6331 152.85 10.9971C152.639 11.361 152.349 11.6403 151.981 11.835C151.613 12.0296 151.139 12.127 150.559 12.127C150.373 12.127 150.199 12.1143 150.038 12.0889C149.878 12.0635 149.723 12.0296 149.575 11.9873V10.0513C149.689 10.0894 149.795 10.1211 149.892 10.1465C149.99 10.1676 150.091 10.1782 150.197 10.1782C150.337 10.1782 150.46 10.138 150.565 10.0576C150.675 9.97721 150.777 9.8016 150.87 9.53076C150.967 9.25993 151.063 8.8431 151.156 8.28027C151.19 8.09831 151.234 7.82747 151.289 7.46777C151.344 7.10384 151.405 6.67432 151.473 6.1792C151.545 5.68408 151.617 5.14242 151.689 4.5542C151.765 3.96598 151.839 3.35449 151.911 2.71973H158.322V12ZM167.978 12L167.521 10.2607H164.506L164.036 12H161.281L164.309 2.68164H167.654L170.72 12H167.978ZM167.001 8.2041L166.601 6.68066C166.558 6.51562 166.497 6.28076 166.417 5.97607C166.336 5.66715 166.256 5.34977 166.175 5.02393C166.099 4.69385 166.04 4.42301 165.998 4.21143C165.96 4.42301 165.905 4.68538 165.833 4.99854C165.765 5.30745 165.693 5.61426 165.617 5.91895C165.545 6.22363 165.481 6.47754 165.426 6.68066L165.027 8.2041H167.001Z" fill="#C4117C"/>
<path d="M80.3291 18L79.4531 14.915H79.4268C79.4346 14.9951 79.4424 15.1035 79.4502 15.2402C79.46 15.377 79.4688 15.5244 79.4766 15.6826C79.4844 15.8408 79.4883 15.9932 79.4883 16.1396V18H78.4629V13.7168H80.0039L80.8975 16.7578H80.9209L81.7969 13.7168H83.3408V18H82.2773V16.1221C82.2773 15.9873 82.2793 15.8428 82.2832 15.6885C82.2891 15.5322 82.2949 15.3857 82.3008 15.249C82.3086 15.1104 82.3154 15.001 82.3213 14.9209H82.2949L81.4307 18H80.3291ZM88.6916 18L88.4807 17.1973H87.0891L86.8723 18H85.6008L86.9982 13.6992H88.5422L89.9572 18H88.6916ZM88.2404 16.248L88.0559 15.5449C88.0363 15.4688 88.008 15.3604 87.9709 15.2197C87.9338 15.0771 87.8967 14.9307 87.8596 14.7803C87.8244 14.6279 87.7971 14.5029 87.7775 14.4053C87.76 14.5029 87.7346 14.624 87.7014 14.7686C87.6701 14.9111 87.6369 15.0527 87.6018 15.1934C87.5686 15.334 87.5393 15.4512 87.5139 15.5449L87.3293 16.248H88.2404ZM94.1303 14.6045C93.9936 14.6045 93.8715 14.6338 93.7641 14.6924C93.6566 14.749 93.5648 14.832 93.4887 14.9414C93.4125 15.0508 93.3539 15.1846 93.3129 15.3428C93.2738 15.499 93.2543 15.6768 93.2543 15.876C93.2543 16.1455 93.2885 16.3721 93.3568 16.5557C93.4252 16.7393 93.5287 16.8779 93.6674 16.9717C93.808 17.0654 93.9838 17.1123 94.1947 17.1123C94.3861 17.1123 94.5697 17.0859 94.7455 17.0332C94.9232 16.9805 95.102 16.917 95.2816 16.8428V17.8213C95.0922 17.9053 94.8979 17.9658 94.6986 18.0029C94.5014 18.04 94.2914 18.0586 94.0688 18.0586C93.6039 18.0586 93.223 17.9668 92.9262 17.7832C92.6313 17.5977 92.4135 17.3408 92.2729 17.0127C92.1342 16.6846 92.0648 16.3037 92.0648 15.8701C92.0648 15.5459 92.1098 15.249 92.1996 14.9795C92.2914 14.71 92.4252 14.4766 92.601 14.2793C92.7768 14.0801 92.9936 13.9268 93.2514 13.8193C93.5111 13.71 93.808 13.6553 94.142 13.6553C94.349 13.6553 94.5668 13.6797 94.7953 13.7285C95.0258 13.7754 95.2504 13.8516 95.4691 13.957L95.1146 14.8682C94.9584 14.7939 94.8002 14.7314 94.64 14.6807C94.4799 14.6299 94.31 14.6045 94.1303 14.6045ZM99.8092 18H98.652V14.6631H97.6061V13.7168H100.852V14.6631H99.8092V18ZM105.807 18H103.264V13.7168H105.807V14.6455H104.422V15.3193H105.705V16.248H104.422V17.0566H105.807V18ZM109.84 13.7168C110.383 13.7168 110.789 13.835 111.059 14.0713C111.33 14.3076 111.466 14.6436 111.466 15.0791C111.466 15.2744 111.438 15.4619 111.381 15.6416C111.326 15.8213 111.235 15.9814 111.108 16.1221C110.983 16.2627 110.816 16.374 110.607 16.4561C110.4 16.5381 110.145 16.5791 109.84 16.5791H109.515V18H108.357V13.7168H109.84ZM109.813 14.6514H109.515V15.6357H109.743C109.843 15.6357 109.936 15.6191 110.021 15.5859C110.107 15.5508 110.176 15.4951 110.227 15.4189C110.279 15.3408 110.306 15.2373 110.306 15.1084C110.306 14.9736 110.266 14.8643 110.186 14.7803C110.105 14.6943 109.981 14.6514 109.813 14.6514ZM117.956 15.8525C117.956 16.1826 117.916 16.4834 117.836 16.7549C117.758 17.0244 117.635 17.2568 117.467 17.4521C117.299 17.6475 117.083 17.7979 116.82 17.9033C116.556 18.0068 116.24 18.0586 115.873 18.0586C115.514 18.0586 115.202 18.0068 114.939 17.9033C114.677 17.7979 114.461 17.6484 114.291 17.4551C114.121 17.2598 113.995 17.0264 113.913 16.7549C113.831 16.4834 113.79 16.1807 113.79 15.8467C113.79 15.4014 113.863 15.0146 114.01 14.6865C114.158 14.3564 114.387 14.1016 114.696 13.9219C115.004 13.7402 115.399 13.6494 115.879 13.6494C116.367 13.6494 116.764 13.7402 117.069 13.9219C117.375 14.1035 117.6 14.3594 117.742 14.6895C117.885 15.0195 117.956 15.4072 117.956 15.8525ZM115.009 15.8525C115.009 16.1104 115.038 16.332 115.097 16.5176C115.155 16.7031 115.248 16.8457 115.375 16.9453C115.502 17.0449 115.668 17.0947 115.873 17.0947C116.086 17.0947 116.255 17.0449 116.38 16.9453C116.507 16.8457 116.598 16.7031 116.653 16.5176C116.709 16.332 116.737 16.1104 116.737 15.8525C116.737 15.4658 116.673 15.1602 116.544 14.9355C116.415 14.7109 116.194 14.5986 115.879 14.5986C115.67 14.5986 115.501 14.6494 115.372 14.751C115.245 14.8525 115.153 14.9971 115.094 15.1846C115.037 15.3721 115.009 15.5947 115.009 15.8525ZM120.53 13.7168H122.024C122.643 13.7168 123.084 13.8086 123.348 13.9922C123.612 14.1758 123.744 14.4395 123.744 14.7832C123.744 14.9707 123.709 15.1299 123.641 15.2607C123.575 15.3916 123.49 15.4951 123.386 15.5713C123.285 15.6475 123.18 15.6992 123.073 15.7266V15.7559C123.19 15.7852 123.306 15.834 123.421 15.9023C123.538 15.9688 123.635 16.0693 123.711 16.2041C123.789 16.3369 123.829 16.5176 123.829 16.7461C123.829 17.0059 123.762 17.2295 123.629 17.417C123.498 17.6045 123.311 17.749 123.067 17.8506C122.823 17.9502 122.533 18 122.197 18H120.53V13.7168ZM121.687 15.3604H122.036C122.227 15.3604 122.362 15.3213 122.44 15.2432C122.518 15.1631 122.557 15.0664 122.557 14.9531C122.557 14.8359 122.512 14.7471 122.422 14.6865C122.334 14.624 122.198 14.5928 122.012 14.5928H121.687V15.3604ZM121.687 16.207V17.1064H122.094C122.295 17.1064 122.436 17.0635 122.516 16.9775C122.596 16.8896 122.636 16.7803 122.636 16.6494C122.636 16.5732 122.619 16.502 122.583 16.4355C122.55 16.3672 122.493 16.3125 122.411 16.2715C122.329 16.2285 122.215 16.207 122.071 16.207H121.687ZM133.475 18H132.166L130.894 15.8291V18H129.731V13.7168H130.894V15.791L132.119 13.7168H133.39L132.069 15.7617L133.475 18ZM137.197 13.7168C137.74 13.7168 138.146 13.835 138.416 14.0713C138.688 14.3076 138.823 14.6436 138.823 15.0791C138.823 15.2744 138.795 15.4619 138.738 15.6416C138.684 15.8213 138.593 15.9814 138.466 16.1221C138.341 16.2627 138.174 16.374 137.965 16.4561C137.758 16.5381 137.502 16.5791 137.197 16.5791H136.872V18H135.715V13.7168H137.197ZM137.171 14.6514H136.872V15.6357H137.101C137.2 15.6357 137.293 15.6191 137.379 15.5859C137.465 15.5508 137.533 15.4951 137.584 15.4189C137.637 15.3408 137.663 15.2373 137.663 15.1084C137.663 14.9736 137.623 14.8643 137.543 14.7803C137.463 14.6943 137.339 14.6514 137.171 14.6514ZM143.934 18L143.723 17.1973H142.331L142.114 18H140.843L142.24 13.6992H143.784L145.199 18H143.934ZM143.483 16.248L143.298 15.5449C143.279 15.4688 143.25 15.3604 143.213 15.2197C143.176 15.0771 143.139 14.9307 143.102 14.7803C143.067 14.6279 143.039 14.5029 143.02 14.4053C143.002 14.5029 142.977 14.624 142.944 14.7686C142.912 14.9111 142.879 15.0527 142.844 15.1934C142.811 15.334 142.781 15.4512 142.756 15.5449L142.571 16.248H143.483ZM149.372 14.6045C149.236 14.6045 149.114 14.6338 149.006 14.6924C148.899 14.749 148.807 14.832 148.731 14.9414C148.655 15.0508 148.596 15.1846 148.555 15.3428C148.516 15.499 148.496 15.6768 148.496 15.876C148.496 16.1455 148.531 16.3721 148.599 16.5557C148.667 16.7393 148.771 16.8779 148.91 16.9717C149.05 17.0654 149.226 17.1123 149.437 17.1123C149.628 17.1123 149.812 17.0859 149.988 17.0332C150.165 16.9805 150.344 16.917 150.524 16.8428V17.8213C150.334 17.9053 150.14 17.9658 149.941 18.0029C149.744 18.04 149.534 18.0586 149.311 18.0586C148.846 18.0586 148.465 17.9668 148.168 17.7832C147.873 17.5977 147.656 17.3408 147.515 17.0127C147.376 16.6846 147.307 16.3037 147.307 15.8701C147.307 15.5459 147.352 15.249 147.442 14.9795C147.534 14.71 147.667 14.4766 147.843 14.2793C148.019 14.0801 148.236 13.9268 148.494 13.8193C148.753 13.71 149.05 13.6553 149.384 13.6553C149.591 13.6553 149.809 13.6797 150.037 13.7285C150.268 13.7754 150.493 13.8516 150.711 13.957L150.357 14.8682C150.201 14.7939 150.042 14.7314 149.882 14.6807C149.722 14.6299 149.552 14.6045 149.372 14.6045ZM157.17 15.8525C157.17 16.1826 157.129 16.4834 157.049 16.7549C156.971 17.0244 156.848 17.2568 156.68 17.4521C156.512 17.6475 156.296 17.7979 156.033 17.9033C155.769 18.0068 155.454 18.0586 155.087 18.0586C154.727 18.0586 154.416 18.0068 154.152 17.9033C153.89 17.7979 153.674 17.6484 153.504 17.4551C153.335 17.2598 153.209 17.0264 153.127 16.7549C153.045 16.4834 153.004 16.1807 153.004 15.8467C153.004 15.4014 153.077 15.0146 153.223 14.6865C153.372 14.3564 153.6 14.1016 153.909 13.9219C154.217 13.7402 154.612 13.6494 155.092 13.6494C155.581 13.6494 155.977 13.7402 156.282 13.9219C156.588 14.1035 156.813 14.3594 156.956 14.6895C157.098 15.0195 157.17 15.4072 157.17 15.8525ZM154.222 15.8525C154.222 16.1104 154.252 16.332 154.31 16.5176C154.369 16.7031 154.462 16.8457 154.588 16.9453C154.715 17.0449 154.881 17.0947 155.087 17.0947C155.299 17.0947 155.468 17.0449 155.593 16.9453C155.72 16.8457 155.811 16.7031 155.866 16.5176C155.922 16.332 155.951 16.1104 155.951 15.8525C155.951 15.4658 155.886 15.1602 155.757 14.9355C155.629 14.7109 155.407 14.5986 155.092 14.5986C154.883 14.5986 154.714 14.6494 154.586 14.751C154.459 14.8525 154.366 14.9971 154.307 15.1846C154.251 15.3721 154.222 15.5947 154.222 15.8525ZM161.633 18H160.475V14.6631H159.429V13.7168H162.676V14.6631H161.633V18ZM165.088 18V13.7168H166.245V15.2285H166.629C166.996 15.2285 167.298 15.2842 167.534 15.3955C167.772 15.5068 167.949 15.6621 168.064 15.8613C168.18 16.0586 168.237 16.2871 168.237 16.5469C168.237 16.998 168.085 17.3535 167.78 17.6133C167.476 17.8711 167.052 18 166.509 18H165.088ZM166.245 17.083H166.526C166.716 17.083 166.855 17.042 166.945 16.96C167.035 16.876 167.08 16.7568 167.08 16.6025C167.08 16.5029 167.057 16.4199 167.01 16.3535C166.963 16.2852 166.899 16.2334 166.819 16.1982C166.741 16.1631 166.651 16.1455 166.55 16.1455H166.245V17.083ZM168.536 18V13.7168H169.702V18H168.536Z" fill="#C4117C"/>
<path d="M150 22.75H149.75V23V49V49.25H150H171H171.25V49V43V42.75H171H156.25V39.25H167H167.25V39V33V32.75H167H156.25V29.25H171H171.25V29V23V22.75H171H150Z" fill="white" stroke="black" stroke-width="0.5"/>
<path d="M115 22.75H114.623L114.77 23.0974L125.77 49.0974L125.834 49.25H126H133H133.166L133.23 49.0974L144.23 23.0974L144.377 22.75H144H137H136.833L136.769 22.9048L129.833 39.75H129.177L123.236 22.9168L123.177 22.75H123H115Z" fill="white" stroke="black" stroke-width="0.5"/>
<rect x="102.75" y="22.75" width="6.5" height="26.5" fill="white" stroke="black" stroke-width="0.5"/>
<path d="M87 49.25H87.25V49V29.25H96H96.25V29V23V22.75H96H87H81H72H71.75V23V29V29.25H72H80.75V49V49.25H81H87Z" fill="white" stroke="black" stroke-width="0.5"/>
<circle cx="52" cy="36" r="13.25" fill="#C4117C" stroke="black" stroke-width="0.5"/>
<path d="M65 36C65 43.1797 59.1797 49 52 49C44.8203 49 39 43.1797 39 36C39 28.8203 44.8203 23 52 23C59.1797 23 65 28.8203 65 36ZM44.6881 36C44.6881 40.0382 47.9618 43.3119 52 43.3119C56.0382 43.3119 59.3119 40.0382 59.3119 36C59.3119 31.9618 56.0382 28.6881 52 28.6881C47.9618 28.6881 44.6881 31.9618 44.6881 36Z" fill="white"/>
<path d="M1 22.75H0.75V23V49V49.25H1H7H7.25V49V35.1269L13.7735 49.1057L13.8408 49.25H14H19H19.1592L19.2265 49.1057L25.75 35.1269V49V49.25H26H32H32.25V49V23V22.75H32H24H23.8326L23.7688 22.9048L16.8326 39.75H16.1674L9.23117 22.9048L9.16742 22.75H9H1Z" fill="white" stroke="black" stroke-width="0.5"/>
</svg>
