<svg width="48" height="48" viewBox="0 0 48 48" fill="none" xmlns="http://www.w3.org/2000/svg">
<path d="M1.6 4.725C2.4381 3.6 4.34286 2.025 5.79048 1.35C8 0.225 10.6667 0 24 0C37.3333 0 40 0.225 42.2095 1.35C43.6571 2.025 45.5619 3.6 46.4 4.725C47.9238 6.75 48 7.875 48 24C48 40.125 47.9238 41.25 46.4 43.275C45.5619 44.4 43.6571 45.975 42.2095 46.65C40 47.775 37.3333 48 24 48C10.6667 48 8 47.775 5.79048 46.65C4.34286 45.975 2.4381 44.4 1.6 43.275C0.0761904 41.25 0 40.125 0 24C0 7.875 0.0761904 6.75 1.6 4.725Z" fill="#FF7700"/>
<path d="M13.0064 27.85C12.9306 27.4 13.5369 26.35 14.2948 25.6C15.0526 24.85 15.8105 24.25 16.0379 24.25C16.1894 24.25 17.6294 24.925 19.1451 25.75C20.6608 26.575 23.086 27.25 24.5259 27.25C25.9658 27.25 28.5426 26.575 30.2099 25.75C33.0897 24.325 33.3171 24.325 34.6055 25.6C35.3633 26.275 35.9696 27.325 35.8938 27.775C35.8938 28.3 34.3781 29.425 29.0731 31.75L31.3467 35.65C32.5592 37.825 33.6202 40.075 33.6202 40.525C33.6202 41.125 32.5592 41.5 30.9677 41.5C28.5426 41.5 28.1636 41.2 26.6479 37.75C25.6627 35.65 24.7533 33.925 24.5259 33.925C24.2985 33.925 23.3891 35.65 22.4797 37.75C20.8882 41.2 20.5092 41.5 18.0841 41.5C16.4926 41.5 15.4316 41.125 15.4316 40.6C15.4316 40.075 16.4926 37.825 19.9787 31.75L16.5684 30.25C14.6737 29.425 13.0822 28.375 13.0064 27.85Z" fill="#FFFFFE"/>
<path d="M33 15.5C33 20.1944 29.1944 24 24.5 24C19.8056 24 16 20.1944 16 15.5C16 10.8056 19.8056 7 24.5 7C29.1944 7 33 10.8056 33 15.5ZM20.6959 15.5C20.6959 17.601 22.399 19.3041 24.5 19.3041C26.601 19.3041 28.3041 17.601 28.3041 15.5C28.3041 13.399 26.601 11.6959 24.5 11.6959C22.399 11.6959 20.6959 13.399 20.6959 15.5Z" fill="#FFFFFE"/>
</svg>
