<svg width="48" height="48" viewBox="0 0 48 48" fill="none" xmlns="http://www.w3.org/2000/svg">
<g clip-path="url(#clip0_7_24)">
<path d="M0 23.04C0 12.1788 0 6.74826 3.37413 3.37413C6.74826 0 12.1788 0 23.04 0H24.96C35.8212 0 41.2517 0 44.6259 3.37413C48 6.74826 48 12.1788 48 23.04V24.96C48 35.8212 48 41.2517 44.6259 44.6259C41.2517 48 35.8212 48 24.96 48H23.04C12.1788 48 6.74826 48 3.37413 44.6259C0 41.2517 0 35.8212 0 24.96V23.04Z" fill="url(#paint0_linear_7_24)"/>
<mask id="mask0_7_24" style="mask-type:luminance" maskUnits="userSpaceOnUse" x="0" y="0" width="48" height="48">
<path d="M48 0H0V48H48V0Z" fill="white"/>
</mask>
<g mask="url(#mask0_7_24)">
<path d="M24 48C37.2548 48 48 37.2548 48 24C48 10.7452 37.2548 0 24 0C10.7452 0 0 10.7452 0 24C0 37.2548 10.7452 48 24 48Z" fill="url(#paint1_linear_7_24)"/>
<path fill-rule="evenodd" clip-rule="evenodd" d="M10.8638 23.7466C17.8603 20.6984 22.5257 18.6888 24.8601 17.7179C31.5251 14.9456 32.91 14.4641 33.8127 14.4482C34.0113 14.4447 34.4552 14.4939 34.7427 14.7272C34.9855 14.9242 35.0523 15.1904 35.0843 15.3771C35.1163 15.5639 35.1561 15.9895 35.1244 16.3219C34.7633 20.1169 33.2004 29.3263 32.4053 33.5767C32.0689 35.3752 31.4065 35.9783 30.7652 36.0373C29.3714 36.1655 28.3131 35.1162 26.9632 34.2313C24.8509 32.8467 23.6576 31.9847 21.6072 30.6336C19.2377 29.0721 20.7738 28.2139 22.1242 26.8113C22.4776 26.4442 28.6183 20.8587 28.7372 20.352C28.7521 20.2886 28.7659 20.0524 28.6255 19.9277C28.4852 19.803 28.2781 19.8456 28.1286 19.8795C27.9168 19.9276 24.5423 22.158 18.0053 26.5707C17.0475 27.2284 16.1799 27.5489 15.4026 27.5321C14.5457 27.5135 12.8973 27.0475 11.6719 26.6492C10.1689 26.1606 8.97432 25.9023 9.07834 25.0726C9.13252 24.6404 9.72767 24.1984 10.8638 23.7466Z" fill="white"/>
</g>
</g>
<defs>
<linearGradient id="paint0_linear_7_24" x1="24" y1="0" x2="24" y2="48" gradientUnits="userSpaceOnUse">
<stop stop-color="#2AABEE"/>
<stop offset="0.765625" stop-color="#229EDA"/>
</linearGradient>
<linearGradient id="paint1_linear_7_24" x1="24" y1="0" x2="24" y2="47.644" gradientUnits="userSpaceOnUse">
<stop stop-color="#2AABEE"/>
<stop offset="1" stop-color="#229ED9"/>
</linearGradient>
<clipPath id="clip0_7_24">
<rect width="48" height="48" fill="white"/>
</clipPath>
</defs>
</svg>
