<svg width="84" height="84" viewBox="0 0 84 84" fill="none" xmlns="http://www.w3.org/2000/svg">
<rect width="84" height="84" rx="18.4615" fill="#7360F2"/>
<g clip-path="url(#clip0_119_1058)">
<path d="M63.875 19.5569C62.4201 18.2144 56.5407 13.9463 43.4447 13.8883C43.4447 13.8883 28.0011 12.957 20.4726 19.8626C16.2818 24.0543 14.8076 30.1876 14.652 37.7917C14.4965 45.3957 14.2953 59.6462 28.0318 63.5102H28.045L28.0362 69.4063C28.0362 69.4063 27.9484 71.7933 29.5201 72.2801C31.4214 72.8705 32.5372 71.0562 34.3523 69.1005C35.3486 68.0269 36.7244 66.4499 37.7612 65.2445C47.1557 66.0352 54.3811 64.228 55.2017 63.9609C57.0986 63.3459 67.8321 61.9709 69.5778 47.7213C71.3798 33.0342 68.7063 23.7442 63.875 19.5569ZM65.467 46.6679C63.9936 58.5655 55.2878 59.3132 53.6827 59.8281C53 60.0477 46.6541 61.6265 38.674 61.1055C38.674 61.1055 32.7278 68.2791 30.8705 70.1443C30.5806 70.436 30.2397 70.5537 30.0121 70.4957C29.6923 70.4175 29.6045 70.0388 29.608 69.4853C29.6133 68.6946 29.659 59.6875 29.659 59.6875C18.0389 56.4614 18.7163 44.3327 18.8481 37.9815C18.9799 31.6302 20.173 26.4273 23.7172 22.928C30.0851 17.1601 43.203 18.022 43.203 18.022C54.281 18.0703 59.5893 21.4063 60.8202 22.5238C64.9073 26.0232 66.9895 34.3969 65.467 46.6644V46.6679Z" fill="white"/>
<path d="M48.8354 37.4593C48.6913 34.5547 47.2159 33.0292 44.4092 32.8828" stroke="white" stroke-width="1.48127" stroke-linecap="round" stroke-linejoin="round"/>
<path d="M52.6354 38.7333C52.694 36.0273 51.8924 33.7664 50.2308 31.9507C48.5615 30.1285 46.2508 29.1252 43.2856 28.9082" stroke="white" stroke-width="1.48127" stroke-linecap="round" stroke-linejoin="round"/>
<path d="M56.5256 40.2551C56.4899 35.5594 55.0868 31.8612 52.3164 29.1604C49.546 26.4597 46.1005 25.095 41.98 25.0663" stroke="white" stroke-width="1.48127" stroke-linecap="round" stroke-linejoin="round"/>
<path d="M44.5555 47.3797C44.5555 47.3797 45.5967 47.4675 46.1572 46.777L47.2501 45.402C47.7773 44.7202 49.0494 44.2853 50.2953 44.9794C51.2288 45.5118 52.1352 46.0907 53.0109 46.7137C53.8377 47.3217 55.5307 48.7344 55.536 48.7344C56.3425 49.4153 56.5287 50.4151 55.9796 51.4694C55.9796 51.4756 55.9752 51.4861 55.9752 51.4914C55.3705 52.5398 54.6026 53.4853 53.7006 54.2923C53.6901 54.2976 53.6901 54.3028 53.6804 54.3081C52.8967 54.9629 52.1268 55.3351 51.3706 55.4248C51.2593 55.4442 51.1462 55.4513 51.0333 55.4458C50.6998 55.4491 50.3681 55.398 50.051 55.2947L50.0264 55.2587C48.8614 54.9301 46.9163 54.1078 43.677 52.3208C41.8024 51.2988 40.0178 50.12 38.3423 48.7968C37.5024 48.134 36.7013 47.4235 35.9429 46.6689L35.8621 46.5881L35.7812 46.5072L35.7004 46.4255C35.6732 46.3992 35.6468 46.3719 35.6196 46.3447C34.865 45.5863 34.1545 44.7852 33.4917 43.9453C32.1687 42.2699 30.9899 40.4856 29.9677 38.6115C28.1807 35.3713 27.3583 33.4279 27.0298 32.2612L26.9937 32.2366C26.8907 31.9195 26.84 31.5877 26.8435 31.2543C26.8374 31.1415 26.8441 31.0283 26.8637 30.917C26.958 30.1626 27.3308 29.3923 27.9821 28.6063C27.9874 28.5966 27.9927 28.5966 27.9979 28.5861C28.8047 27.6841 29.7503 26.9165 30.7988 26.3124C30.8041 26.3124 30.8147 26.3071 30.8208 26.3071C31.8751 25.758 32.8749 25.9442 33.5549 26.7464C33.5602 26.7516 34.9703 28.4447 35.5756 29.2714C36.1988 30.148 36.7776 31.0552 37.3099 31.9897C38.004 33.2346 37.5691 34.5094 36.8874 35.0348L35.5124 36.1278C34.8183 36.6883 34.9097 37.7294 34.9097 37.7294C34.9097 37.7294 36.9462 45.4371 44.5555 47.3797Z" fill="white"/>
</g>
<defs>
<clipPath id="clip0_119_1058">
<rect width="55.525" height="58.5508" fill="white" transform="translate(14.6177 13.8461)"/>
</clipPath>
</defs>
</svg>
